Inter-ExtraBold.ufo
<glyph name="exclam" format="2">
  <advance width="957"/>
  <unicode hex="0021"/>
  <outline>
    <contour>
      <point x="730" y="2048" type="line"/>
      <point x="227" y="2048" type="line"/>
      <point x="273" y="627" type="line"/>
      <point x="684" y="627" type="line"/>
    </contour>
    <component base="period" xOffset="49"/>
  </outline>
</glyph>
<glyph name="numbersign" format="2">
  <advance width="1846"/>
  <unicode hex="0023"/>
  <note>
1. outline
2. slant 9.4 deg
3. remove extra shapes created by outlining
</note>
  <outline>
    <contour>
      <point x="935" y="0" type="line"/>
      <point x="1295" y="0" type="line"/>
      <point x="1631" y="2048" type="line"/>
      <point x="1271" y="2048" type="line"/>
    </contour>
    <contour>
      <point x="22" y="488" type="line"/>
      <point x="1646" y="488" type="line"/>
      <point x="1707" y="848" type="line"/>
      <point x="83" y="848" type="line"/>
    </contour>
    <contour>
      <point x="215" y="0" type="line"/>
      <point x="575" y="0" type="line"/>
      <point x="911" y="2048" type="line"/>
      <point x="551" y="2048" type="line"/>
    </contour>
    <contour>
      <point x="139" y="1200" type="line"/>
      <point x="1763" y="1200" type="line"/>
      <point x="1824" y="1560" type="line"/>
      <point x="200" y="1560" type="line"/>
    </contour>
  </outline>
</glyph>
<glyph name="percent" format="2">
  <advance width="2464"/>
  <unicode hex="0025"/>
  <outline>
    <contour>
      <point x="1298" y="384" type="line" smooth="yes"/>
      <point x="1299" y="131"/>
      <point x="1462" y="-86"/>
      <point x="1765" y="-86" type="curve" smooth="yes"/>
      <point x="2067" y="-86"/>
      <point x="2236" y="131"/>
      <point x="2234" y="384" type="curve" smooth="yes"/>
      <point x="2234" y="492" type="line" smooth="yes"/>
      <point x="2236" y="748"/>
      <point x="2071" y="962"/>
      <point x="1765" y="962" type="curve" smooth="yes"/>
      <point x="1466" y="962"/>
      <point x="1299" y="745"/>
      <point x="1298" y="492" type="curve" smooth="yes"/>
    </contour>
    <contour>
      <point x="1617" y="492" type="line" smooth="yes"/>
      <point x="1618" y="581"/>
      <point x="1652" y="678"/>
      <point x="1765" y="678" type="curve" smooth="yes"/>
      <point x="1885" y="678"/>
      <point x="1914" y="581"/>
      <point x="1912" y="492" type="curve" smooth="yes"/>
      <point x="1912" y="384" type="line" smooth="yes"/>
      <point x="1914" y="295"/>
      <point x="1881" y="202"/>
      <point x="1765" y="202" type="curve" smooth="yes"/>
      <point x="1651" y="202"/>
      <point x="1618" y="298"/>
      <point x="1617" y="384" type="curve" smooth="yes"/>
    </contour>
    <contour>
      <point x="236" y="1556" type="line" smooth="yes"/>
      <point x="238" y="1303"/>
      <point x="400" y="1090"/>
      <point x="703" y="1090" type="curve" smooth="yes"/>
      <point x="1006" y="1090"/>
      <point x="1174" y="1300"/>
      <point x="1173" y="1556" type="curve" smooth="yes"/>
      <point x="1173" y="1664" type="line" smooth="yes"/>
      <point x="1174" y="1920"/>
      <point x="1010" y="2134"/>
      <point x="703" y="2134" type="curve" smooth="yes"/>
      <point x="407" y="2134"/>
      <point x="238" y="1920"/>
      <point x="236" y="1664" type="curve" smooth="yes"/>
    </contour>
    <contour>
      <point x="558" y="1664" type="line" smooth="yes"/>
      <point x="560" y="1750"/>
      <point x="590" y="1850"/>
      <point x="703" y="1850" type="curve" smooth="yes"/>
      <point x="823" y="1850"/>
      <point x="852" y="1753"/>
      <point x="850" y="1664" type="curve" smooth="yes"/>
      <point x="850" y="1556" type="line" smooth="yes"/>
      <point x="852" y="1467"/>
      <point x="819" y="1374"/>
      <point x="703" y="1374" type="curve" smooth="yes"/>
      <point x="593" y="1374"/>
      <point x="560" y="1467"/>
      <point x="558" y="1556" type="curve" smooth="yes"/>
    </contour>
    <component base="fraction" xOffset="798"/>
  </outline>
</glyph>
<glyph name="ampersand" format="2">
  <advance width="1931"/>
  <unicode hex="0026"/>
  <outline>
    <contour>
      <point x="799" y="-31" type="curve" smooth="yes"/>
      <point x="976" y="-31"/>
      <point x="1167" y="14"/>
      <point x="1325" y="128" type="curve" smooth="yes"/>
      <point x="1373" y="154"/>
      <point x="1417" y="178"/>
      <point x="1465" y="204" type="curve" smooth="yes"/>
      <point x="1694" y="369"/>
      <point x="1812" y="667"/>
      <point x="1812" y="1034" type="curve"/>
      <point x="1418" y="1034" type="line"/>
      <point x="1418" y="635"/>
      <point x="1109" y="356"/>
      <point x="830" y="356" type="curve" smooth="yes"/>
      <point x="673" y="356"/>
      <point x="573" y="445"/>
      <point x="573" y="576" type="curve" smooth="yes"/>
      <point x="573" y="662"/>
      <point x="627" y="733"/>
      <point x="716" y="797" type="curve" smooth="yes"/>
      <point x="1137" y="1098" type="line" smooth="yes"/>
      <point x="1310" y="1222"/>
      <point x="1409" y="1384"/>
      <point x="1409" y="1576" type="curve" smooth="yes"/>
      <point x="1409" y="1849"/>
      <point x="1202" y="2078"/>
      <point x="865" y="2078" type="curve" smooth="yes"/>
      <point x="517" y="2078"/>
      <point x="286" y="1835"/>
      <point x="286" y="1530" type="curve" smooth="yes"/>
      <point x="286" y="1258"/>
      <point x="474" y="1047"/>
      <point x="616" y="891" type="curve" smooth="yes"/>
      <point x="1437" y="0" type="line"/>
      <point x="1935" y="0" type="line"/>
      <point x="954" y="1103" type="line" smooth="yes"/>
      <point x="809" y="1276"/>
      <point x="692" y="1399"/>
      <point x="692" y="1523" type="curve" smooth="yes"/>
      <point x="692" y="1618"/>
      <point x="760" y="1687"/>
      <point x="866" y="1688" type="curve" smooth="yes"/>
      <point x="977" y="1689"/>
      <point x="1034" y="1617"/>
      <point x="1034" y="1544" type="curve" smooth="yes"/>
      <point x="1034" y="1476"/>
      <point x="998" y="1406"/>
      <point x="900" y="1345" type="curve" smooth="yes"/>
      <point x="470" y="1070" type="line" smooth="yes"/>
      <point x="250" y="921"/>
      <point x="102" y="779"/>
      <point x="102" y="544" type="curve" smooth="yes"/>
      <point x="102" y="224"/>
      <point x="366" y="-31"/>
    </contour>
  </outline>
</glyph>
<glyph name="quotesingle" format="2">
  <advance width="576"/>
  <unicode hex="0027"/>
  <outline>
    <contour>
      <point x="452" y="2048" type="line"/>
      <point x="120" y="2048" type="line"/>
      <point x="120" y="1245" type="line"/>
      <point x="452" y="1245" type="line"/>
    </contour>
  </outline>
</glyph>
<glyph name="parenleft" format="2">
  <advance width="1196"/>
  <unicode hex="0028"/>
  <guideline x="1183" y="1485" angle="270.0"/>
  <outline>
    <contour>
      <point x="252" y="806" type="curve" smooth="yes"/>
      <point x="252" y="312"/>
      <point x="382" y="-98"/>
      <point x="664" y="-454" type="curve"/>
      <point x="1138" y="-454" type="line"/>
      <point x="923" y="-190"/>
      <point x="762" y="334"/>
      <point x="762" y="806" type="curve" smooth="yes"/>
      <point x="762" y="1279"/>
      <point x="923" y="1803"/>
      <point x="1138" y="2067" type="curve"/>
      <point x="664" y="2067" type="line"/>
      <point x="382" y="1711"/>
      <point x="252" y="1301"/>
    </contour>
  </outline>
</glyph>
<glyph name="asterisk" format="2">
  <advance width="1651"/>
  <unicode hex="002A"/>
  <note>
hexagonal angle: 30 deg
</note>
  <guideline x="160" y="1286" angle="0.0"/>
  <guideline x="176" y="906" angle="0.0"/>
  <guideline x="861" y="1696" angle="90.0"/>
  <outline>
    <contour>
      <point x="678" y="896" type="line"/>
      <point x="973" y="896" type="line"/>
      <point x="944" y="1266" type="line"/>
      <point x="1252" y="1055" type="line"/>
      <point x="1399" y="1313" type="line"/>
      <point x="1065" y="1472" type="line"/>
      <point x="1399" y="1631" type="line"/>
      <point x="1252" y="1889" type="line"/>
      <point x="944" y="1678" type="line"/>
      <point x="973" y="2048" type="line"/>
      <point x="678" y="2048" type="line"/>
      <point x="707" y="1678" type="line"/>
      <point x="399" y="1889" type="line"/>
      <point x="252" y="1631" type="line"/>
      <point x="586" y="1472" type="line"/>
      <point x="252" y="1313" type="line"/>
      <point x="399" y="1055" type="line"/>
      <point x="707" y="1266" type="line"/>
    </contour>
  </outline>
</glyph>
<glyph name="plus" format="2">
  <advance width="1933"/>
  <unicode hex="002B"/>
  <guideline x="380" y="826" angle="0.0"/>
  <outline>
    <contour>
      <point x="765" y="102" type="line"/>
      <point x="1168" y="102" type="line"/>
      <point x="1168" y="1550" type="line"/>
      <point x="765" y="1550" type="line"/>
    </contour>
    <contour>
      <point x="242" y="624" type="line"/>
      <point x="1690" y="624" type="line"/>
      <point x="1690" y="1027" type="line"/>
      <point x="242" y="1027" type="line"/>
    </contour>
  </outline>
</glyph>
<glyph name="comma" format="2">
  <advance width="874"/>
  <unicode hex="002C"/>
  <outline>
    <contour>
      <point x="654" y="280" type="line"/>
      <point x="270" y="280" type="line"/>
      <point x="268" y="168" type="line" smooth="yes"/>
      <point x="262" y="-104"/>
      <point x="177" y="-386"/>
      <point x="146" y="-500" type="curve"/>
      <point x="454" y="-500" type="line"/>
      <point x="502" y="-384"/>
      <point x="621" y="-108"/>
      <point x="645" y="169" type="curve" smooth="yes"/>
    </contour>
  </outline>
</glyph>
<glyph name="hyphen" format="2">
  <advance width="1328"/>
  <unicode hex="002D"/>
  <guideline x="1104" y="828" angle="0.0"/>
  <outline>
    <contour>
      <point x="1138" y="1017" type="line"/>
      <point x="190" y="1017" type="line"/>
      <point x="190" y="640" type="line"/>
      <point x="1138" y="640" type="line"/>
    </contour>
  </outline>
</glyph>
<glyph name="period" format="2">
  <advance width="859"/>
  <unicode hex="002E"/>
  <outline>
    <contour>
      <point x="430" y="-29" type="curve" smooth="yes"/>
      <point x="567" y="-29"/>
      <point x="688" y="87"/>
      <point x="690" y="231" type="curve" smooth="yes"/>
      <point x="688" y="373"/>
      <point x="567" y="488"/>
      <point x="430" y="488" type="curve" smooth="yes"/>
      <point x="286" y="488"/>
      <point x="168" y="373"/>
      <point x="170" y="231" type="curve" smooth="yes"/>
      <point x="168" y="87"/>
      <point x="286" y="-29"/>
    </contour>
  </outline>
</glyph>
<glyph name="slash" format="2">
  <advance width="1129"/>
  <unicode hex="002F"/>
  <outline>
    <contour>
      <point x="1103" y="2144" type="line"/>
      <point x="686" y="2144" type="line"/>
      <point x="26" y="-308" type="line"/>
      <point x="443" y="-308" type="line"/>
    </contour>
  </outline>
</glyph>
<glyph name="zero" format="2">
  <advance width="1997"/>
  <unicode hex="0030"/>
  <guideline x="194" y="1150" angle="90.0"/>
  <outline>
    <contour>
      <point x="998" y="-50" type="curve" smooth="yes"/>
      <point x="1534" y="-51"/>
      <point x="1863" y="345"/>
      <point x="1864" y="1021" type="curve" smooth="yes"/>
      <point x="1865" y="1693"/>
      <point x="1534" y="2076"/>
      <point x="998" y="2076" type="curve" smooth="yes"/>
      <point x="462" y="2076"/>
      <point x="134" y="1694"/>
      <point x="133" y="1021" type="curve" smooth="yes"/>
      <point x="131" y="347"/>
      <point x="462" y="-50"/>
    </contour>
    <contour>
      <point x="998" y="355" type="curve" smooth="yes"/>
      <point x="785" y="355"/>
      <point x="640" y="569"/>
      <point x="642" y="1021" type="curve" smooth="yes"/>
      <point x="643" y="1464"/>
      <point x="786" y="1674"/>
      <point x="998" y="1674" type="curve" smooth="yes"/>
      <point x="1211" y="1674"/>
      <point x="1354" y="1464"/>
      <point x="1355" y="1021" type="curve" smooth="yes"/>
      <point x="1356" y="569"/>
      <point x="1212" y="355"/>
    </contour>
  </outline>
</glyph>
<glyph name="one" format="2">
  <advance width="1401"/>
  <unicode hex="0031"/>
  <outline>
    <contour>
      <point x="1098" y="2048" type="line"/>
      <point x="639" y="2048" type="line"/>
      <point x="134" y="1734" type="line"/>
      <point x="134" y="1306" type="line"/>
      <point x="592" y="1586" type="line"/>
      <point x="604" y="1586" type="line"/>
      <point x="604" y="0" type="line"/>
      <point x="1098" y="0" type="line"/>
    </contour>
  </outline>
</glyph>
<glyph name="two" format="2">
  <advance width="1797"/>
  <unicode hex="0032"/>
  <outline>
    <contour>
      <point x="151" y="0" type="line"/>
      <point x="1667" y="0" type="line"/>
      <point x="1667" y="399" type="line"/>
      <point x="837" y="399" type="line"/>
      <point x="837" y="412" type="line"/>
      <point x="1082" y="638" type="line" smooth="yes"/>
      <point x="1526" y="1025"/>
      <point x="1642" y="1222"/>
      <point x="1642" y="1457" type="curve" smooth="yes"/>
      <point x="1642" y="1826"/>
      <point x="1341" y="2076"/>
      <point x="876" y="2076" type="curve" smooth="yes"/>
      <point x="423" y="2076"/>
      <point x="120" y="1815"/>
      <point x="121" y="1398" type="curve"/>
      <point x="590" y="1398" type="line"/>
      <point x="590" y="1583"/>
      <point x="704" y="1690"/>
      <point x="874" y="1690" type="curve" smooth="yes"/>
      <point x="1041" y="1690"/>
      <point x="1162" y="1587"/>
      <point x="1162" y="1418" type="curve" smooth="yes"/>
      <point x="1162" y="1265"/>
      <point x="1066" y="1161"/>
      <point x="898" y="1010" type="curve" smooth="yes"/>
      <point x="151" y="356" type="line"/>
    </contour>
  </outline>
</glyph>
<glyph name="three" format="2">
  <advance width="1878"/>
  <unicode hex="0033"/>
  <outline>
    <contour>
      <point x="930" y="-28" type="curve" smooth="yes"/>
      <point x="1410" y="-28"/>
      <point x="1751" y="226"/>
      <point x="1750" y="582" type="curve" smooth="yes"/>
      <point x="1751" y="834"/>
      <point x="1586" y="1014"/>
      <point x="1270" y="1051" type="curve"/>
      <point x="1270" y="1067" type="line"/>
      <point x="1507" y="1101"/>
      <point x="1675" y="1260"/>
      <point x="1674" y="1490" type="curve" smooth="yes"/>
      <point x="1675" y="1824"/>
      <point x="1373" y="2076"/>
      <point x="934" y="2076" type="curve" smooth="yes"/>
      <point x="492" y="2076"/>
      <point x="170" y="1820"/>
      <point x="166" y="1456" type="curve"/>
      <point x="639" y="1456" type="line"/>
      <point x="643" y="1596"/>
      <point x="769" y="1690"/>
      <point x="934" y="1690" type="curve" smooth="yes"/>
      <point x="1091" y="1690"/>
      <point x="1198" y="1595"/>
      <point x="1197" y="1458" type="curve" smooth="yes"/>
      <point x="1198" y="1316"/>
      <point x="1072" y="1218"/>
      <point x="890" y="1218" type="curve" smooth="yes"/>
      <point x="691" y="1218" type="line"/>
      <point x="691" y="866" type="line"/>
      <point x="890" y="866" type="line" smooth="yes"/>
      <point x="1097" y="866"/>
      <point x="1232" y="764"/>
      <point x="1230" y="620" type="curve" smooth="yes"/>
      <point x="1232" y="475"/>
      <point x="1108" y="374"/>
      <point x="932" y="374" type="curve" smooth="yes"/>
      <point x="757" y="374"/>
      <point x="628" y="467"/>
      <point x="623" y="602" type="curve"/>
      <point x="125" y="602" type="line"/>
      <point x="129" y="232"/>
      <point x="462" y="-28"/>
    </contour>
  </outline>
</glyph>
<glyph name="four" format="2">
  <advance width="1942"/>
  <unicode hex="0034"/>
  <outline>
    <contour>
      <point x="126" y="340" type="line"/>
      <point x="1833" y="340" type="line"/>
      <point x="1833" y="730" type="line"/>
      <point x="618" y="730" type="line"/>
      <point x="618" y="746" type="line"/>
      <point x="1109" y="1524" type="line"/>
      <point x="1308" y="1524" type="line"/>
      <point x="1308" y="2048" type="line"/>
      <point x="965" y="2048" type="line"/>
      <point x="126" y="726" type="line"/>
    </contour>
    <contour>
      <point x="1115" y="0" type="line"/>
      <point x="1588" y="0" type="line"/>
      <point x="1588" y="2048" type="line"/>
      <point x="1125" y="2048" type="line"/>
      <point x="1125" y="627" type="line"/>
      <point x="1115" y="458" type="line"/>
    </contour>
  </outline>
</glyph>
<glyph name="five" format="2">
  <advance width="1850"/>
  <unicode hex="0035"/>
  <guideline x="246" y="2155" angle="0.0"/>
  <outline>
    <contour>
      <point x="935" y="-28" type="curve" smooth="yes"/>
      <point x="1412" y="-28"/>
      <point x="1730" y="272"/>
      <point x="1730" y="694" type="curve" smooth="yes"/>
      <point x="1730" y="1084"/>
      <point x="1458" y="1362"/>
      <point x="1090" y="1362" type="curve" smooth="yes"/>
      <point x="896" y="1362"/>
      <point x="735" y="1279"/>
      <point x="667" y="1166" type="curve"/>
      <point x="655" y="1166" type="line"/>
      <point x="702" y="1649" type="line"/>
      <point x="1609" y="1649" type="line"/>
      <point x="1609" y="2048" type="line"/>
      <point x="295" y="2048" type="line"/>
      <point x="206" y="944" type="line"/>
      <point x="643" y="862" type="line"/>
      <point x="698" y="954"/>
      <point x="812" y="1011"/>
      <point x="932" y="1010" type="curve" smooth="yes"/>
      <point x="1120" y="1010"/>
      <point x="1254" y="877"/>
      <point x="1253" y="680" type="curve" smooth="yes"/>
      <point x="1254" y="484"/>
      <point x="1122" y="352"/>
      <point x="935" y="352" type="curve" smooth="yes"/>
      <point x="776" y="352"/>
      <point x="645" y="451"/>
      <point x="638" y="602" type="curve"/>
      <point x="158" y="602" type="line"/>
      <point x="164" y="234"/>
      <point x="487" y="-28"/>
    </contour>
  </outline>
</glyph>
<glyph name="six" format="2">
  <advance width="1894"/>
  <unicode hex="0036"/>
  <outline>
    <contour>
      <point x="972" y="-28" type="curve" smooth="yes"/>
      <point x="1442" y="-29"/>
      <point x="1766" y="266"/>
      <point x="1765" y="695" type="curve" smooth="yes"/>
      <point x="1766" y="1074"/>
      <point x="1507" y="1350"/>
      <point x="1140" y="1350" type="curve" smooth="yes"/>
      <point x="911" y="1350"/>
      <point x="705" y="1239"/>
      <point x="620" y="1055" type="curve"/>
      <point x="607" y="1055" type="line"/>
      <point x="609" y="1427"/>
      <point x="731" y="1662"/>
      <point x="982" y="1662" type="curve" smooth="yes"/>
      <point x="1118" y="1662"/>
      <point x="1226" y="1593"/>
      <point x="1255" y="1456" type="curve"/>
      <point x="1742" y="1456" type="line"/>
      <point x="1704" y="1807"/>
      <point x="1412" y="2083"/>
      <point x="982" y="2083" type="curve" smooth="yes"/>
      <point x="460" y="2083"/>
      <point x="121" y="1672"/>
      <point x="119" y="989" type="curve" smooth="yes"/>
      <point x="121" y="242"/>
      <point x="522" y="-27"/>
    </contour>
    <contour>
      <point x="969" y="352" type="curve" smooth="yes"/>
      <point x="788" y="352"/>
      <point x="654" y="494"/>
      <point x="653" y="678" type="curve" smooth="yes"/>
      <point x="655" y="863"/>
      <point x="790" y="1005"/>
      <point x="970" y="1005" type="curve" smooth="yes"/>
      <point x="1153" y="1005"/>
      <point x="1286" y="865"/>
      <point x="1285" y="679" type="curve" smooth="yes"/>
      <point x="1286" y="492"/>
      <point x="1152" y="352"/>
    </contour>
  </outline>
</glyph>
<glyph name="seven" format="2">
  <advance width="1698"/>
  <unicode hex="0037"/>
  <outline>
    <contour>
      <point x="238" y="0" type="line"/>
      <point x="747" y="0" type="line"/>
      <point x="1576" y="1646" type="line"/>
      <point x="1576" y="2048" type="line"/>
      <point x="98" y="2048" type="line"/>
      <point x="98" y="1649" type="line"/>
      <point x="1064" y="1649" type="line"/>
      <point x="1064" y="1636" type="line"/>
    </contour>
  </outline>
</glyph>
<glyph name="eight" format="2">
  <advance width="1902"/>
  <unicode hex="0038"/>
  <note>
essentially two conjoined "three" glyphs
</note>
  <outline>
    <contour>
      <point x="951" y="-28" type="curve" smooth="yes"/>
      <point x="1430" y="-28"/>
      <point x="1778" y="221"/>
      <point x="1778" y="554" type="curve" smooth="yes"/>
      <point x="1778" y="808"/>
      <point x="1573" y="1014"/>
      <point x="1318" y="1054" type="curve"/>
      <point x="1318" y="1070" type="line"/>
      <point x="1540" y="1112"/>
      <point x="1702" y="1296"/>
      <point x="1702" y="1522" type="curve" smooth="yes"/>
      <point x="1702" y="1841"/>
      <point x="1384" y="2076"/>
      <point x="951" y="2076" type="curve" smooth="yes"/>
      <point x="518" y="2076"/>
      <point x="200" y="1842"/>
      <point x="200" y="1522" type="curve" smooth="yes"/>
      <point x="200" y="1296"/>
      <point x="358" y="1112"/>
      <point x="584" y="1070" type="curve"/>
      <point x="584" y="1054" type="line"/>
      <point x="325" y="1014"/>
      <point x="124" y="808"/>
      <point x="124" y="554" type="curve" smooth="yes"/>
      <point x="124" y="221"/>
      <point x="472" y="-28"/>
    </contour>
    <contour>
      <point x="951" y="323" type="curve" smooth="yes"/>
      <point x="769" y="323"/>
      <point x="643" y="437"/>
      <point x="643" y="594" type="curve" smooth="yes"/>
      <point x="643" y="754"/>
      <point x="773" y="869"/>
      <point x="951" y="869" type="curve" smooth="yes"/>
      <point x="1129" y="869"/>
      <point x="1259" y="753"/>
      <point x="1259" y="594" type="curve" smooth="yes"/>
      <point x="1259" y="436"/>
      <point x="1132" y="323"/>
    </contour>
    <contour>
      <point x="951" y="1218" type="curve" smooth="yes"/>
      <point x="795" y="1218"/>
      <point x="683" y="1323"/>
      <point x="683" y="1468" type="curve" smooth="yes"/>
      <point x="683" y="1612"/>
      <point x="794" y="1713"/>
      <point x="951" y="1713" type="curve" smooth="yes"/>
      <point x="1108" y="1713"/>
      <point x="1219" y="1611"/>
      <point x="1219" y="1468" type="curve" smooth="yes"/>
      <point x="1219" y="1322"/>
      <point x="1106" y="1218"/>
    </contour>
  </outline>
</glyph>
<glyph name="nine" format="2">
  <advance width="1894"/>
  <unicode hex="0039"/>
  <note>
six mirrored
</note>
  <outline>
    <contour>
      <point x="922" y="2083" type="curve" smooth="yes"/>
      <point x="450" y="2084"/>
      <point x="127" y="1788"/>
      <point x="129" y="1360" type="curve" smooth="yes"/>
      <point x="127" y="980"/>
      <point x="387" y="706"/>
      <point x="754" y="706" type="curve" smooth="yes"/>
      <point x="983" y="706"/>
      <point x="1189" y="816"/>
      <point x="1274" y="1000" type="curve"/>
      <point x="1286" y="1000" type="line"/>
      <point x="1285" y="627"/>
      <point x="1162" y="394"/>
      <point x="912" y="394" type="curve" smooth="yes"/>
      <point x="774" y="394"/>
      <point x="668" y="462"/>
      <point x="638" y="599" type="curve"/>
      <point x="151" y="599" type="line"/>
      <point x="188" y="246"/>
      <point x="480" y="-28"/>
      <point x="912" y="-28" type="curve" smooth="yes"/>
      <point x="1434" y="-28"/>
      <point x="1773" y="383"/>
      <point x="1774" y="1066" type="curve" smooth="yes"/>
      <point x="1773" y="1813"/>
      <point x="1371" y="2082"/>
    </contour>
    <contour>
      <point x="925" y="1703" type="curve" smooth="yes"/>
      <point x="1106" y="1703"/>
      <point x="1239" y="1560"/>
      <point x="1241" y="1377" type="curve" smooth="yes"/>
      <point x="1239" y="1194"/>
      <point x="1103" y="1050"/>
      <point x="923" y="1050" type="curve" smooth="yes"/>
      <point x="740" y="1050"/>
      <point x="607" y="1190"/>
      <point x="609" y="1376" type="curve" smooth="yes"/>
      <point x="607" y="1562"/>
      <point x="742" y="1703"/>
    </contour>
  </outline>
</glyph>
<glyph name="equal" format="2">
  <advance width="1933"/>
  <unicode hex="003D"/>
  <guideline x="380" y="826" angle="0.0"/>
  <outline>
    <contour>
      <point x="251" y="969" type="line"/>
      <point x="1682" y="969" type="line"/>
      <point x="1682" y="1370" type="line"/>
      <point x="251" y="1370" type="line"/>
    </contour>
    <contour>
      <point x="251" y="281" type="line"/>
      <point x="1682" y="281" type="line"/>
      <point x="1682" y="682" type="line"/>
      <point x="251" y="682" type="line"/>
    </contour>
  </outline>
</glyph>
<glyph name="greater" format="2">
  <advance width="1933"/>
  <unicode hex="003E"/>
  <guideline x="380" y="826" angle="0.0"/>
  <outline>
    <contour>
      <point x="1690" y="618" type="line"/>
      <point x="1690" y="1034" type="line"/>
      <point x="242" y="1642" type="line"/>
      <point x="242" y="1187" type="line"/>
      <point x="1198" y="830" type="line"/>
      <point x="1184" y="852" type="line"/>
      <point x="1184" y="799" type="line"/>
      <point x="1198" y="822" type="line"/>
      <point x="242" y="464" type="line"/>
      <point x="242" y="10" type="line"/>
    </contour>
  </outline>
</glyph>
<glyph name="question" format="2">
  <advance width="1636"/>
  <unicode hex="003F"/>
  <outline>
    <contour>
      <point x="540" y="627" type="line"/>
      <point x="966" y="627" type="line"/>
      <point x="966" y="668" type="line" smooth="yes"/>
      <point x="966" y="845"/>
      <point x="1039" y="930"/>
      <point x="1190" y="1020" type="curve" smooth="yes"/>
      <point x="1382" y="1133"/>
      <point x="1509" y="1278"/>
      <point x="1509" y="1517" type="curve" smooth="yes"/>
      <point x="1509" y="1880"/>
      <point x="1210" y="2076"/>
      <point x="798" y="2076" type="curve" smooth="yes"/>
      <point x="422" y="2076"/>
      <point x="112" y="1889"/>
      <point x="106" y="1469" type="curve"/>
      <point x="566" y="1469" type="line"/>
      <point x="569" y="1608"/>
      <point x="675" y="1692"/>
      <point x="794" y="1692" type="curve" smooth="yes"/>
      <point x="912" y="1692"/>
      <point x="1006" y="1613"/>
      <point x="1006" y="1494" type="curve" smooth="yes"/>
      <point x="1006" y="1372"/>
      <point x="911" y="1294"/>
      <point x="786" y="1214" type="curve" smooth="yes"/>
      <point x="627" y="1112"/>
      <point x="541" y="1007"/>
      <point x="540" y="668" type="curve" smooth="yes"/>
    </contour>
    <component base="period" xOffset="331"/>
  </outline>
</glyph>
<glyph name="at" format="2">
  <advance width="2991"/>
  <unicode hex="0040"/>
  <outline>
    <contour>
      <point x="1550" y="-607" type="curve" smooth="yes"/>
      <point x="1861" y="-607"/>
      <point x="2146" y="-538"/>
      <point x="2272" y="-460" type="curve"/>
      <point x="2158" y="-135" type="line"/>
      <point x="2040" y="-185"/>
      <point x="1811" y="-236"/>
      <point x="1577" y="-236" type="curve" smooth="yes"/>
      <point x="936" y="-236"/>
      <point x="585" y="97"/>
      <point x="583" y="713" type="curve" smooth="yes"/>
      <point x="585" y="1253"/>
      <point x="896" y="1694"/>
      <point x="1574" y="1694" type="curve" smooth="yes"/>
      <point x="2003" y="1694"/>
      <point x="2498" y="1538"/>
      <point x="2497" y="850" type="curve" smooth="yes"/>
      <point x="2498" y="480"/>
      <point x="2418" y="311"/>
      <point x="2302" y="311" type="curve" smooth="yes"/>
      <point x="2251" y="311"/>
      <point x="2216" y="347"/>
      <point x="2214" y="434" type="curve" smooth="yes"/>
      <point x="2214" y="1434" type="line"/>
      <point x="1868" y="1434" type="line"/>
      <point x="1868" y="1322" type="line"/>
      <point x="1853" y="1322" type="line"/>
      <point x="1817" y="1410"/>
      <point x="1587" y="1495"/>
      <point x="1354" y="1456" type="curve" smooth="yes"/>
      <point x="1097" y="1414"/>
      <point x="789" y="1205"/>
      <point x="787" y="707" type="curve" smooth="yes"/>
      <point x="789" y="206"/>
      <point x="1087" y="-19"/>
      <point x="1392" y="-38" type="curve" smooth="yes"/>
      <point x="1618" y="-52"/>
      <point x="1850" y="38"/>
      <point x="1897" y="160" type="curve"/>
      <point x="1909" y="160" type="line"/>
      <point x="1931" y="33"/>
      <point x="1981" y="-72"/>
      <point x="2244" y="-50" type="curve" smooth="yes"/>
      <point x="2679" y="-18"/>
      <point x="2886" y="294"/>
      <point x="2884" y="820" type="curve" smooth="yes"/>
      <point x="2886" y="1586"/>
      <point x="2386" y="2062"/>
      <point x="1576" y="2062" type="curve" smooth="yes"/>
      <point x="687" y="2062"/>
      <point x="182" y="1507"/>
      <point x="181" y="695" type="curve" smooth="yes"/>
      <point x="182" y="-126"/>
      <point x="687" y="-607"/>
    </contour>
    <contour>
      <point x="1526" y="333" type="curve" smooth="yes"/>
      <point x="1265" y="333"/>
      <point x="1179" y="521"/>
      <point x="1178" y="719" type="curve" smooth="yes"/>
      <point x="1179" y="945"/>
      <point x="1302" y="1078"/>
      <point x="1522" y="1078" type="curve" smooth="yes"/>
      <point x="1779" y="1078"/>
      <point x="1837" y="930"/>
      <point x="1838" y="722" type="curve" smooth="yes"/>
      <point x="1843" y="470"/>
      <point x="1764" y="333"/>
    </contour>
  </outline>
</glyph>
<glyph name="A" format="2">
  <advance width="2173"/>
  <unicode hex="0041"/>
  <outline>
    <contour>
      <point x="598" y="0" type="line"/>
      <point x="1078" y="1532" type="line"/>
      <point x="1094" y="1532" type="line"/>
      <point x="1575" y="0" type="line"/>
      <point x="2107" y="0" type="line"/>
      <point x="1416" y="2048" type="line"/>
      <point x="757" y="2048" type="line"/>
      <point x="66" y="0" type="line"/>
    </contour>
    <contour>
      <point x="527" y="806" type="line"/>
      <point x="527" y="430" type="line"/>
      <point x="1639" y="430" type="line"/>
      <point x="1639" y="806" type="line"/>
    </contour>
  </outline>
</glyph>
<glyph name="B" format="2">
  <advance width="1870"/>
  <unicode hex="0042"/>
  <guideline x="793" y="927" angle="0.0"/>
  <outline>
    <contour>
      <point x="155" y="0" type="line"/>
      <point x="1074" y="0" type="line" smooth="yes"/>
      <point x="1527" y="0"/>
      <point x="1787" y="242"/>
      <point x="1787" y="573" type="curve" smooth="yes"/>
      <point x="1787" y="869"/>
      <point x="1572" y="1055"/>
      <point x="1324" y="1066" type="curve"/>
      <point x="1324" y="1086" type="line"/>
      <point x="1549" y="1133"/>
      <point x="1707" y="1296"/>
      <point x="1707" y="1530" type="curve" smooth="yes"/>
      <point x="1707" y="1839"/>
      <point x="1469" y="2048"/>
      <point x="1009" y="2048" type="curve" smooth="yes"/>
      <point x="155" y="2048" type="line"/>
    </contour>
    <contour>
      <point x="650" y="399" type="line"/>
      <point x="650" y="887" type="line"/>
      <point x="965" y="887" type="line" smooth="yes"/>
      <point x="1154" y="887"/>
      <point x="1270" y="787"/>
      <point x="1270" y="630" type="curve" smooth="yes"/>
      <point x="1270" y="485"/>
      <point x="1170" y="399"/>
      <point x="956" y="399" type="curve" smooth="yes"/>
    </contour>
    <contour>
      <point x="650" y="1206" type="line"/>
      <point x="650" y="1655" type="line"/>
      <point x="932" y="1655" type="line" smooth="yes"/>
      <point x="1097" y="1655"/>
      <point x="1202" y="1570"/>
      <point x="1202" y="1434" type="curve" smooth="yes"/>
      <point x="1202" y="1290"/>
      <point x="1086" y="1206"/>
      <point x="924" y="1206" type="curve" smooth="yes"/>
    </contour>
  </outline>
</glyph>
<glyph name="C" format="2">
  <advance width="2141"/>
  <unicode hex="0043"/>
  <outline>
    <contour>
      <point x="2014" y="1306" type="line"/>
      <point x="1964" y="1796"/>
      <point x="1599" y="2076"/>
      <point x="1104" y="2076" type="curve" smooth="yes"/>
      <point x="558" y="2076"/>
      <point x="133" y="1701"/>
      <point x="133" y="1024" type="curve" smooth="yes"/>
      <point x="133" y="350"/>
      <point x="548" y="-28"/>
      <point x="1104" y="-28" type="curve" smooth="yes"/>
      <point x="1666" y="-28"/>
      <point x="1977" y="354"/>
      <point x="2014" y="717" type="curve"/>
      <point x="1514" y="720" type="line"/>
      <point x="1479" y="523"/>
      <point x="1331" y="406"/>
      <point x="1114" y="406" type="curve" smooth="yes"/>
      <point x="822" y="406"/>
      <point x="638" y="617"/>
      <point x="638" y="1024" type="curve" smooth="yes"/>
      <point x="638" y="1415"/>
      <point x="818" y="1642"/>
      <point x="1117" y="1642" type="curve" smooth="yes"/>
      <point x="1342" y="1642"/>
      <point x="1489" y="1511"/>
      <point x="1514" y="1306" type="curve"/>
    </contour>
  </outline>
</glyph>
<glyph name="D" format="2">
  <advance width="2056"/>
  <unicode hex="0044"/>
  <note>
!post:RemoveOverlap
</note>
  <outline>
    <contour>
      <point x="912" y="0" type="line" smooth="yes"/>
      <point x="1536" y="0"/>
      <point x="1923" y="385"/>
      <point x="1923" y="1025" type="curve" smooth="yes"/>
      <point x="1923" y="1664"/>
      <point x="1536" y="2048"/>
      <point x="911" y="2048" type="curve" smooth="yes"/>
      <point x="357" y="2048" type="line"/>
      <point x="357" y="1626" type="line"/>
      <point x="886" y="1626" type="line" smooth="yes"/>
      <point x="1238" y="1626"/>
      <point x="1427" y="1466"/>
      <point x="1427" y="1025" type="curve" smooth="yes"/>
      <point x="1427" y="582"/>
      <point x="1238" y="422"/>
      <point x="893" y="422" type="curve" smooth="yes"/>
      <point x="366" y="422" type="line"/>
      <point x="366" y="0" type="line"/>
    </contour>
    <contour>
      <point x="650" y="2048" type="line"/>
      <point x="155" y="2048" type="line"/>
      <point x="155" y="0" type="line"/>
      <point x="650" y="0" type="line"/>
    </contour>
  </outline>
</glyph>
<glyph name="G" format="2">
  <advance width="2159"/>
  <unicode hex="0047"/>
  <guideline x="1205" y="1338" angle="7.9575"/>
  <outline>
    <contour>
      <point x="1499" y="1379" type="curve"/>
      <point x="2000" y="1379" type="line"/>
      <point x="1950" y="1787"/>
      <point x="1586" y="2076"/>
      <point x="1112" y="2076" type="curve" smooth="yes"/>
      <point x="565" y="2076"/>
      <point x="133" y="1691"/>
      <point x="133" y="1021" type="curve" smooth="yes"/>
      <point x="133" y="373"/>
      <point x="531" y="-28"/>
      <point x="1118" y="-28" type="curve" smooth="yes"/>
      <point x="1645" y="-28"/>
      <point x="2022" y="299"/>
      <point x="2022" y="849" type="curve" smooth="yes"/>
      <point x="2022" y="1120" type="line"/>
      <point x="1139" y="1120" type="line"/>
      <point x="1139" y="759" type="line"/>
      <point x="1637" y="759" type="line"/>
      <point x="1545" y="770" type="line"/>
      <point x="1545" y="548"/>
      <point x="1395" y="406"/>
      <point x="1122" y="406" type="curve" smooth="yes"/>
      <point x="815" y="406"/>
      <point x="638" y="633"/>
      <point x="638" y="1027" type="curve" smooth="yes"/>
      <point x="638" y="1418"/>
      <point x="825" y="1642"/>
      <point x="1122" y="1642" type="curve" smooth="yes"/>
      <point x="1320" y="1642"/>
      <point x="1455" y="1545"/>
    </contour>
  </outline>
</glyph>
<glyph name="H" format="2">
  <advance width="2106"/>
  <unicode hex="0048"/>
  <outline>
    <contour>
      <point x="155" y="0" type="line"/>
      <point x="650" y="0" type="line"/>
      <point x="650" y="823" type="line"/>
      <point x="1457" y="823" type="line"/>
      <point x="1457" y="0" type="line"/>
      <point x="1951" y="0" type="line"/>
      <point x="1951" y="2048" type="line"/>
      <point x="1457" y="2048" type="line"/>
      <point x="1457" y="1226" type="line"/>
      <point x="650" y="1226" type="line"/>
      <point x="650" y="2048" type="line"/>
      <point x="155" y="2048" type="line"/>
    </contour>
  </outline>
</glyph>
<glyph name="J" format="2">
  <advance width="1630"/>
  <unicode hex="004A"/>
  <guideline x="1230" y="1476" angle="90.0"/>
  <outline>
    <contour>
      <point x="987" y="2048" type="line"/>
      <point x="987" y="632" type="line" smooth="yes"/>
      <point x="986" y="455"/>
      <point x="908" y="362"/>
      <point x="766" y="362" type="curve" smooth="yes"/>
      <point x="630" y="362"/>
      <point x="547" y="449"/>
      <point x="542" y="608" type="curve"/>
      <point x="49" y="608" type="line"/>
      <point x="47" y="167"/>
      <point x="355" y="-28"/>
      <point x="738" y="-28" type="curve" smooth="yes"/>
      <point x="1172" y="-28"/>
      <point x="1474" y="233"/>
      <point x="1475" y="632" type="curve" smooth="yes"/>
      <point x="1475" y="2048" type="line"/>
    </contour>
  </outline>
</glyph>
<glyph name="K" format="2">
  <advance width="1977"/>
  <unicode hex="004B"/>
  <guideline x="1188" y="1866" angle="90.0"/>
  <outline>
    <contour>
      <point x="155" y="0" type="line"/>
      <point x="650" y="0" type="line"/>
      <point x="650" y="555" type="line"/>
      <point x="848" y="805" type="line"/>
      <point x="1358" y="0" type="line"/>
      <point x="1950" y="0" type="line"/>
      <point x="1211" y="1134" type="line"/>
      <point x="1937" y="2048" type="line"/>
      <point x="1354" y="2048" type="line"/>
      <point x="677" y="1182" type="line"/>
      <point x="650" y="1182" type="line"/>
      <point x="650" y="2048" type="line"/>
      <point x="155" y="2048" type="line"/>
    </contour>
  </outline>
</glyph>
<glyph name="L" format="2">
  <advance width="1603"/>
  <unicode hex="004C"/>
  <guideline x="84" y="1432" angle="0.0"/>
  <guideline x="829" y="447" angle="90.0"/>
  <outline>
    <contour>
      <point x="155" y="0" type="line"/>
      <point x="1502" y="0" type="line"/>
      <point x="1502" y="402" type="line"/>
      <point x="650" y="402" type="line"/>
      <point x="650" y="2048" type="line"/>
      <point x="155" y="2048" type="line"/>
    </contour>
  </outline>
</glyph>
<glyph name="M" format="2">
  <advance width="2600"/>
  <unicode hex="004D"/>
  <outline>
    <contour>
      <point x="155" y="2048" type="line"/>
      <point x="155" y="0" type="line"/>
      <point x="637" y="0" type="line"/>
      <point x="637" y="1265" type="line"/>
      <point x="654" y="1265" type="line"/>
      <point x="1146" y="13" type="line"/>
      <point x="1454" y="13" type="line"/>
      <point x="1946" y="1258" type="line"/>
      <point x="1963" y="1258" type="line"/>
      <point x="1963" y="0" type="line"/>
      <point x="2445" y="0" type="line"/>
      <point x="2445" y="2048" type="line"/>
      <point x="1832" y="2048" type="line"/>
      <point x="1312" y="780" type="line"/>
      <point x="1288" y="780" type="line"/>
      <point x="768" y="2048" type="line"/>
    </contour>
  </outline>
</glyph>
<glyph name="O" format="2">
  <advance width="2221"/>
  <unicode hex="004F"/>
  <outline>
    <contour>
      <point x="2088" y="1024" type="curve" smooth="yes"/>
      <point x="2088" y="1701"/>
      <point x="1660" y="2076"/>
      <point x="1110" y="2076" type="curve" smooth="yes"/>
      <point x="558" y="2076"/>
      <point x="133" y="1701"/>
      <point x="133" y="1024" type="curve" smooth="yes"/>
      <point x="133" y="350"/>
      <point x="558" y="-28"/>
      <point x="1110" y="-28" type="curve" smooth="yes"/>
      <point x="1660" y="-28"/>
      <point x="2088" y="347"/>
    </contour>
    <contour>
      <point x="1582" y="1024" type="curve" smooth="yes"/>
      <point x="1582" y="623"/>
      <point x="1406" y="406"/>
      <point x="1110" y="406" type="curve" smooth="yes"/>
      <point x="815" y="406"/>
      <point x="638" y="623"/>
      <point x="638" y="1024" type="curve" smooth="yes"/>
      <point x="638" y="1425"/>
      <point x="815" y="1642"/>
      <point x="1110" y="1642" type="curve" smooth="yes"/>
      <point x="1406" y="1642"/>
      <point x="1582" y="1425"/>
    </contour>
  </outline>
</glyph>
<glyph name="P" format="2">
  <advance width="1836"/>
  <unicode hex="0050"/>
  <outline>
    <contour>
      <point x="155" y="0" type="line"/>
      <point x="650" y="0" type="line"/>
      <point x="650" y="1649" type="line"/>
      <point x="894" y="1649" type="line" smooth="yes"/>
      <point x="1116" y="1649"/>
      <point x="1235" y="1529"/>
      <point x="1235" y="1339" type="curve" smooth="yes"/>
      <point x="1235" y="1150"/>
      <point x="1116" y="1026"/>
      <point x="894" y="1026" type="curve" smooth="yes"/>
      <point x="464" y="1026" type="line"/>
      <point x="464" y="636" type="line"/>
      <point x="986" y="636" type="line" smooth="yes"/>
      <point x="1455" y="636"/>
      <point x="1748" y="914"/>
      <point x="1748" y="1339" type="curve" smooth="yes"/>
      <point x="1748" y="1760"/>
      <point x="1461" y="2048"/>
      <point x="1001" y="2048" type="curve" smooth="yes"/>
      <point x="155" y="2048" type="line"/>
    </contour>
  </outline>
</glyph>
<glyph name="Q" format="2">
  <advance width="2224"/>
  <unicode hex="0051"/>
  <outline>
    <contour>
      <point x="938" y="736" type="line"/>
      <point x="1244" y="331" type="line"/>
      <point x="1386" y="127" type="line"/>
      <point x="1626" y="-160" type="line"/>
      <point x="2074" y="-160" type="line"/>
      <point x="1731" y="263" type="line"/>
      <point x="1508" y="519" type="line"/>
      <point x="1338" y="736" type="line"/>
    </contour>
    <component base="O"/>
  </outline>
</glyph>
<glyph name="R" format="2">
  <advance width="1864"/>
  <unicode hex="0052"/>
  <outline>
    <contour>
      <point x="155" y="0" type="line"/>
      <point x="650" y="0" type="line"/>
      <point x="650" y="1649" type="line"/>
      <point x="894" y="1649" type="line" smooth="yes"/>
      <point x="1116" y="1649"/>
      <point x="1235" y="1556"/>
      <point x="1235" y="1366" type="curve" smooth="yes"/>
      <point x="1235" y="1176"/>
      <point x="1116" y="1091"/>
      <point x="894" y="1091" type="curve" smooth="yes"/>
      <point x="451" y="1091" type="line"/>
      <point x="451" y="701" type="line"/>
      <point x="986" y="701" type="line" smooth="yes"/>
      <point x="1454" y="701"/>
      <point x="1748" y="940"/>
      <point x="1748" y="1366" type="curve" smooth="yes"/>
      <point x="1748" y="1787"/>
      <point x="1461" y="2048"/>
      <point x="1001" y="2048" type="curve" smooth="yes"/>
      <point x="155" y="2048" type="line"/>
    </contour>
    <contour>
      <point x="1308" y="936" type="line"/>
      <point x="778" y="936" type="line"/>
      <point x="1278" y="0" type="line"/>
      <point x="1818" y="0" type="line"/>
    </contour>
  </outline>
</glyph>
<glyph name="S" format="2">
  <advance width="1860"/>
  <unicode hex="0053"/>
  <note>
recipe: use stroke + offset curve filter with 32, no autostroke
</note>
  <outline>
    <contour>
      <point x="1262" y="1434" type="curve"/>
      <point x="1736" y="1434" type="line"/>
      <point x="1732" y="1817"/>
      <point x="1427" y="2076"/>
      <point x="951" y="2076" type="curve" smooth="yes"/>
      <point x="483" y="2076"/>
      <point x="146" y="1821"/>
      <point x="149" y="1440" type="curve" smooth="yes"/>
      <point x="148" y="1129"/>
      <point x="366" y="954"/>
      <point x="720" y="873" type="curve" smooth="yes"/>
      <point x="934" y="823" type="line" smooth="yes"/>
      <point x="1159" y="771"/>
      <point x="1260" y="710"/>
      <point x="1262" y="595" type="curve" smooth="yes"/>
      <point x="1260" y="470"/>
      <point x="1143" y="383"/>
      <point x="944" y="383" type="curve" smooth="yes"/>
      <point x="725" y="383"/>
      <point x="581" y="485"/>
      <point x="570" y="682" type="curve"/>
      <point x="96" y="682" type="line"/>
      <point x="102" y="203"/>
      <point x="435" y="-26"/>
      <point x="950" y="-26" type="curve" smooth="yes"/>
      <point x="1460" y="-26"/>
      <point x="1762" y="205"/>
      <point x="1764" y="594" type="curve" smooth="yes"/>
      <point x="1762" y="921"/>
      <point x="1541" y="1121"/>
      <point x="1137" y="1210" type="curve" smooth="yes"/>
      <point x="961" y="1250" type="line" smooth="yes"/>
      <point x="775" y="1290"/>
      <point x="657" y="1352"/>
      <point x="661" y="1474" type="curve" smooth="yes"/>
      <point x="662" y="1586"/>
      <point x="758" y="1667"/>
      <point x="950" y="1667" type="curve" smooth="yes"/>
      <point x="1143" y="1667"/>
      <point x="1249" y="1580"/>
    </contour>
  </outline>
</glyph>
<glyph name="T" format="2">
  <advance width="1907"/>
  <unicode hex="0054"/>
  <outline>
    <contour>
      <point x="88" y="1646" type="line"/>
      <point x="710" y="1646" type="line"/>
      <point x="710" y="0" type="line"/>
      <point x="1198" y="0" type="line"/>
      <point x="1198" y="1646" type="line"/>
      <point x="1819" y="1646" type="line"/>
      <point x="1819" y="2048" type="line"/>
      <point x="88" y="2048" type="line"/>
    </contour>
  </outline>
</glyph>
<glyph name="U" format="2">
  <advance width="2043"/>
  <unicode hex="0055"/>
  <outline>
    <contour>
      <point x="1397" y="2048" type="line"/>
      <point x="1397" y="714" type="line" smooth="yes"/>
      <point x="1397" y="529"/>
      <point x="1246" y="410"/>
      <point x="1022" y="410" type="curve" smooth="yes"/>
      <point x="800" y="410"/>
      <point x="650" y="529"/>
      <point x="650" y="714" type="curve" smooth="yes"/>
      <point x="650" y="2048" type="line"/>
      <point x="155" y="2048" type="line"/>
      <point x="155" y="695" type="line" smooth="yes"/>
      <point x="155" y="229"/>
      <point x="503" y="-26"/>
      <point x="1022" y="-26" type="curve" smooth="yes"/>
      <point x="1537" y="-26"/>
      <point x="1888" y="229"/>
      <point x="1888" y="695" type="curve" smooth="yes"/>
      <point x="1888" y="2048" type="line"/>
    </contour>
  </outline>
</glyph>
<glyph name="V" format="2">
  <advance width="2173"/>
  <unicode hex="0056"/>
  <outline>
    <contour>
      <point x="620" y="2048" type="line"/>
      <point x="66" y="2048" type="line"/>
      <point x="757" y="0" type="line"/>
      <point x="1416" y="0" type="line"/>
      <point x="2107" y="2048" type="line"/>
      <point x="1553" y="2048" type="line"/>
      <point x="1095" y="548" type="line"/>
      <point x="1078" y="548" type="line"/>
    </contour>
  </outline>
</glyph>
<glyph name="W" format="2">
  <advance width="2998"/>
  <unicode hex="0057"/>
  <outline>
    <contour>
      <point x="646" y="0" type="line"/>
      <point x="1122" y="0" type="line"/>
      <point x="1491" y="1242" type="line"/>
      <point x="1507" y="1242" type="line"/>
      <point x="1876" y="0" type="line"/>
      <point x="2353" y="0" type="line"/>
      <point x="2948" y="2048" type="line"/>
      <point x="2402" y="2048" type="line"/>
      <point x="2092" y="703" type="line"/>
      <point x="2075" y="703" type="line"/>
      <point x="1722" y="2048" type="line"/>
      <point x="1276" y="2048" type="line"/>
      <point x="923" y="706" type="line"/>
      <point x="906" y="706" type="line"/>
      <point x="597" y="2048" type="line"/>
      <point x="50" y="2048" type="line"/>
    </contour>
  </outline>
</glyph>
<glyph name="X" format="2">
  <advance width="2080"/>
  <unicode hex="0058"/>
  <note>
recipe: offset curve 32, no auto
</note>
  <outline>
    <contour>
      <point x="656" y="2048" type="line"/>
      <point x="98" y="2048" type="line"/>
      <point x="717" y="1024" type="line"/>
      <point x="82" y="0" type="line"/>
      <point x="646" y="0" type="line"/>
      <point x="1030" y="654" type="line"/>
      <point x="1046" y="654" type="line"/>
      <point x="1430" y="0" type="line"/>
      <point x="1998" y="0" type="line"/>
      <point x="1360" y="1024" type="line"/>
      <point x="1978" y="2048" type="line"/>
      <point x="1424" y="2048" type="line"/>
      <point x="1046" y="1401" type="line"/>
      <point x="1030" y="1401" type="line"/>
    </contour>
  </outline>
</glyph>
<glyph name="Y" format="2">
  <advance width="2096"/>
  <unicode hex="0059"/>
  <outline>
    <contour>
      <point x="53" y="2048" type="line"/>
      <point x="802" y="684" type="line"/>
      <point x="802" y="0" type="line"/>
      <point x="1294" y="0" type="line"/>
      <point x="1294" y="684" type="line"/>
      <point x="2043" y="2048" type="line"/>
      <point x="1490" y="2048" type="line"/>
      <point x="1057" y="1191" type="line"/>
      <point x="1039" y="1191" type="line"/>
      <point x="606" y="2048" type="line"/>
    </contour>
  </outline>
</glyph>
<glyph name="Z" format="2">
  <advance width="1917"/>
  <unicode hex="005A"/>
  <guideline x="328" y="1291" angle="0.0"/>
  <guideline x="1387" y="1686" angle="55.0453"/>
  <outline>
    <contour>
      <point x="148" y="0" type="line"/>
      <point x="1768" y="0" type="line"/>
      <point x="1768" y="402" type="line"/>
      <point x="774" y="402" type="line"/>
      <point x="1769" y="1766" type="line"/>
      <point x="1769" y="2048" type="line"/>
      <point x="149" y="2048" type="line"/>
      <point x="149" y="1646" type="line"/>
      <point x="1143" y="1646" type="line"/>
      <point x="148" y="282" type="line"/>
    </contour>
  </outline>
</glyph>
<glyph name="bracketleft" format="2">
  <advance width="1196"/>
  <unicode hex="005B"/>
  <outline>
    <contour>
      <point x="287" y="-454" type="line"/>
      <point x="1142" y="-454" type="line"/>
      <point x="1142" y="-95" type="line"/>
      <point x="761" y="-95" type="line"/>
      <point x="761" y="1708" type="line"/>
      <point x="1142" y="1708" type="line"/>
      <point x="1142" y="2067" type="line"/>
      <point x="287" y="2067" type="line"/>
    </contour>
  </outline>
</glyph>
<glyph name="backslash" format="2">
  <advance width="1264"/>
  <unicode hex="005C"/>
  <outline>
    <contour>
      <point x="110" y="2048" type="line"/>
      <point x="729" y="-308" type="line"/>
      <point x="1150" y="-308" type="line"/>
      <point x="531" y="2048" type="line"/>
    </contour>
  </outline>
</glyph>
<glyph name="asciicircum" format="2">
  <advance width="1390"/>
  <unicode hex="005E"/>
  <outline>
    <contour>
      <point x="659" y="1811" type="line"/>
      <point x="659" y="1698" type="line"/>
      <point x="731" y="1698" type="line"/>
      <point x="731" y="1811" type="line"/>
    </contour>
    <contour>
      <point x="86" y="1120" type="line"/>
      <point x="438" y="1120" type="line"/>
      <point x="704" y="1738" type="line"/>
      <point x="686" y="1738" type="line"/>
      <point x="953" y="1120" type="line"/>
      <point x="1304" y="1120" type="line"/>
      <point x="879" y="2010" type="line"/>
      <point x="511" y="2010" type="line"/>
    </contour>
  </outline>
</glyph>
<glyph name="grave" format="2">
  <advance width="1400"/>
  <unicode hex="0060"/>
  <note>
mirrored version of acute
</note>
  <outline>
    <contour>
      <point x="685" y="1731" type="line"/>
      <point x="1018" y="1731" type="line"/>
      <point x="815" y="2182" type="line"/>
      <point x="382" y="2182" type="line"/>
    </contour>
  </outline>
</glyph>
<glyph name="a" format="2">
  <advance width="1649"/>
  <unicode hex="0061"/>
  <guideline x="142" y="2056" angle="0.0"/>
  <outline>
    <contour>
      <point x="588" y="-26" type="curve" smooth="yes"/>
      <point x="802" y="-26"/>
      <point x="950" y="57"/>
      <point x="1034" y="214" type="curve"/>
      <point x="1046" y="214" type="line"/>
      <point x="1046" y="0" type="line"/>
      <point x="1506" y="0" type="line"/>
      <point x="1506" y="1044" type="line" smooth="yes"/>
      <point x="1506" y="1369"/>
      <point x="1217" y="1556"/>
      <point x="826" y="1556" type="curve" smooth="yes"/>
      <point x="413" y="1556"/>
      <point x="179" y="1348"/>
      <point x="140" y="1068" type="curve"/>
      <point x="591" y="1052" type="line"/>
      <point x="612" y="1150"/>
      <point x="693" y="1210"/>
      <point x="822" y="1210" type="curve" smooth="yes"/>
      <point x="942" y="1210"/>
      <point x="1018" y="1152"/>
      <point x="1018" y="1049" type="curve" smooth="yes"/>
      <point x="1018" y="1044" type="line" smooth="yes"/>
      <point x="1018" y="950"/>
      <point x="916" y="930"/>
      <point x="654" y="907" type="curve" smooth="yes"/>
      <point x="343" y="881"/>
      <point x="83" y="766"/>
      <point x="83" y="426" type="curve" smooth="yes"/>
      <point x="83" y="122"/>
      <point x="294" y="-26"/>
    </contour>
    <contour>
      <point x="739" y="294" type="curve" smooth="yes"/>
      <point x="626" y="294"/>
      <point x="546" y="348"/>
      <point x="546" y="450" type="curve" smooth="yes"/>
      <point x="546" y="549"/>
      <point x="624" y="609"/>
      <point x="763" y="630" type="curve" smooth="yes"/>
      <point x="854" y="643"/>
      <point x="966" y="663"/>
      <point x="1021" y="692" type="curve"/>
      <point x="1021" y="546" type="line" smooth="yes"/>
      <point x="1021" y="396"/>
      <point x="895" y="294"/>
    </contour>
  </outline>
</glyph>
<glyph name="b" format="2">
  <advance width="1802"/>
  <unicode hex="0062"/>
  <note>
top anchor should match top anchor of i
</note>
  <guideline x="942" y="136" angle="0.0"/>
  <outline>
    <contour>
      <point x="155" y="0" type="line"/>
      <point x="639" y="0" type="line"/>
      <point x="639" y="249" type="line"/>
      <point x="654" y="249" type="line"/>
      <point x="716" y="107"/>
      <point x="854" y="-22"/>
      <point x="1086" y="-22" type="curve" smooth="yes"/>
      <point x="1426" y="-22"/>
      <point x="1700" y="244"/>
      <point x="1700" y="767" type="curve" smooth="yes"/>
      <point x="1700" y="1309"/>
      <point x="1410" y="1556"/>
      <point x="1089" y="1556" type="curve" smooth="yes"/>
      <point x="846" y="1556"/>
      <point x="713" y="1414"/>
      <point x="654" y="1273" type="curve"/>
      <point x="644" y="1273" type="line"/>
      <point x="644" y="2048" type="line"/>
      <point x="155" y="2048" type="line"/>
    </contour>
    <contour>
      <point x="634" y="768" type="curve" smooth="yes"/>
      <point x="634" y="1019"/>
      <point x="738" y="1174"/>
      <point x="917" y="1174" type="curve" smooth="yes"/>
      <point x="1098" y="1174"/>
      <point x="1198" y="1015"/>
      <point x="1198" y="768" type="curve" smooth="yes"/>
      <point x="1198" y="520"/>
      <point x="1098" y="359"/>
      <point x="917" y="359" type="curve" smooth="yes"/>
      <point x="738" y="359"/>
      <point x="634" y="519"/>
    </contour>
  </outline>
</glyph>
<glyph name="c" format="2">
  <advance width="1681"/>
  <unicode hex="0063"/>
  <guideline x="1034" y="1011" angle="0.0"/>
  <outline>
    <contour>
      <point x="872" y="-29" type="curve" smooth="yes"/>
      <point x="1304" y="-29"/>
      <point x="1572" y="222"/>
      <point x="1585" y="602" type="curve"/>
      <point x="1128" y="602" type="line"/>
      <point x="1110" y="439"/>
      <point x="1012" y="350"/>
      <point x="878" y="350" type="curve" smooth="yes"/>
      <point x="706" y="350"/>
      <point x="594" y="495"/>
      <point x="594" y="768" type="curve" smooth="yes"/>
      <point x="594" y="1039"/>
      <point x="707" y="1184"/>
      <point x="878" y="1184" type="curve" smooth="yes"/>
      <point x="1018" y="1184"/>
      <point x="1109" y="1089"/>
      <point x="1128" y="932" type="curve"/>
      <point x="1585" y="932" type="line"/>
      <point x="1574" y="1310"/>
      <point x="1298" y="1556"/>
      <point x="871" y="1556" type="curve" smooth="yes"/>
      <point x="388" y="1556"/>
      <point x="96" y="1234"/>
      <point x="96" y="763" type="curve" smooth="yes"/>
      <point x="96" y="294"/>
      <point x="386" y="-29"/>
    </contour>
  </outline>
</glyph>
<glyph name="e" format="2">
  <advance width="1698"/>
  <unicode hex="0065"/>
  <outline>
    <contour>
      <point x="873" y="-29" type="curve" smooth="yes"/>
      <point x="1276" y="-29"/>
      <point x="1541" y="166"/>
      <point x="1597" y="468" type="curve"/>
      <point x="1148" y="481" type="line"/>
      <point x="1110" y="379"/>
      <point x="1010" y="324"/>
      <point x="882" y="324" type="curve" smooth="yes"/>
      <point x="694" y="324"/>
      <point x="578" y="449"/>
      <point x="578" y="637" type="curve" smooth="yes"/>
      <point x="578" y="926" type="line" smooth="yes"/>
      <point x="581" y="1083"/>
      <point x="703" y="1203"/>
      <point x="868" y="1203" type="curve" smooth="yes"/>
      <point x="1029" y="1203"/>
      <point x="1145" y="1091"/>
      <point x="1147" y="934" type="curve"/>
      <point x="267" y="934" type="line"/>
      <point x="267" y="650" type="line"/>
      <point x="1602" y="650" type="line"/>
      <point x="1602" y="772" type="line" smooth="yes"/>
      <point x="1602" y="1278"/>
      <point x="1294" y="1556"/>
      <point x="858" y="1556" type="curve" smooth="yes"/>
      <point x="394" y="1556"/>
      <point x="96" y="1238"/>
      <point x="96" y="762" type="curve" smooth="yes"/>
      <point x="96" y="270"/>
      <point x="390" y="-29"/>
    </contour>
  </outline>
</glyph>
<glyph name="f" format="2">
  <advance width="1109"/>
  <unicode hex="0066"/>
  <outline>
    <contour>
      <point x="1028" y="1536" type="line"/>
      <point x="40" y="1536" type="line"/>
      <point x="40" y="1176" type="line"/>
      <point x="1028" y="1176" type="line"/>
    </contour>
    <component base="_part.f_base" xOffset="-19"/>
  </outline>
</glyph>
<glyph name="g" format="2">
  <advance width="1806"/>
  <unicode hex="0067"/>
  <outline>
    <contour>
      <point x="871" y="-595" type="curve" smooth="yes"/>
      <point x="1334" y="-595"/>
      <point x="1650" y="-384"/>
      <point x="1650" y="-6" type="curve" smooth="yes"/>
      <point x="1650" y="1536" type="line"/>
      <point x="1163" y="1536" type="line"/>
      <point x="1163" y="1273" type="line"/>
      <point x="1149" y="1273" type="line"/>
      <point x="1090" y="1414"/>
      <point x="956" y="1556"/>
      <point x="714" y="1556" type="curve" smooth="yes"/>
      <point x="393" y="1556"/>
      <point x="102" y="1309"/>
      <point x="102" y="770" type="curve" smooth="yes"/>
      <point x="102" y="248"/>
      <point x="379" y="21"/>
      <point x="716" y="21" type="curve" smooth="yes"/>
      <point x="942" y="21"/>
      <point x="1093" y="126"/>
      <point x="1151" y="268" type="curve"/>
      <point x="1168" y="268" type="line"/>
      <point x="1168" y="-2" type="line" smooth="yes"/>
      <point x="1168" y="-186"/>
      <point x="1048" y="-256"/>
      <point x="884" y="-256" type="curve" smooth="yes"/>
      <point x="727" y="-256"/>
      <point x="633" y="-196"/>
      <point x="607" y="-114" type="curve"/>
      <point x="144" y="-140" type="line"/>
      <point x="180" y="-396"/>
      <point x="433" y="-595"/>
    </contour>
    <contour>
      <point x="886" y="377" type="curve" smooth="yes"/>
      <point x="705" y="377"/>
      <point x="604" y="524"/>
      <point x="604" y="770" type="curve" smooth="yes"/>
      <point x="604" y="1015"/>
      <point x="704" y="1174"/>
      <point x="886" y="1174" type="curve" smooth="yes"/>
      <point x="1065" y="1174"/>
      <point x="1169" y="1019"/>
      <point x="1169" y="770" type="curve" smooth="yes"/>
      <point x="1169" y="523"/>
      <point x="1064" y="377"/>
    </contour>
  </outline>
</glyph>
<glyph name="h" format="2">
  <advance width="1789"/>
  <unicode hex="0068"/>
  <note>
based on "n" and made slightly wider, brining the top vertical stem with it out.
</note>
  <guideline x="77" y="1364" angle="0.0"/>
  <outline>
    <contour>
      <point x="644" y="876" type="line" smooth="yes"/>
      <point x="645" y="1051"/>
      <point x="749" y="1155"/>
      <point x="904" y="1155" type="curve" smooth="yes"/>
      <point x="1061" y="1155"/>
      <point x="1152" y="1054"/>
      <point x="1151" y="883" type="curve" smooth="yes"/>
      <point x="1151" y="0" type="line"/>
      <point x="1640" y="0" type="line"/>
      <point x="1640" y="979" type="line" smooth="yes"/>
      <point x="1641" y="1327"/>
      <point x="1429" y="1556"/>
      <point x="1106" y="1556" type="curve" smooth="yes"/>
      <point x="876" y="1556"/>
      <point x="714" y="1443"/>
      <point x="645" y="1254" type="curve"/>
      <point x="628" y="1254" type="line"/>
      <point x="628" y="2048" type="line"/>
      <point x="155" y="2048" type="line"/>
      <point x="155" y="0" type="line"/>
      <point x="644" y="0" type="line"/>
    </contour>
  </outline>
</glyph>
<glyph name="k" format="2">
  <advance width="1673"/>
  <unicode hex="006B"/>
  <guideline x="400" y="1936" angle="90.0"/>
  <outline>
    <contour>
      <point x="596" y="403" type="line"/>
      <point x="881" y="748" type="line"/>
      <point x="1010" y="748" type="line"/>
      <point x="1652" y="1536" type="line"/>
      <point x="1098" y="1536" type="line"/>
      <point x="666" y="986" type="line"/>
      <point x="598" y="986" type="line"/>
    </contour>
    <contour>
      <point x="155" y="0" type="line"/>
      <point x="644" y="0" type="line"/>
      <point x="644" y="2048" type="line"/>
      <point x="155" y="2048" type="line"/>
    </contour>
    <contour>
      <point x="1109" y="0" type="line"/>
      <point x="1674" y="0" type="line"/>
      <point x="1029" y="985" type="line"/>
      <point x="707" y="638" type="line"/>
    </contour>
  </outline>
</glyph>
<glyph name="l" format="2">
  <advance width="799"/>
  <unicode hex="006C"/>
  <outline>
    <contour>
      <point x="644" y="2048" type="line"/>
      <point x="155" y="2048" type="line"/>
      <point x="155" y="0" type="line"/>
      <point x="644" y="0" type="line"/>
    </contour>
  </outline>
</glyph>
<glyph name="m" format="2">
  <advance width="2608"/>
  <unicode hex="006D"/>
  <outline>
    <contour>
      <point x="155" y="0" type="line"/>
      <point x="644" y="0" type="line"/>
      <point x="644" y="909" type="line" smooth="yes"/>
      <point x="644" y="1061"/>
      <point x="733" y="1158"/>
      <point x="861" y="1158" type="curve" smooth="yes"/>
      <point x="988" y="1158"/>
      <point x="1072" y="1069"/>
      <point x="1072" y="927" type="curve" smooth="yes"/>
      <point x="1072" y="0" type="line"/>
      <point x="1542" y="0" type="line"/>
      <point x="1542" y="917" type="line" smooth="yes"/>
      <point x="1542" y="1064"/>
      <point x="1623" y="1158"/>
      <point x="1758" y="1158" type="curve" smooth="yes"/>
      <point x="1882" y="1158"/>
      <point x="1970" y="1075"/>
      <point x="1970" y="922" type="curve" smooth="yes"/>
      <point x="1970" y="0" type="line"/>
      <point x="2459" y="0" type="line"/>
      <point x="2459" y="1034" type="line" smooth="yes"/>
      <point x="2459" y="1359"/>
      <point x="2259" y="1556"/>
      <point x="1969" y="1556" type="curve" smooth="yes"/>
      <point x="1742" y="1556"/>
      <point x="1563" y="1437"/>
      <point x="1506" y="1254" type="curve"/>
      <point x="1490" y="1254" type="line"/>
      <point x="1449" y="1438"/>
      <point x="1284" y="1556"/>
      <point x="1071" y="1556" type="curve" smooth="yes"/>
      <point x="861" y="1556"/>
      <point x="701" y="1441"/>
      <point x="637" y="1254" type="curve"/>
      <point x="620" y="1254" type="line"/>
      <point x="620" y="1536" type="line"/>
      <point x="155" y="1536" type="line"/>
    </contour>
  </outline>
</glyph>
<glyph name="n" format="2">
  <advance width="1786"/>
  <unicode hex="006E"/>
  <outline>
    <contour>
      <point x="644" y="876" type="line" smooth="yes"/>
      <point x="645" y="1051"/>
      <point x="747" y="1155"/>
      <point x="902" y="1155" type="curve" smooth="yes"/>
      <point x="1057" y="1155"/>
      <point x="1149" y="1053"/>
      <point x="1148" y="883" type="curve" smooth="yes"/>
      <point x="1148" y="0" type="line"/>
      <point x="1637" y="0" type="line"/>
      <point x="1637" y="979" type="line" smooth="yes"/>
      <point x="1638" y="1325"/>
      <point x="1427" y="1556"/>
      <point x="1104" y="1556" type="curve" smooth="yes"/>
      <point x="877" y="1556"/>
      <point x="705" y="1441"/>
      <point x="637" y="1254" type="curve"/>
      <point x="620" y="1254" type="line"/>
      <point x="620" y="1536" type="line"/>
      <point x="155" y="1536" type="line"/>
      <point x="155" y="0" type="line"/>
      <point x="644" y="0" type="line"/>
    </contour>
  </outline>
</glyph>
<glyph name="o" format="2">
  <advance width="1744"/>
  <unicode hex="006F"/>
  <outline>
    <contour>
      <point x="872" y="-29" type="curve" smooth="yes"/>
      <point x="1355" y="-29"/>
      <point x="1648" y="290"/>
      <point x="1648" y="763" type="curve" smooth="yes"/>
      <point x="1648" y="1237"/>
      <point x="1355" y="1556"/>
      <point x="872" y="1556" type="curve" smooth="yes"/>
      <point x="389" y="1556"/>
      <point x="96" y="1237"/>
      <point x="96" y="763" type="curve" smooth="yes"/>
      <point x="96" y="290"/>
      <point x="389" y="-29"/>
    </contour>
    <contour>
      <point x="875" y="340" type="curve" smooth="yes"/>
      <point x="694" y="340"/>
      <point x="594" y="512"/>
      <point x="594" y="766" type="curve" smooth="yes"/>
      <point x="594" y="1021"/>
      <point x="694" y="1194"/>
      <point x="875" y="1194" type="curve" smooth="yes"/>
      <point x="1050" y="1194"/>
      <point x="1150" y="1021"/>
      <point x="1150" y="766" type="curve" smooth="yes"/>
      <point x="1150" y="512"/>
      <point x="1050" y="340"/>
    </contour>
  </outline>
</glyph>
<glyph name="r" format="2">
  <advance width="1186"/>
  <unicode hex="0072"/>
  <outline>
    <contour>
      <point x="155" y="0" type="line"/>
      <point x="644" y="0" type="line"/>
      <point x="644" y="834" type="line" smooth="yes"/>
      <point x="644" y="1017"/>
      <point x="774" y="1140"/>
      <point x="949" y="1140" type="curve" smooth="yes"/>
      <point x="1007" y="1140"/>
      <point x="1094" y="1130"/>
      <point x="1141" y="1114" type="curve"/>
      <point x="1141" y="1539" type="line"/>
      <point x="1100" y="1550"/>
      <point x="1049" y="1557"/>
      <point x="1004" y="1557" type="curve" smooth="yes"/>
      <point x="836" y="1557"/>
      <point x="702" y="1459"/>
      <point x="646" y="1256" type="curve"/>
      <point x="630" y="1256" type="line"/>
      <point x="630" y="1536" type="line"/>
      <point x="155" y="1536" type="line"/>
    </contour>
  </outline>
</glyph>
<glyph name="s" format="2">
  <advance width="1619"/>
  <unicode hex="0073"/>
  <guideline x="147" y="1890" angle="0.0"/>
  <outline>
    <contour>
      <point x="1496" y="1067" type="line"/>
      <point x="1470" y="1371"/>
      <point x="1221" y="1556"/>
      <point x="805" y="1556" type="curve" smooth="yes"/>
      <point x="389" y="1556"/>
      <point x="124" y="1375"/>
      <point x="126" y="1067" type="curve" smooth="yes"/>
      <point x="124" y="831"/>
      <point x="275" y="679"/>
      <point x="582" y="622" type="curve" smooth="yes"/>
      <point x="850" y="571" type="line" smooth="yes"/>
      <point x="977" y="546"/>
      <point x="1035" y="506"/>
      <point x="1037" y="438" type="curve" smooth="yes"/>
      <point x="1035" y="361"/>
      <point x="949" y="310"/>
      <point x="824" y="310" type="curve" smooth="yes"/>
      <point x="685" y="310"/>
      <point x="591" y="370"/>
      <point x="570" y="482" type="curve"/>
      <point x="87" y="470" type="line"/>
      <point x="122" y="166"/>
      <point x="383" y="-29"/>
      <point x="822" y="-29" type="curve" smooth="yes"/>
      <point x="1233" y="-29"/>
      <point x="1532" y="176"/>
      <point x="1534" y="492" type="curve" smooth="yes"/>
      <point x="1532" y="716"/>
      <point x="1384" y="849"/>
      <point x="1078" y="908" type="curve" smooth="yes"/>
      <point x="782" y="964" type="line" smooth="yes"/>
      <point x="652" y="990"/>
      <point x="610" y="1036"/>
      <point x="611" y="1095" type="curve" smooth="yes"/>
      <point x="610" y="1173"/>
      <point x="701" y="1221"/>
      <point x="814" y="1221" type="curve" smooth="yes"/>
      <point x="943" y="1221"/>
      <point x="1033" y="1152"/>
      <point x="1047" y="1055" type="curve"/>
    </contour>
  </outline>
</glyph>
<glyph name="t" format="2">
  <advance width="1117"/>
  <unicode hex="0074"/>
  <guideline x="588" y="2193" angle="90.0"/>
  <outline>
    <contour>
      <point x="1022" y="1536" type="line"/>
      <point x="53" y="1536" type="line"/>
      <point x="53" y="1176" type="line"/>
      <point x="1022" y="1176" type="line"/>
    </contour>
    <component base="_part.t_base"/>
  </outline>
</glyph>
<glyph name="u" format="2">
  <advance width="1790"/>
  <unicode hex="0075"/>
  <outline>
    <contour>
      <point x="1146" y="663" type="line" smooth="yes"/>
      <point x="1146" y="484"/>
      <point x="1032" y="384"/>
      <point x="887" y="384" type="curve" smooth="yes"/>
      <point x="737" y="384"/>
      <point x="645" y="486"/>
      <point x="644" y="653" type="curve" smooth="yes"/>
      <point x="644" y="1536" type="line"/>
      <point x="155" y="1536" type="line"/>
      <point x="155" y="557" type="line" smooth="yes"/>
      <point x="156" y="210"/>
      <point x="367" y="-20"/>
      <point x="683" y="-20" type="curve" smooth="yes"/>
      <point x="913" y="-20"/>
      <point x="1084" y="98"/>
      <point x="1152" y="286" type="curve"/>
      <point x="1168" y="286" type="line"/>
      <point x="1168" y="0" type="line"/>
      <point x="1634" y="0" type="line"/>
      <point x="1634" y="1536" type="line"/>
      <point x="1146" y="1536" type="line"/>
    </contour>
  </outline>
</glyph>
<glyph name="v" format="2">
  <advance width="1677"/>
  <unicode hex="0076"/>
  <outline>
    <contour>
      <point x="1645" y="1536" type="line"/>
      <point x="1130" y="1536" type="line"/>
      <point x="846" y="478" type="line"/>
      <point x="830" y="478" type="line"/>
      <point x="547" y="1536" type="line"/>
      <point x="32" y="1536" type="line"/>
      <point x="558" y="0" type="line"/>
      <point x="1118" y="0" type="line"/>
    </contour>
  </outline>
</glyph>
<glyph name="w" format="2">
  <advance width="2429"/>
  <unicode hex="0077"/>
  <outline>
    <contour>
      <point x="442" y="0" type="line"/>
      <point x="966" y="0" type="line"/>
      <point x="1206" y="895" type="line"/>
      <point x="1223" y="895" type="line"/>
      <point x="1463" y="0" type="line"/>
      <point x="1986" y="0" type="line"/>
      <point x="2387" y="1536" type="line"/>
      <point x="1896" y="1536" type="line"/>
      <point x="1695" y="559" type="line"/>
      <point x="1682" y="559" type="line"/>
      <point x="1454" y="1536" type="line"/>
      <point x="975" y="1536" type="line"/>
      <point x="753" y="552" type="line"/>
      <point x="740" y="552" type="line"/>
      <point x="533" y="1536" type="line"/>
      <point x="42" y="1536" type="line"/>
    </contour>
  </outline>
</glyph>
<glyph name="x" format="2">
  <advance width="1648"/>
  <unicode hex="0078"/>
  <outline>
    <contour>
      <point x="571" y="1536" type="line"/>
      <point x="75" y="1536" type="line"/>
      <point x="499" y="768" type="line"/>
      <point x="53" y="0" type="line"/>
      <point x="549" y="0" type="line"/>
      <point x="824" y="510" type="line"/>
      <point x="1106" y="0" type="line"/>
      <point x="1595" y="0" type="line"/>
      <point x="1150" y="768" type="line"/>
      <point x="1579" y="1536" type="line"/>
      <point x="1086" y="1536" type="line"/>
      <point x="824" y="1030" type="line"/>
    </contour>
  </outline>
</glyph>
<glyph name="y" format="2">
  <advance width="1677"/>
  <unicode hex="0079"/>
  <outline>
    <contour>
      <point x="454" y="-574" type="curve" smooth="yes"/>
      <point x="806" y="-574"/>
      <point x="981" y="-396"/>
      <point x="1066" y="-147" type="curve" smooth="yes"/>
      <point x="1645" y="1535" type="line"/>
      <point x="1130" y="1536" type="line"/>
      <point x="843" y="440" type="line"/>
      <point x="827" y="440" type="line"/>
      <point x="544" y="1536" type="line"/>
      <point x="32" y="1536" type="line"/>
      <point x="578" y="-56" type="line"/>
      <point x="559" y="-102" type="line" smooth="yes"/>
      <point x="506" y="-212"/>
      <point x="406" y="-217"/>
      <point x="262" y="-170" type="curve"/>
      <point x="154" y="-525" type="line"/>
      <point x="228" y="-554"/>
      <point x="337" y="-574"/>
    </contour>
  </outline>
</glyph>
<glyph name="z" format="2">
  <advance width="1639"/>
  <unicode hex="007A"/>
  <guideline x="1159" y="689" angle="51.57190000000003"/>
  <guideline x="1238" y="463" angle="90.0"/>
  <outline>
    <contour>
      <point x="159" y="0" type="line"/>
      <point x="1478" y="0" type="line"/>
      <point x="1478" y="380" type="line"/>
      <point x="794" y="380" type="line"/>
      <point x="794" y="390" type="line"/>
      <point x="1454" y="1230" type="line"/>
      <point x="1454" y="1536" type="line"/>
      <point x="184" y="1536" type="line"/>
      <point x="184" y="1156" type="line"/>
      <point x="871" y="1156" type="line"/>
      <point x="871" y="1146" type="line"/>
      <point x="159" y="279" type="line"/>
    </contour>
  </outline>
</glyph>
<glyph name="braceleft" format="2">
  <advance width="1196"/>
  <unicode hex="007B"/>
  <guideline x="980" y="1062" angle="0.0"/>
  <guideline x="983" y="-454" angle="0.0"/>
  <outline>
    <contour>
      <point x="82" y="796" type="line"/>
      <point x="737" y="796"/>
      <point x="863" y="984"/>
      <point x="863" y="1186" type="curve" smooth="yes"/>
      <point x="863" y="1442" type="line" smooth="yes"/>
      <point x="863" y="1622"/>
      <point x="903" y="1708"/>
      <point x="1142" y="1708" type="curve"/>
      <point x="1142" y="2067" type="line"/>
      <point x="734" y="2067"/>
      <point x="391" y="2034"/>
      <point x="391" y="1499" type="curve" smooth="yes"/>
      <point x="391" y="1310" type="line" smooth="yes"/>
      <point x="391" y="1110"/>
      <point x="313" y="1022"/>
      <point x="82" y="1022" type="curve"/>
    </contour>
    <contour>
      <point x="1142" y="-454" type="curve"/>
      <point x="1142" y="-95" type="line"/>
      <point x="903" y="-95"/>
      <point x="863" y="-9"/>
      <point x="863" y="171" type="curve" smooth="yes"/>
      <point x="863" y="427" type="line" smooth="yes"/>
      <point x="863" y="629"/>
      <point x="737" y="817"/>
      <point x="82" y="817" type="curve"/>
      <point x="82" y="590" type="line"/>
      <point x="313" y="590"/>
      <point x="391" y="503"/>
      <point x="391" y="302" type="curve" smooth="yes"/>
      <point x="391" y="114" type="line" smooth="yes"/>
      <point x="391" y="-421"/>
      <point x="734" y="-454"/>
    </contour>
    <contour>
      <point x="82" y="590" type="line"/>
      <point x="481" y="590" type="line"/>
      <point x="481" y="1022" type="line"/>
      <point x="82" y="1022" type="line"/>
    </contour>
  </outline>
</glyph>
<glyph name="asciitilde" format="2">
  <advance width="1933"/>
  <unicode hex="007E"/>
  <guideline x="512" y="828" angle="320.0"/>
  <outline>
    <contour>
      <point x="210" y="534" type="curve"/>
      <point x="573" y="534" type="line"/>
      <point x="569" y="698"/>
      <point x="636" y="762"/>
      <point x="725" y="762" type="curve" smooth="yes"/>
      <point x="793" y="762"/>
      <point x="824" y="731"/>
      <point x="902" y="662" type="curve" smooth="yes"/>
      <point x="1040" y="541"/>
      <point x="1148" y="491"/>
      <point x="1279" y="491" type="curve" smooth="yes"/>
      <point x="1564" y="491"/>
      <point x="1739" y="726"/>
      <point x="1723" y="1121" type="curve"/>
      <point x="1360" y="1121" type="line"/>
      <point x="1365" y="960"/>
      <point x="1296" y="893"/>
      <point x="1208" y="893" type="curve" smooth="yes"/>
      <point x="1138" y="893"/>
      <point x="1096" y="932"/>
      <point x="1027" y="993" type="curve" smooth="yes"/>
      <point x="880" y="1123"/>
      <point x="776" y="1164"/>
      <point x="654" y="1164" type="curve" smooth="yes"/>
      <point x="360" y="1164"/>
      <point x="195" y="929"/>
    </contour>
  </outline>
</glyph>
<glyph name="sterling" format="2">
  <advance width="1930"/>
  <unicode hex="00A3"/>
  <outline>
    <contour>
      <point x="1735" y="0" type="line"/>
      <point x="1735" y="402" type="line"/>
      <point x="203" y="402" type="line"/>
      <point x="203" y="0" type="line"/>
    </contour>
    <contour>
      <point x="1351" y="822" type="line"/>
      <point x="1351" y="1200" type="line"/>
      <point x="198" y="1200" type="line"/>
      <point x="198" y="822" type="line"/>
    </contour>
    <contour>
      <point x="900" y="1482" type="line" smooth="yes"/>
      <point x="898" y="1618"/>
      <point x="963" y="1686"/>
      <point x="1067" y="1686" type="curve" smooth="yes"/>
      <point x="1178" y="1686"/>
      <point x="1268" y="1641"/>
      <point x="1270" y="1484" type="curve"/>
      <point x="1733" y="1490" type="line"/>
      <point x="1727" y="1849"/>
      <point x="1491" y="2076"/>
      <point x="1062" y="2076" type="curve" smooth="yes"/>
      <point x="668" y="2076"/>
      <point x="394" y="1858"/>
      <point x="409" y="1482" type="curve" smooth="yes"/>
      <point x="440" y="605" type="line" smooth="yes"/>
      <point x="442" y="504"/>
      <point x="427" y="428"/>
      <point x="350" y="402" type="curve"/>
      <point x="630" y="257" type="line"/>
      <point x="852" y="346"/>
      <point x="938" y="450"/>
      <point x="932" y="637" type="curve" smooth="yes"/>
    </contour>
  </outline>
</glyph>
<glyph name="currency" format="2">
  <advance width="2193"/>
  <unicode hex="00A4"/>
  <outline>
    <contour>
      <point x="1098" y="-28" type="curve" smooth="yes"/>
      <point x="1562" y="-28"/>
      <point x="1946" y="348"/>
      <point x="1947" y="836" type="curve" smooth="yes"/>
      <point x="1946" y="1324"/>
      <point x="1562" y="1696"/>
      <point x="1098" y="1696" type="curve" smooth="yes"/>
      <point x="629" y="1696"/>
      <point x="246" y="1324"/>
      <point x="247" y="836" type="curve"/>
      <point x="246" y="348"/>
      <point x="629" y="-28"/>
    </contour>
    <contour>
      <point x="1098" y="246" type="curve" smooth="yes"/>
      <point x="769" y="246"/>
      <point x="514" y="503"/>
      <point x="515" y="836" type="curve"/>
      <point x="514" y="1173"/>
      <point x="769" y="1426"/>
      <point x="1098" y="1426" type="curve" smooth="yes"/>
      <point x="1418" y="1426"/>
      <point x="1679" y="1173"/>
      <point x="1681" y="836" type="curve" smooth="yes"/>
      <point x="1679" y="503"/>
      <point x="1418" y="246"/>
    </contour>
    <contour>
      <point x="1717" y="1253" type="line"/>
      <point x="2006" y="1537" type="line"/>
      <point x="1801" y="1743" type="line"/>
      <point x="1515" y="1459" type="line"/>
    </contour>
    <contour>
      <point x="1801" y="-39" type="line"/>
      <point x="2006" y="167" type="line"/>
      <point x="1717" y="447" type="line"/>
      <point x="1515" y="245" type="line"/>
    </contour>
    <contour>
      <point x="398" y="-39" type="line"/>
      <point x="687" y="245" type="line"/>
      <point x="482" y="447" type="line"/>
      <point x="196" y="167" type="line"/>
    </contour>
    <contour>
      <point x="482" y="1253" type="line"/>
      <point x="687" y="1459" type="line"/>
      <point x="398" y="1743" type="line"/>
      <point x="196" y="1537" type="line"/>
    </contour>
  </outline>
</glyph>
<glyph name="yen" format="2">
  <advance width="1634"/>
  <unicode hex="00A5"/>
  <note>
line up with uni20BD
</note>
  <outline>
    <contour>
      <point x="540" y="2048" type="line"/>
      <point x="40" y="2048" type="line"/>
      <point x="603" y="783" type="line"/>
      <point x="930" y="1052" type="line"/>
    </contour>
    <contour>
      <point x="710" y="1065" type="line"/>
      <point x="1027" y="783" type="line"/>
      <point x="1594" y="2048" type="line"/>
      <point x="1094" y="2048" type="line"/>
    </contour>
    <contour>
      <point x="1053" y="1079" type="line"/>
      <point x="565" y="1079" type="line"/>
      <point x="565" y="0" type="line"/>
      <point x="1053" y="0" type="line"/>
    </contour>
    <contour>
      <point x="1443" y="1068" type="line"/>
      <point x="133" y="1068" type="line"/>
      <point x="133" y="798" type="line"/>
      <point x="1443" y="798" type="line"/>
    </contour>
    <contour>
      <point x="1443" y="672" type="line"/>
      <point x="133" y="672" type="line"/>
      <point x="133" y="402" type="line"/>
      <point x="1443" y="402" type="line"/>
    </contour>
  </outline>
</glyph>
<glyph name="brokenbar" format="2">
  <advance width="1046"/>
  <unicode hex="00A6"/>
  <outline>
    <contour>
      <point x="306" y="578" type="line"/>
      <point x="306" y="-384" type="line"/>
      <point x="740" y="-384" type="line"/>
      <point x="740" y="578" type="line"/>
    </contour>
    <contour>
      <point x="740" y="2048" type="line"/>
      <point x="306" y="2048" type="line"/>
      <point x="306" y="1090" type="line"/>
      <point x="740" y="1090" type="line"/>
    </contour>
  </outline>
</glyph>
<glyph name="section" format="2">
  <advance width="1709"/>
  <unicode hex="00A7"/>
  <note>
composed of "S" scaled down with RMX Tuner in temporary duplicate file
</note>
  <outline>
    <contour>
      <point x="1448" y="1532" type="line"/>
      <point x="1447" y="1845"/>
      <point x="1201" y="2076"/>
      <point x="836" y="2076" type="curve" smooth="yes"/>
      <point x="481" y="2076"/>
      <point x="232" y="1854"/>
      <point x="233" y="1555" type="curve" smooth="yes"/>
      <point x="232" y="1392"/>
      <point x="304" y="1269"/>
      <point x="411" y="1166" type="curve"/>
      <point x="411" y="1164" type="line"/>
      <point x="330" y="1142"/>
      <point x="185" y="1088"/>
      <point x="166" y="912" type="curve" smooth="yes"/>
      <point x="134" y="603"/>
      <point x="382" y="483"/>
      <point x="494" y="439" type="curve" smooth="yes"/>
      <point x="875" y="282" type="line" smooth="yes"/>
      <point x="942" y="252"/>
      <point x="1049" y="197"/>
      <point x="1050" y="109" type="curve" smooth="yes"/>
      <point x="1049" y="28"/>
      <point x="952" y="-2"/>
      <point x="866" y="-6" type="curve" smooth="yes"/>
      <point x="717" y="-15"/>
      <point x="633" y="45"/>
      <point x="634" y="148" type="curve"/>
      <point x="210" y="148" type="line"/>
      <point x="209" y="-191"/>
      <point x="472" y="-413"/>
      <point x="859" y="-413" type="curve" smooth="yes"/>
      <point x="1218" y="-413"/>
      <point x="1478" y="-213"/>
      <point x="1479" y="109" type="curve" smooth="yes"/>
      <point x="1478" y="269"/>
      <point x="1415" y="394"/>
      <point x="1298" y="497" type="curve"/>
      <point x="1304" y="501" type="line"/>
      <point x="1372" y="520"/>
      <point x="1526" y="578"/>
      <point x="1546" y="752" type="curve" smooth="yes"/>
      <point x="1580" y="1058"/>
      <point x="1328" y="1177"/>
      <point x="1222" y="1221" type="curve" smooth="yes"/>
      <point x="840" y="1382" type="line" smooth="yes"/>
      <point x="766" y="1406"/>
      <point x="658" y="1467"/>
      <point x="659" y="1555" type="curve" smooth="yes"/>
      <point x="658" y="1649"/>
      <point x="754" y="1672"/>
      <point x="836" y="1672" type="curve" smooth="yes"/>
      <point x="959" y="1672"/>
      <point x="1024" y="1611"/>
      <point x="1025" y="1532" type="curve"/>
    </contour>
    <contour>
      <point x="1153" y="723" type="curve" smooth="yes"/>
      <point x="1139" y="665"/>
      <point x="1085" y="637"/>
      <point x="1030" y="659" type="curve"/>
      <point x="710" y="786" type="line" smooth="yes"/>
      <point x="593" y="830"/>
      <point x="542" y="890"/>
      <point x="556" y="941" type="curve" smooth="yes"/>
      <point x="568" y="997"/>
      <point x="618" y="1030"/>
      <point x="685" y="1003" type="curve"/>
      <point x="1000" y="878" type="line" smooth="yes"/>
      <point x="1121" y="831"/>
      <point x="1165" y="775"/>
    </contour>
  </outline>
</glyph>
<glyph name="dieresis" format="2">
  <advance width="1453"/>
  <unicode hex="00A8"/>
  <guideline x="618" y="1910" angle="90.0"/>
  <outline>
    <contour>
      <point x="416" y="1731" type="curve" smooth="yes"/>
      <point x="540" y="1731"/>
      <point x="640" y="1830"/>
      <point x="640" y="1949" type="curve" smooth="yes"/>
      <point x="640" y="2070"/>
      <point x="540" y="2166"/>
      <point x="416" y="2166" type="curve" smooth="yes"/>
      <point x="290" y="2166"/>
      <point x="189" y="2070"/>
      <point x="189" y="1949" type="curve" smooth="yes"/>
      <point x="189" y="1830"/>
      <point x="290" y="1731"/>
    </contour>
    <contour>
      <point x="1040" y="1731" type="curve" smooth="yes"/>
      <point x="1164" y="1731"/>
      <point x="1264" y="1830"/>
      <point x="1264" y="1949" type="curve" smooth="yes"/>
      <point x="1264" y="2070"/>
      <point x="1164" y="2166"/>
      <point x="1040" y="2166" type="curve" smooth="yes"/>
      <point x="914" y="2166"/>
      <point x="813" y="2070"/>
      <point x="813" y="1949" type="curve" smooth="yes"/>
      <point x="813" y="1830"/>
      <point x="914" y="1731"/>
    </contour>
  </outline>
</glyph>
<glyph name="copyright" format="2">
  <advance width="2461"/>
  <unicode hex="00A9"/>
  <outline>
    <contour>
      <point x="1468" y="820" type="line"/>
      <point x="1469" y="640"/>
      <point x="1382" y="572"/>
      <point x="1211" y="572" type="curve" smooth="yes"/>
      <point x="1030" y="572"/>
      <point x="938" y="716"/>
      <point x="937" y="920" type="curve" smooth="yes"/>
      <point x="937" y="1084" type="line" smooth="yes"/>
      <point x="938" y="1288"/>
      <point x="1030" y="1432"/>
      <point x="1211" y="1432" type="curve" smooth="yes"/>
      <point x="1382" y="1432"/>
      <point x="1470" y="1360"/>
      <point x="1469" y="1184" type="curve"/>
      <point x="1694" y="1184" type="line"/>
      <point x="1694" y="1472"/>
      <point x="1505" y="1616"/>
      <point x="1211" y="1616" type="curve" smooth="yes"/>
      <point x="910" y="1616"/>
      <point x="713" y="1400"/>
      <point x="712" y="1084" type="curve"/>
      <point x="712" y="920" type="line"/>
      <point x="713" y="604"/>
      <point x="910" y="388"/>
      <point x="1211" y="388" type="curve" smooth="yes"/>
      <point x="1505" y="388"/>
      <point x="1694" y="532"/>
      <point x="1694" y="820" type="curve"/>
    </contour>
    <contour>
      <point x="390" y="1004" type="curve"/>
      <point x="391" y="1488"/>
      <point x="771" y="1860"/>
      <point x="1230" y="1860" type="curve" smooth="yes"/>
      <point x="1695" y="1860"/>
      <point x="2071" y="1488"/>
      <point x="2070" y="1004" type="curve" smooth="yes"/>
      <point x="2071" y="516"/>
      <point x="1695" y="144"/>
      <point x="1230" y="144" type="curve" smooth="yes"/>
      <point x="771" y="144"/>
      <point x="391" y="516"/>
    </contour>
    <contour>
      <point x="216" y="1004" type="curve"/>
      <point x="217" y="420"/>
      <point x="676" y="-28"/>
      <point x="1230" y="-28" type="curve" smooth="yes"/>
      <point x="1790" y="-28"/>
      <point x="2246" y="420"/>
      <point x="2245" y="1004" type="curve" smooth="yes"/>
      <point x="2246" y="1584"/>
      <point x="1790" y="2032"/>
      <point x="1230" y="2032" type="curve" smooth="yes"/>
      <point x="676" y="2032"/>
      <point x="217" y="1584"/>
    </contour>
  </outline>
</glyph>
<glyph name="ordfeminine" format="2">
  <advance width="1408"/>
  <unicode hex="00AA"/>
  <outline>
    <contour>
      <point x="877" y="1184" type="line"/>
      <point x="877" y="1106"/>
      <point x="892" y="1030"/>
      <point x="912" y="969" type="curve"/>
      <point x="1166" y="969" type="line"/>
      <point x="1131" y="1058"/>
      <point x="1126" y="1145"/>
      <point x="1126" y="1220" type="curve" smooth="yes"/>
      <point x="1126" y="1652" type="line"/>
      <point x="1126" y="1904"/>
      <point x="960" y="2032"/>
      <point x="710" y="2032" type="curve" smooth="yes"/>
      <point x="444" y="2032"/>
      <point x="266" y="1896"/>
      <point x="266" y="1709" type="curve"/>
      <point x="515" y="1692" type="line"/>
      <point x="515" y="1780"/>
      <point x="587" y="1828"/>
      <point x="710" y="1828" type="curve" smooth="yes"/>
      <point x="825" y="1828"/>
      <point x="877" y="1762"/>
      <point x="877" y="1652" type="curve"/>
    </contour>
    <contour>
      <point x="940" y="1581" type="line"/>
      <point x="734" y="1581" type="line"/>
      <point x="405" y="1581"/>
      <point x="246" y="1468"/>
      <point x="246" y="1264" type="curve" smooth="yes"/>
      <point x="246" y="1076"/>
      <point x="373" y="952"/>
      <point x="599" y="952" type="curve" smooth="yes"/>
      <point x="794" y="952"/>
      <point x="901" y="1054"/>
      <point x="944" y="1145" type="curve"/>
      <point x="920" y="1308" type="line"/>
      <point x="920" y="1240"/>
      <point x="778" y="1149"/>
      <point x="662" y="1149" type="curve" smooth="yes"/>
      <point x="547" y="1149"/>
      <point x="496" y="1196"/>
      <point x="496" y="1269" type="curve" smooth="yes"/>
      <point x="496" y="1349"/>
      <point x="570" y="1421"/>
      <point x="734" y="1421" type="curve"/>
      <point x="940" y="1421" type="line"/>
    </contour>
  </outline>
</glyph>
<glyph name="logicalnot" format="2">
  <advance width="1670"/>
  <unicode hex="00AC"/>
  <outline>
    <contour>
      <point x="1435" y="1108" type="line"/>
      <point x="242" y="1108" type="line"/>
      <point x="242" y="872" type="line"/>
      <point x="1435" y="872" type="line"/>
    </contour>
    <contour>
      <point x="1435" y="1000" type="line"/>
      <point x="1150" y="1000" type="line"/>
      <point x="1150" y="516" type="line"/>
      <point x="1435" y="516" type="line"/>
    </contour>
  </outline>
</glyph>
<glyph name="registered" format="2">
  <advance width="2461"/>
  <unicode hex="00AE"/>
  <outline>
    <contour>
      <point x="1230" y="-28" type="curve" smooth="yes"/>
      <point x="1790" y="-28"/>
      <point x="2246" y="420"/>
      <point x="2245" y="1004" type="curve" smooth="yes"/>
      <point x="2246" y="1584"/>
      <point x="1790" y="2032"/>
      <point x="1230" y="2032" type="curve" smooth="yes"/>
      <point x="676" y="2032"/>
      <point x="217" y="1584"/>
      <point x="216" y="1004" type="curve" smooth="yes"/>
      <point x="217" y="420"/>
      <point x="676" y="-28"/>
    </contour>
    <contour>
      <point x="1476" y="436" type="curve"/>
      <point x="1698" y="436" type="line"/>
      <point x="1698" y="456" type="line"/>
      <point x="1682" y="497"/>
      <point x="1674" y="558"/>
      <point x="1674" y="632" type="curve"/>
      <point x="1674" y="708" type="line"/>
      <point x="1674" y="911"/>
      <point x="1580" y="1060"/>
      <point x="1282" y="1060" type="curve"/>
      <point x="1250" y="900" type="line"/>
      <point x="1402" y="900"/>
      <point x="1457" y="836"/>
      <point x="1456" y="708" type="curve"/>
      <point x="1456" y="632" type="line"/>
      <point x="1457" y="592"/>
      <point x="1457" y="480"/>
    </contour>
    <contour>
      <point x="1230" y="144" type="curve" smooth="yes"/>
      <point x="771" y="144"/>
      <point x="391" y="516"/>
      <point x="390" y="1004" type="curve" smooth="yes"/>
      <point x="391" y="1488"/>
      <point x="771" y="1860"/>
      <point x="1230" y="1860" type="curve" smooth="yes"/>
      <point x="1695" y="1860"/>
      <point x="2071" y="1488"/>
      <point x="2070" y="1004" type="curve" smooth="yes"/>
      <point x="2071" y="516"/>
      <point x="1695" y="144"/>
    </contour>
    <contour>
      <point x="810" y="436" type="line"/>
      <point x="1028" y="436" type="line"/>
      <point x="1028" y="1420" type="line"/>
      <point x="1211" y="1420" type="line"/>
      <point x="1398" y="1420"/>
      <point x="1465" y="1376"/>
      <point x="1464" y="1244" type="curve"/>
      <point x="1465" y="1137"/>
      <point x="1342" y="1084"/>
      <point x="1207" y="1084" type="curve"/>
      <point x="957" y="1084" type="line"/>
      <point x="961" y="900" type="line"/>
      <point x="1270" y="900" type="line"/>
      <point x="1335" y="900"/>
      <point x="1289" y="903"/>
      <point x="1342" y="928" type="curve" smooth="yes"/>
      <point x="1345" y="930"/>
      <point x="1374" y="949"/>
      <point x="1365" y="948" type="curve" smooth="yes"/>
      <point x="1565" y="1000"/>
      <point x="1678" y="1090"/>
      <point x="1678" y="1239" type="curve"/>
      <point x="1678" y="1475"/>
      <point x="1497" y="1604"/>
      <point x="1211" y="1604" type="curve"/>
      <point x="810" y="1604" type="line"/>
    </contour>
  </outline>
</glyph>
<glyph name="macron" format="2">
  <advance width="1699"/>
  <unicode hex="00AF"/>
  <outline>
    <contour>
      <point x="1343" y="2048" type="line"/>
      <point x="356" y="2048" type="line"/>
      <point x="356" y="1806" type="line"/>
      <point x="1343" y="1806" type="line"/>
    </contour>
  </outline>
</glyph>
<glyph name="degree" format="2">
  <advance width="1299"/>
  <unicode hex="00B0"/>
  <outline>
    <contour>
      <point x="650" y="1058" type="curve" smooth="yes"/>
      <point x="927" y="1058"/>
      <point x="1151" y="1282"/>
      <point x="1151" y="1559" type="curve" smooth="yes"/>
      <point x="1151" y="1836"/>
      <point x="927" y="2061"/>
      <point x="650" y="2061" type="curve" smooth="yes"/>
      <point x="372" y="2061"/>
      <point x="148" y="1836"/>
      <point x="148" y="1559" type="curve" smooth="yes"/>
      <point x="148" y="1282"/>
      <point x="372" y="1058"/>
    </contour>
    <contour>
      <point x="650" y="1370" type="curve" smooth="yes"/>
      <point x="545" y="1370"/>
      <point x="460" y="1454"/>
      <point x="460" y="1559" type="curve" smooth="yes"/>
      <point x="460" y="1664"/>
      <point x="545" y="1749"/>
      <point x="650" y="1749" type="curve" smooth="yes"/>
      <point x="754" y="1749"/>
      <point x="839" y="1664"/>
      <point x="839" y="1559" type="curve" smooth="yes"/>
      <point x="839" y="1454"/>
      <point x="754" y="1370"/>
    </contour>
  </outline>
</glyph>
<glyph name="plusminus" format="2">
  <advance width="1933"/>
  <unicode hex="00B1"/>
  <outline>
    <contour>
      <point x="242" y="70" type="line"/>
      <point x="1690" y="70" type="line"/>
      <point x="1690" y="448" type="line"/>
      <point x="242" y="448" type="line"/>
    </contour>
    <contour>
      <point x="242" y="910" type="line"/>
      <point x="1690" y="910" type="line"/>
      <point x="1690" y="1275" type="line"/>
      <point x="242" y="1275" type="line"/>
    </contour>
    <contour>
      <point x="765" y="586" type="line"/>
      <point x="1168" y="586" type="line"/>
      <point x="1168" y="1600" type="line"/>
      <point x="765" y="1600" type="line"/>
    </contour>
  </outline>
</glyph>
<glyph name="two.sups" format="2">
  <advance width="1197"/>
  <unicode hex="00B2"/>
  <outline>
    <contour>
      <point x="118" y="1024" type="line"/>
      <point x="1112" y="1024" type="line"/>
      <point x="1112" y="1299" type="line"/>
      <point x="602" y="1299" type="line"/>
      <point x="602" y="1310" type="line"/>
      <point x="754" y="1410" type="line" smooth="yes"/>
      <point x="996" y="1558"/>
      <point x="1105" y="1692"/>
      <point x="1105" y="1872" type="curve" smooth="yes"/>
      <point x="1105" y="2093"/>
      <point x="909" y="2268"/>
      <point x="600" y="2268" type="curve" smooth="yes"/>
      <point x="301" y="2268"/>
      <point x="87" y="2113"/>
      <point x="87" y="1846" type="curve"/>
      <point x="410" y="1846" type="line"/>
      <point x="410" y="1951"/>
      <point x="484" y="2003"/>
      <point x="596" y="2003" type="curve" smooth="yes"/>
      <point x="700" y="2003"/>
      <point x="785" y="1956"/>
      <point x="785" y="1868" type="curve" smooth="yes"/>
      <point x="785" y="1780"/>
      <point x="713" y="1726"/>
      <point x="611" y="1647" type="curve" smooth="yes"/>
      <point x="118" y="1266" type="line"/>
    </contour>
  </outline>
</glyph>
<glyph name="three.sups" format="2">
  <advance width="1257"/>
  <unicode hex="00B3"/>
  <outline>
    <contour>
      <point x="623" y="1008" type="curve" smooth="yes"/>
      <point x="940" y="1008"/>
      <point x="1173" y="1160"/>
      <point x="1173" y="1380" type="curve" smooth="yes"/>
      <point x="1173" y="1538"/>
      <point x="1058" y="1638"/>
      <point x="866" y="1653" type="curve"/>
      <point x="866" y="1664" type="line"/>
      <point x="1003" y="1682"/>
      <point x="1118" y="1768"/>
      <point x="1118" y="1912" type="curve" smooth="yes"/>
      <point x="1118" y="2108"/>
      <point x="926" y="2268"/>
      <point x="630" y="2268" type="curve" smooth="yes"/>
      <point x="339" y="2268"/>
      <point x="114" y="2118"/>
      <point x="110" y="1899" type="curve"/>
      <point x="433" y="1899" type="line"/>
      <point x="437" y="1960"/>
      <point x="520" y="2003"/>
      <point x="627" y="2003" type="curve" smooth="yes"/>
      <point x="725" y="2003"/>
      <point x="791" y="1959"/>
      <point x="791" y="1890" type="curve" smooth="yes"/>
      <point x="791" y="1823"/>
      <point x="718" y="1774"/>
      <point x="602" y="1774" type="curve" smooth="yes"/>
      <point x="447" y="1774" type="line"/>
      <point x="447" y="1524" type="line"/>
      <point x="602" y="1524" type="line" smooth="yes"/>
      <point x="740" y="1524"/>
      <point x="821" y="1473"/>
      <point x="821" y="1402" type="curve" smooth="yes"/>
      <point x="821" y="1326"/>
      <point x="731" y="1287"/>
      <point x="623" y="1287" type="curve" smooth="yes"/>
      <point x="517" y="1287"/>
      <point x="434" y="1321"/>
      <point x="426" y="1384" type="curve"/>
      <point x="82" y="1384" type="line"/>
      <point x="89" y="1159"/>
      <point x="312" y="1008"/>
    </contour>
  </outline>
</glyph>
<glyph name="acute" format="2">
  <advance width="1400"/>
  <unicode hex="00B4"/>
  <outline>
    <contour>
      <point x="525" y="1731" type="line"/>
      <point x="858" y="1731" type="line"/>
      <point x="1160" y="2182" type="line"/>
      <point x="727" y="2182" type="line"/>
    </contour>
  </outline>
</glyph>
<glyph name="micro" format="2">
  <advance width="1918"/>
  <unicode hex="00B5"/>
  <outline>
    <contour>
      <point x="155" y="-550" type="line"/>
      <point x="622" y="-550" type="line"/>
      <point x="622" y="215" type="line"/>
      <point x="634" y="215" type="line"/>
      <point x="688" y="92"/>
      <point x="811" y="18"/>
      <point x="959" y="18" type="curve" smooth="yes"/>
      <point x="1107" y="18"/>
      <point x="1231" y="92"/>
      <point x="1285" y="215" type="curve"/>
      <point x="1297" y="215" type="line"/>
      <point x="1297" y="0" type="line"/>
      <point x="1763" y="0" type="line"/>
      <point x="1763" y="1536" type="line"/>
      <point x="1274" y="1536" type="line"/>
      <point x="1274" y="663" type="line" smooth="yes"/>
      <point x="1275" y="499"/>
      <point x="1146" y="384"/>
      <point x="959" y="384" type="curve" smooth="yes"/>
      <point x="774" y="384"/>
      <point x="645" y="499"/>
      <point x="644" y="663" type="curve" smooth="yes"/>
      <point x="644" y="1536" type="line"/>
      <point x="155" y="1536" type="line"/>
    </contour>
  </outline>
</glyph>
<glyph name="paragraph" format="2">
  <advance width="1726"/>
  <unicode hex="00B6"/>
  <note>
aka PILCROW SIGN
</note>
  <outline>
    <contour>
      <point x="1322" y="1684" type="line"/>
      <point x="1322" y="2048" type="line"/>
      <point x="834" y="2048" type="line" smooth="yes"/>
      <point x="379" y="2048"/>
      <point x="133" y="1772"/>
      <point x="133" y="1404" type="curve" smooth="yes"/>
      <point x="133" y="1032"/>
      <point x="379" y="760"/>
      <point x="834" y="760" type="curve" smooth="yes"/>
      <point x="954" y="760" type="line"/>
      <point x="954" y="1684" type="line"/>
    </contour>
    <contour>
      <point x="1202" y="0" type="line"/>
      <point x="1571" y="0" type="line"/>
      <point x="1571" y="2048" type="line"/>
      <point x="1202" y="2048" type="line"/>
    </contour>
  </outline>
</glyph>
<glyph name="cedilla" format="2">
  <advance width="1155"/>
  <unicode hex="00B8"/>
  <outline>
    <contour>
      <point x="482" y="8" type="line"/>
      <point x="435" y="-198" type="line"/>
      <point x="569" y="-216"/>
      <point x="633" y="-260"/>
      <point x="629" y="-338" type="curve" smooth="yes"/>
      <point x="625" y="-422"/>
      <point x="522" y="-463"/>
      <point x="339" y="-463" type="curve"/>
      <point x="341" y="-664" type="line"/>
      <point x="696" y="-664"/>
      <point x="906" y="-534"/>
      <point x="905" y="-327" type="curve" smooth="yes"/>
      <point x="904" y="-192"/>
      <point x="809" y="-104"/>
      <point x="662" y="-82" type="curve"/>
      <point x="678" y="8" type="line"/>
    </contour>
  </outline>
</glyph>
<glyph name="one.sups" format="2">
  <advance width="909"/>
  <unicode hex="00B9"/>
  <outline>
    <contour>
      <point x="711" y="2252" type="line"/>
      <point x="389" y="2252" type="line"/>
      <point x="384" y="2158"/>
      <point x="269" y="2046"/>
      <point x="89" y="2048" type="curve"/>
      <point x="89" y="1780" type="line"/>
      <point x="245" y="1777"/>
      <point x="338" y="1806"/>
      <point x="369" y="1849" type="curve"/>
      <point x="381" y="1849" type="line"/>
      <point x="381" y="1024" type="line"/>
      <point x="711" y="1024" type="line"/>
    </contour>
  </outline>
</glyph>
<glyph name="ordmasculine" format="2">
  <advance width="1398"/>
  <unicode hex="00BA"/>
  <outline>
    <contour>
      <point x="204" y="1436" type="line"/>
      <point x="204" y="1152"/>
      <point x="394" y="949"/>
      <point x="703" y="949" type="curve" smooth="yes"/>
      <point x="1008" y="949"/>
      <point x="1194" y="1152"/>
      <point x="1194" y="1436" type="curve"/>
      <point x="1194" y="1541" type="line"/>
      <point x="1194" y="1828"/>
      <point x="1005" y="2032"/>
      <point x="699" y="2032" type="curve" smooth="yes"/>
      <point x="398" y="2032"/>
      <point x="204" y="1828"/>
      <point x="204" y="1541" type="curve"/>
    </contour>
    <contour>
      <point x="454" y="1541" type="line"/>
      <point x="454" y="1701"/>
      <point x="537" y="1828"/>
      <point x="699" y="1828" type="curve" smooth="yes"/>
      <point x="866" y="1828"/>
      <point x="945" y="1701"/>
      <point x="945" y="1541" type="curve"/>
      <point x="945" y="1436" type="line"/>
      <point x="945" y="1272"/>
      <point x="866" y="1152"/>
      <point x="703" y="1152" type="curve" smooth="yes"/>
      <point x="537" y="1152"/>
      <point x="454" y="1272"/>
      <point x="454" y="1436" type="curve"/>
    </contour>
  </outline>
</glyph>
<glyph name="AE" format="2">
  <advance width="2938"/>
  <unicode hex="00C6"/>
  <outline>
    <contour>
      <point x="66" y="0" type="line"/>
      <point x="610" y="0" type="line"/>
      <point x="1214" y="1553" type="line"/>
      <point x="1355" y="1553" type="line"/>
      <point x="1355" y="0" type="line"/>
      <point x="2783" y="0" type="line"/>
      <point x="2783" y="402" type="line"/>
      <point x="1850" y="402" type="line"/>
      <point x="1850" y="823" type="line"/>
      <point x="2710" y="823" type="line"/>
      <point x="2710" y="1226" type="line"/>
      <point x="1850" y="1226" type="line"/>
      <point x="1850" y="1646" type="line"/>
      <point x="2783" y="1646" type="line"/>
      <point x="2783" y="2048" type="line"/>
      <point x="904" y="2048" type="line"/>
    </contour>
    <contour>
      <point x="546" y="430" type="line"/>
      <point x="1642" y="430" type="line"/>
      <point x="1642" y="806" type="line"/>
      <point x="546" y="806" type="line"/>
    </contour>
  </outline>
</glyph>
<glyph name="multiply" format="2">
  <advance width="1933"/>
  <unicode hex="00D7"/>
  <guideline x="380" y="826" angle="0.0"/>
  <outline>
    <contour>
      <point x="1426" y="67" type="line"/>
      <point x="1725" y="366" type="line"/>
      <point x="507" y="1584" type="line"/>
      <point x="208" y="1282" type="line"/>
    </contour>
    <contour>
      <point x="507" y="67" type="line"/>
      <point x="1725" y="1282" type="line"/>
      <point x="1426" y="1584" type="line"/>
      <point x="208" y="366" type="line"/>
    </contour>
  </outline>
</glyph>
<glyph name="Oslash" format="2">
  <advance width="2221"/>
  <unicode hex="00D8"/>
  <outline>
    <contour>
      <point x="474" y="-103" type="line"/>
      <point x="1955" y="2005" type="line"/>
      <point x="1746" y="2147" type="line"/>
      <point x="264" y="39" type="line"/>
    </contour>
    <component base="O"/>
  </outline>
</glyph>
<glyph name="Thorn" format="2">
  <advance width="1926"/>
  <unicode hex="00DE"/>
  <outline>
    <contour>
      <point x="155" y="2048" type="line"/>
      <point x="155" y="0" type="line"/>
      <point x="650" y="0" type="line"/>
      <point x="650" y="2048" type="line"/>
    </contour>
    <contour>
      <point x="383" y="1688" type="line"/>
      <point x="383" y="1314" type="line"/>
      <point x="918" y="1314" type="line" smooth="yes"/>
      <point x="1150" y="1314"/>
      <point x="1239" y="1181"/>
      <point x="1239" y="1045" type="curve" smooth="yes"/>
      <point x="1239" y="912"/>
      <point x="1150" y="783"/>
      <point x="918" y="783" type="curve" smooth="yes"/>
      <point x="383" y="783" type="line"/>
      <point x="383" y="413" type="line"/>
      <point x="918" y="413" type="line" smooth="yes"/>
      <point x="1430" y="413"/>
      <point x="1712" y="677"/>
      <point x="1712" y="1049" type="curve" smooth="yes"/>
      <point x="1712" y="1421"/>
      <point x="1430" y="1688"/>
      <point x="918" y="1688" type="curve" smooth="yes"/>
    </contour>
  </outline>
</glyph>
<glyph name="germandbls" format="2">
  <advance width="1921"/>
  <unicode hex="00DF"/>
  <outline>
    <contour>
      <point x="155" y="0" type="line"/>
      <point x="644" y="0" type="line"/>
      <point x="644" y="1418" type="line" smooth="yes"/>
      <point x="644" y="1575"/>
      <point x="750" y="1674"/>
      <point x="914" y="1674" type="curve" smooth="yes"/>
      <point x="1077" y="1674"/>
      <point x="1173" y="1578"/>
      <point x="1171" y="1442" type="curve" smooth="yes"/>
      <point x="1170" y="1317"/>
      <point x="1088" y="1219"/>
      <point x="962" y="1219" type="curve" smooth="yes"/>
      <point x="862" y="1219" type="line"/>
      <point x="862" y="851" type="line"/>
      <point x="1014" y="851" type="line" smooth="yes"/>
      <point x="1204" y="851"/>
      <point x="1322" y="762"/>
      <point x="1323" y="618" type="curve" smooth="yes"/>
      <point x="1325" y="479"/>
      <point x="1215" y="390"/>
      <point x="1047" y="390" type="curve" smooth="yes"/>
      <point x="854" y="390" type="line"/>
      <point x="854" y="0" type="line"/>
      <point x="1139" y="0" type="line" smooth="yes"/>
      <point x="1538" y="0"/>
      <point x="1816" y="194"/>
      <point x="1818" y="564" type="curve" smooth="yes"/>
      <point x="1820" y="852"/>
      <point x="1655" y="1064"/>
      <point x="1387" y="1080" type="curve"/>
      <point x="1387" y="1103" type="line"/>
      <point x="1567" y="1150"/>
      <point x="1673" y="1308"/>
      <point x="1673" y="1513" type="curve" smooth="yes"/>
      <point x="1673" y="1890"/>
      <point x="1315" y="2076"/>
      <point x="898" y="2076" type="curve" smooth="yes"/>
      <point x="445" y="2076"/>
      <point x="155" y="1860"/>
      <point x="155" y="1502" type="curve" smooth="yes"/>
    </contour>
  </outline>
</glyph>
<glyph name="ae" format="2">
  <advance width="2562"/>
  <unicode hex="00E6"/>
  <outline>
    <contour>
      <point x="1773" y="-29" type="curve" smooth="yes"/>
      <point x="2134" y="-29"/>
      <point x="2406" y="166"/>
      <point x="2462" y="468" type="curve"/>
      <point x="2013" y="481" type="line"/>
      <point x="1975" y="379"/>
      <point x="1875" y="324"/>
      <point x="1747" y="324" type="curve" smooth="yes"/>
      <point x="1559" y="324"/>
      <point x="1443" y="449"/>
      <point x="1443" y="637" type="curve" smooth="yes"/>
      <point x="1443" y="926" type="line" smooth="yes"/>
      <point x="1446" y="1082"/>
      <point x="1567" y="1203"/>
      <point x="1733" y="1203" type="curve" smooth="yes"/>
      <point x="1893" y="1203"/>
      <point x="2009" y="1091"/>
      <point x="2012" y="934" type="curve"/>
      <point x="1174" y="934" type="line"/>
      <point x="1174" y="650" type="line"/>
      <point x="2466" y="650" type="line"/>
      <point x="2466" y="772" type="line" smooth="yes"/>
      <point x="2466" y="1278"/>
      <point x="2158" y="1556"/>
      <point x="1723" y="1556" type="curve" smooth="yes"/>
      <point x="1481" y="1556"/>
      <point x="1294" y="1467"/>
      <point x="1159" y="1248" type="curve"/>
      <point x="1192" y="298" type="line"/>
      <point x="1279" y="82"/>
      <point x="1506" y="-29"/>
    </contour>
    <contour>
      <point x="739" y="294" type="curve" smooth="yes"/>
      <point x="626" y="294"/>
      <point x="546" y="348"/>
      <point x="546" y="450" type="curve" smooth="yes"/>
      <point x="546" y="549"/>
      <point x="624" y="609"/>
      <point x="763" y="630" type="curve" smooth="yes"/>
      <point x="854" y="643"/>
      <point x="966" y="663"/>
      <point x="1021" y="692" type="curve"/>
      <point x="1021" y="546" type="line" smooth="yes"/>
      <point x="1021" y="396"/>
      <point x="895" y="294"/>
    </contour>
    <contour>
      <point x="620" y="-26" type="curve" smooth="yes"/>
      <point x="879" y="-26"/>
      <point x="1121" y="70"/>
      <point x="1210" y="242" type="curve"/>
      <point x="1239" y="242" type="line"/>
      <point x="1277" y="1326" type="line" smooth="yes"/>
      <point x="1204" y="1487"/>
      <point x="1032" y="1556"/>
      <point x="836" y="1556" type="curve" smooth="yes"/>
      <point x="409" y="1556"/>
      <point x="180" y="1348"/>
      <point x="140" y="1068" type="curve"/>
      <point x="591" y="1052" type="line"/>
      <point x="611" y="1151"/>
      <point x="694" y="1210"/>
      <point x="822" y="1210" type="curve" smooth="yes"/>
      <point x="942" y="1210"/>
      <point x="1018" y="1153"/>
      <point x="1018" y="1049" type="curve" smooth="yes"/>
      <point x="1018" y="1044" type="line" smooth="yes"/>
      <point x="1018" y="951"/>
      <point x="918" y="930"/>
      <point x="654" y="907" type="curve" smooth="yes"/>
      <point x="344" y="881"/>
      <point x="83" y="766"/>
      <point x="83" y="426" type="curve" smooth="yes"/>
      <point x="83" y="123"/>
      <point x="294" y="-26"/>
    </contour>
  </outline>
</glyph>
<glyph name="eth" format="2">
  <advance width="1603"/>
  <unicode hex="00F0"/>
  <outline>
    <contour>
      <point x="1261" y="1855" type="line"/>
      <point x="1129" y="2093" type="line"/>
      <point x="258" y="1642" type="line"/>
      <point x="390" y="1405" type="line"/>
    </contour>
    <contour>
      <point x="800" y="-32" type="curve" smooth="yes"/>
      <point x="1220" y="-32"/>
      <point x="1501" y="256"/>
      <point x="1501" y="752" type="curve" smooth="yes"/>
      <point x="1501" y="1449"/>
      <point x="1002" y="1944"/>
      <point x="534" y="2176" type="curve"/>
      <point x="318" y="1877" type="line"/>
      <point x="654" y="1687"/>
      <point x="796" y="1588"/>
      <point x="948" y="1356" type="curve"/>
      <point x="928" y="1356" type="line"/>
      <point x="841" y="1444"/>
      <point x="694" y="1443"/>
      <point x="577" y="1418" type="curve" smooth="yes"/>
      <point x="346" y="1357"/>
      <point x="102" y="1114"/>
      <point x="102" y="704" type="curve" smooth="yes"/>
      <point x="102" y="276"/>
      <point x="375" y="-32"/>
    </contour>
    <contour>
      <point x="822" y="340" type="curve" smooth="yes"/>
      <point x="668" y="340"/>
      <point x="566" y="442"/>
      <point x="566" y="707" type="curve" smooth="yes"/>
      <point x="566" y="976"/>
      <point x="671" y="1065"/>
      <point x="822" y="1065" type="curve" smooth="yes"/>
      <point x="972" y="1065"/>
      <point x="1081" y="983"/>
      <point x="1081" y="710" type="curve" smooth="yes"/>
      <point x="1081" y="449"/>
      <point x="980" y="340"/>
    </contour>
  </outline>
</glyph>
<glyph name="divide" format="2">
  <advance width="1933"/>
  <unicode hex="00F7"/>
  <guideline x="380" y="826" angle="0.0"/>
  <outline>
    <contour>
      <point x="1686" y="1014" type="line"/>
      <point x="246" y="1014" type="line"/>
      <point x="246" y="637" type="line"/>
      <point x="1686" y="637" type="line"/>
    </contour>
    <contour>
      <point x="966" y="-5" type="curve" smooth="yes"/>
      <point x="1109" y="-5"/>
      <point x="1226" y="112"/>
      <point x="1226" y="258" type="curve" smooth="yes"/>
      <point x="1226" y="401"/>
      <point x="1109" y="518"/>
      <point x="966" y="518" type="curve" smooth="yes"/>
      <point x="820" y="518"/>
      <point x="703" y="401"/>
      <point x="703" y="258" type="curve" smooth="yes"/>
      <point x="703" y="112"/>
      <point x="820" y="-5"/>
    </contour>
    <contour>
      <point x="966" y="1134" type="curve" smooth="yes"/>
      <point x="1110" y="1134"/>
      <point x="1226" y="1252"/>
      <point x="1226" y="1397" type="curve" smooth="yes"/>
      <point x="1226" y="1541"/>
      <point x="1110" y="1656"/>
      <point x="966" y="1656" type="curve" smooth="yes"/>
      <point x="822" y="1656"/>
      <point x="703" y="1541"/>
      <point x="703" y="1397" type="curve" smooth="yes"/>
      <point x="703" y="1252"/>
      <point x="822" y="1134"/>
    </contour>
  </outline>
</glyph>
<glyph name="oslash" format="2">
  <advance width="1750"/>
  <unicode hex="00F8"/>
  <outline>
    <contour>
      <point x="418" y="-103" type="line"/>
      <point x="1535" y="1485" type="line"/>
      <point x="1322" y="1627" type="line"/>
      <point x="209" y="39" type="line"/>
    </contour>
    <component base="o" yOffset="-3"/>
  </outline>
</glyph>
<glyph name="thorn" format="2">
  <advance width="1729"/>
  <unicode hex="00FE"/>
  <outline>
    <contour>
      <point x="155" y="2048" type="line"/>
      <point x="155" y="-576" type="line"/>
      <point x="644" y="-576" type="line"/>
      <point x="644" y="307" type="line"/>
      <point x="466" y="739" type="line"/>
      <point x="644" y="1284" type="line"/>
      <point x="644" y="2048" type="line"/>
    </contour>
    <contour>
      <point x="449" y="1382" type="line"/>
      <point x="449" y="146" type="line"/>
      <point x="661" y="146" type="line"/>
      <point x="717" y="27"/>
      <point x="852" y="-22"/>
      <point x="1013" y="-22" type="curve" smooth="yes"/>
      <point x="1346" y="-22"/>
      <point x="1627" y="241"/>
      <point x="1626" y="767" type="curve" smooth="yes"/>
      <point x="1627" y="1309"/>
      <point x="1330" y="1556"/>
      <point x="1015" y="1556" type="curve" smooth="yes"/>
      <point x="844" y="1556"/>
      <point x="714" y="1497"/>
      <point x="661" y="1382" type="curve"/>
    </contour>
    <contour>
      <point x="1166" y="768" type="curve" smooth="yes"/>
      <point x="1167" y="507"/>
      <point x="1066" y="359"/>
      <point x="866" y="359" type="curve" smooth="yes"/>
      <point x="646" y="359"/>
      <point x="590" y="551"/>
      <point x="589" y="768" type="curve" smooth="yes"/>
      <point x="590" y="990"/>
      <point x="652" y="1174"/>
      <point x="866" y="1174" type="curve" smooth="yes"/>
      <point x="1067" y="1174"/>
      <point x="1167" y="1028"/>
    </contour>
  </outline>
</glyph>
<glyph name="idotless" format="2">
  <advance width="799"/>
  <unicode hex="0131"/>
  <outline>
    <contour>
      <point x="155" y="0" type="line"/>
      <point x="644" y="0" type="line"/>
      <point x="644" y="1536" type="line"/>
      <point x="155" y="1536" type="line"/>
    </contour>
  </outline>
</glyph>
<glyph name="kgreenlandic" format="2">
  <advance width="1926"/>
  <unicode hex="0138"/>
  <outline>
    <contour>
      <point x="660" y="1488" type="line"/>
      <point x="189" y="1488" type="line"/>
      <point x="189" y="0" type="line"/>
      <point x="660" y="0" type="line"/>
    </contour>
    <contour>
      <point x="1722" y="1488" type="line"/>
      <point x="1125" y="1488" type="line"/>
      <point x="788" y="963" type="line"/>
      <point x="540" y="963" type="line"/>
      <point x="594" y="506" type="line"/>
      <point x="1034" y="506" type="line"/>
    </contour>
    <contour>
      <point x="1137" y="0" type="line"/>
      <point x="1738" y="0" type="line"/>
      <point x="1211" y="794" type="line"/>
      <point x="786" y="601" type="line"/>
    </contour>
  </outline>
</glyph>
<glyph name="Lslash" format="2">
  <advance width="1670"/>
  <unicode hex="0141"/>
  <outline>
    <contour>
      <point x="1000" y="1338" type="line"/>
      <point x="34" y="1078" type="line"/>
      <point x="34" y="825" type="line"/>
      <point x="1000" y="1081" type="line"/>
    </contour>
    <component base="L" xOffset="115"/>
  </outline>
</glyph>
<glyph name="lslash" format="2">
  <advance width="799"/>
  <unicode hex="0142"/>
  <outline>
    <contour>
      <point x="826" y="1350" type="line"/>
      <point x="-26" y="1091" type="line"/>
      <point x="-26" y="835" type="line"/>
      <point x="826" y="1094" type="line"/>
    </contour>
    <component base="l"/>
  </outline>
</glyph>
<glyph name="Eng" format="2">
  <advance width="2053"/>
  <unicode hex="014A"/>
  <outline>
    <contour>
      <point x="1478" y="0" type="line"/>
      <point x="1478" y="-64" type="line" smooth="yes"/>
      <point x="1478" y="-186"/>
      <point x="1386" y="-250"/>
      <point x="1241" y="-250" type="curve" smooth="yes"/>
      <point x="1180" y="-250"/>
      <point x="1115" y="-242"/>
      <point x="1069" y="-232" type="curve"/>
      <point x="1069" y="-593" type="line"/>
      <point x="1119" y="-609"/>
      <point x="1181" y="-618"/>
      <point x="1230" y="-618" type="curve" smooth="yes"/>
      <point x="1639" y="-618"/>
      <point x="1898" y="-486"/>
      <point x="1898" y="-55" type="curve" smooth="yes"/>
      <point x="1898" y="0" type="line"/>
    </contour>
    <component base="N"/>
  </outline>
</glyph>
<glyph name="eng" format="2">
  <advance width="1821"/>
  <unicode hex="014B"/>
  <outline>
    <contour>
      <point x="1148" y="0" type="line"/>
      <point x="1148" y="-58" type="line" smooth="yes"/>
      <point x="1148" y="-159"/>
      <point x="1088" y="-206"/>
      <point x="978" y="-206" type="curve" smooth="yes"/>
      <point x="922" y="-206"/>
      <point x="878" y="-198"/>
      <point x="835" y="-188" type="curve"/>
      <point x="797" y="-583" type="line"/>
      <point x="878" y="-598"/>
      <point x="956" y="-602"/>
      <point x="1038" y="-602" type="curve" smooth="yes"/>
      <point x="1401" y="-602"/>
      <point x="1637" y="-422"/>
      <point x="1637" y="-58" type="curve" smooth="yes"/>
      <point x="1637" y="0" type="line"/>
    </contour>
    <component base="n"/>
  </outline>
</glyph>
<glyph name="OE" format="2">
  <advance width="2927"/>
  <unicode hex="0152"/>
  <note>
!post:RemoveOverlap
</note>
  <outline>
    <contour>
      <point x="1072" y="0" type="curve" smooth="yes"/>
      <point x="1530" y="0" type="line"/>
      <point x="1530" y="402" type="line"/>
      <point x="1072" y="402" type="line" smooth="yes"/>
      <point x="816" y="402"/>
      <point x="631" y="563"/>
      <point x="632" y="1021" type="curve" smooth="yes"/>
      <point x="631" y="1476"/>
      <point x="816" y="1646"/>
      <point x="1072" y="1646" type="curve" smooth="yes"/>
      <point x="1530" y="1646" type="line"/>
      <point x="1530" y="2048" type="line"/>
      <point x="1072" y="2048" type="line" smooth="yes"/>
      <point x="541" y="2048"/>
      <point x="132" y="1704"/>
      <point x="133" y="1021" type="curve" smooth="yes"/>
      <point x="132" y="342"/>
      <point x="541" y="0"/>
    </contour>
    <component base="E" xOffset="1189"/>
  </outline>
</glyph>
<glyph name="tbar" format="2">
  <advance width="1117"/>
  <unicode hex="0167"/>
  <outline>
    <contour>
      <point x="53" y="747" type="line"/>
      <point x="1022" y="747" type="line"/>
      <point x="1022" y="957" type="line"/>
      <point x="53" y="957" type="line"/>
    </contour>
    <component base="t"/>
  </outline>
</glyph>
<glyph name="longs" format="2">
  <advance width="835"/>
  <unicode hex="017F"/>
  <outline>
    <contour>
      <point x="470" y="0" type="line"/>
      <point x="470" y="1605" type="line"/>
      <point x="469" y="1714"/>
      <point x="537" y="1766"/>
      <point x="662" y="1766" type="curve" smooth="yes"/>
      <point x="729" y="1766"/>
      <point x="759" y="1762"/>
      <point x="805" y="1754" type="curve"/>
      <point x="837" y="2112" type="line"/>
      <point x="756" y="2128"/>
      <point x="678" y="2140"/>
      <point x="602" y="2140" type="curve" smooth="yes"/>
      <point x="219" y="2140"/>
      <point x="-2" y="1954"/>
      <point x="-2" y="1605" type="curve"/>
      <point x="-2" y="0" type="line"/>
    </contour>
  </outline>
</glyph>
<glyph name="Bhook" format="2">
  <advance width="2500"/>
  <unicode hex="0181"/>
  <outline>
    <contour>
      <point x="1064" y="1649" type="line"/>
      <point x="1064" y="2048" type="line"/>
      <point x="733" y="2048" type="line" smooth="yes"/>
      <point x="336" y="2048"/>
      <point x="86" y="1835"/>
      <point x="88" y="1480" type="curve" smooth="yes"/>
      <point x="88" y="1258" type="line"/>
      <point x="525" y="1258" type="line"/>
      <point x="525" y="1391" type="line" smooth="yes"/>
      <point x="523" y="1513"/>
      <point x="566" y="1649"/>
      <point x="734" y="1649" type="curve" smooth="yes"/>
    </contour>
    <component base="B" xOffset="630"/>
  </outline>
</glyph>
<glyph name="Tonesix" format="2">
  <advance width="2274"/>
  <unicode hex="0184"/>
  <outline>
    <contour>
      <point x="935" y="2048" type="line"/>
      <point x="38" y="2048" type="line"/>
      <point x="38" y="1646" type="line"/>
      <point x="935" y="1646" type="line"/>
    </contour>
    <contour>
      <point x="846" y="1326" type="line"/>
      <point x="846" y="942" type="line"/>
      <point x="1302" y="942" type="line"/>
      <point x="1518" y="942"/>
      <point x="1635" y="826"/>
      <point x="1635" y="675" type="curve"/>
      <point x="1635" y="517"/>
      <point x="1518" y="392"/>
      <point x="1302" y="392" type="curve"/>
      <point x="1031" y="392" type="line"/>
      <point x="1031" y="2048" type="line"/>
      <point x="537" y="2048" type="line"/>
      <point x="537" y="0" type="line"/>
      <point x="1302" y="0" type="line"/>
      <point x="1802" y="0"/>
      <point x="2126" y="274"/>
      <point x="2126" y="671" type="curve"/>
      <point x="2126" y="1069"/>
      <point x="1802" y="1326"/>
      <point x="1302" y="1326" type="curve"/>
    </contour>
  </outline>
</glyph>
<glyph name="tonesix" format="2">
  <advance width="1917"/>
  <unicode hex="0185"/>
  <outline>
    <contour>
      <point x="386" y="2112" type="line"/>
      <point x="110" y="1890" type="line"/>
      <point x="110" y="1656" type="line"/>
      <point x="386" y="1440" type="line"/>
      <point x="459" y="1440" type="line"/>
      <point x="459" y="2112" type="line"/>
    </contour>
    <contour>
      <point x="667" y="1382" type="line"/>
      <point x="667" y="146" type="line"/>
      <point x="879" y="146" type="line"/>
      <point x="930" y="30"/>
      <point x="1058" y="-22"/>
      <point x="1231" y="-22" type="curve" smooth="yes"/>
      <point x="1562" y="-22"/>
      <point x="1843" y="241"/>
      <point x="1845" y="767" type="curve" smooth="yes"/>
      <point x="1843" y="1309"/>
      <point x="1546" y="1556"/>
      <point x="1230" y="1556" type="curve" smooth="yes"/>
      <point x="1082" y="1556"/>
      <point x="933" y="1506"/>
      <point x="879" y="1382" type="curve"/>
    </contour>
    <contour>
      <point x="1385" y="768" type="curve" smooth="yes"/>
      <point x="1383" y="510"/>
      <point x="1282" y="359"/>
      <point x="1084" y="359" type="curve" smooth="yes"/>
      <point x="862" y="359"/>
      <point x="806" y="551"/>
      <point x="807" y="768" type="curve" smooth="yes"/>
      <point x="806" y="987"/>
      <point x="865" y="1174"/>
      <point x="1084" y="1174" type="curve" smooth="yes"/>
      <point x="1283" y="1174"/>
      <point x="1383" y="1025"/>
    </contour>
    <contour>
      <point x="374" y="2048" type="line"/>
      <point x="374" y="0" type="line"/>
      <point x="858" y="0" type="line"/>
      <point x="858" y="307" type="line"/>
      <point x="683" y="739" type="line"/>
      <point x="862" y="1284" type="line"/>
      <point x="862" y="2048" type="line"/>
    </contour>
  </outline>
</glyph>
<glyph name="Oopen" format="2">
  <advance width="2141"/>
  <unicode hex="0186"/>
  <outline>
    <contour>
      <point x="1037" y="-28" type="curve" smooth="yes"/>
      <point x="1593" y="-28"/>
      <point x="2008" y="350"/>
      <point x="2008" y="1024" type="curve"/>
      <point x="2008" y="1701"/>
      <point x="1583" y="2076"/>
      <point x="1037" y="2076" type="curve" smooth="yes"/>
      <point x="542" y="2076"/>
      <point x="177" y="1796"/>
      <point x="126" y="1306" type="curve"/>
      <point x="627" y="1306" type="line"/>
      <point x="652" y="1513"/>
      <point x="797" y="1642"/>
      <point x="1024" y="1642" type="curve" smooth="yes"/>
      <point x="1322" y="1642"/>
      <point x="1502" y="1415"/>
      <point x="1502" y="1024" type="curve"/>
      <point x="1502" y="617"/>
      <point x="1319" y="406"/>
      <point x="1027" y="406" type="curve" smooth="yes"/>
      <point x="810" y="406"/>
      <point x="662" y="522"/>
      <point x="627" y="720" type="curve"/>
      <point x="126" y="717" type="line"/>
      <point x="164" y="354"/>
      <point x="474" y="-28"/>
    </contour>
  </outline>
</glyph>
<glyph name="Chook" format="2">
  <advance width="2422"/>
  <unicode hex="0187"/>
  <outline>
    <contour>
      <point x="2014" y="1306" type="line"/>
      <point x="2014" y="1450" type="line" smooth="yes"/>
      <point x="2014" y="1654"/>
      <point x="2181" y="1722"/>
      <point x="2309" y="1722" type="curve"/>
      <point x="2343" y="1722"/>
      <point x="2410" y="1718"/>
      <point x="2446" y="1717" type="curve"/>
      <point x="2446" y="2109" type="line"/>
      <point x="2362" y="2121"/>
      <point x="2297" y="2121"/>
      <point x="2220" y="2121" type="curve" smooth="yes"/>
      <point x="1858" y="2121"/>
      <point x="1538" y="1912"/>
      <point x="1538" y="1523" type="curve" smooth="yes"/>
      <point x="1538" y="1306" type="line"/>
    </contour>
    <component base="C"/>
  </outline>
</glyph>
<glyph name="chook" format="2">
  <advance width="1842"/>
  <unicode hex="0188"/>
  <outline>
    <contour>
      <point x="1591" y="932" type="line"/>
      <point x="1591" y="1174" type="line" smooth="yes"/>
      <point x="1591" y="1308"/>
      <point x="1640" y="1362"/>
      <point x="1758" y="1362" type="curve" smooth="yes"/>
      <point x="1799" y="1362"/>
      <point x="1834" y="1355"/>
      <point x="1872" y="1351" type="curve"/>
      <point x="1872" y="1657" type="line"/>
      <point x="1805" y="1675"/>
      <point x="1743" y="1685"/>
      <point x="1682" y="1685" type="curve" smooth="yes"/>
      <point x="1375" y="1685"/>
      <point x="1144" y="1502"/>
      <point x="1144" y="1177" type="curve" smooth="yes"/>
      <point x="1144" y="932" type="line"/>
    </contour>
    <component base="c"/>
  </outline>
</glyph>
<glyph name="Dtopbar" format="2">
  <advance width="1926"/>
  <unicode hex="018B"/>
  <outline>
    <contour>
      <point x="1759" y="0" type="line"/>
      <point x="1759" y="2052" type="line"/>
      <point x="361" y="2052" type="line"/>
      <point x="361" y="1657" type="line"/>
      <point x="1274" y="1657" type="line"/>
      <point x="1274" y="1327" type="line"/>
      <point x="995" y="1327" type="line" smooth="yes"/>
      <point x="494" y="1327"/>
      <point x="170" y="1066"/>
      <point x="170" y="671" type="curve" smooth="yes"/>
      <point x="170" y="277"/>
      <point x="494" y="0"/>
      <point x="995" y="0" type="curve" smooth="yes"/>
    </contour>
    <contour>
      <point x="1274" y="388" type="line"/>
      <point x="995" y="388" type="line" smooth="yes"/>
      <point x="775" y="388"/>
      <point x="657" y="517"/>
      <point x="657" y="675" type="curve" smooth="yes"/>
      <point x="657" y="826"/>
      <point x="775" y="942"/>
      <point x="995" y="942" type="curve" smooth="yes"/>
      <point x="1274" y="942" type="line"/>
    </contour>
  </outline>
</glyph>
<glyph name="deltaturn" format="2">
  <advance width="1952"/>
  <unicode hex="018D"/>
  <outline>
    <contour>
      <point x="1550" y="-516" type="line"/>
      <point x="1550" y="-282" type="line"/>
      <point x="1469" y="-200"/>
      <point x="1243" y="22"/>
      <point x="1128" y="113" type="curve"/>
      <point x="1148" y="113"/>
      <point x="1174" y="113"/>
      <point x="1179" y="114" type="curve" smooth="yes"/>
      <point x="1472" y="165"/>
      <point x="1722" y="428"/>
      <point x="1722" y="820" type="curve" smooth="yes"/>
      <point x="1722" y="848" type="line" smooth="yes"/>
      <point x="1722" y="1232"/>
      <point x="1455" y="1516"/>
      <point x="978" y="1516" type="curve" smooth="yes"/>
      <point x="497" y="1516"/>
      <point x="234" y="1203"/>
      <point x="234" y="784" type="curve" smooth="yes"/>
      <point x="234" y="756" type="line" smooth="yes"/>
      <point x="234" y="463"/>
      <point x="426" y="227"/>
      <point x="699" y="16" type="curve" smooth="yes"/>
      <point x="819" y="-75"/>
      <point x="900" y="-113"/>
      <point x="945" y="-144" type="curve"/>
      <point x="378" y="-144" type="line"/>
      <point x="378" y="-516" type="line"/>
    </contour>
    <contour>
      <point x="1254" y="756" type="line"/>
      <point x="1254" y="526"/>
      <point x="1184" y="342"/>
      <point x="976" y="342" type="curve" smooth="yes"/>
      <point x="954" y="342"/>
      <point x="934" y="343"/>
      <point x="914" y="352" type="curve"/>
      <point x="798" y="414"/>
      <point x="701" y="553"/>
      <point x="701" y="756" type="curve" smooth="yes"/>
      <point x="701" y="784" type="line" smooth="yes"/>
      <point x="701" y="974"/>
      <point x="760" y="1142"/>
      <point x="978" y="1142" type="curve" smooth="yes"/>
      <point x="1209" y="1142"/>
      <point x="1254" y="954"/>
      <point x="1254" y="784" type="curve" smooth="yes"/>
    </contour>
  </outline>
</glyph>
<glyph name="Schwa" format="2">
  <advance width="2192"/>
  <unicode hex="018F"/>
  <outline>
    <contour>
      <point x="1102" y="-28" type="curve" smooth="yes"/>
      <point x="1614" y="-28"/>
      <point x="2006" y="342"/>
      <point x="2005" y="873" type="curve" smooth="yes"/>
      <point x="2005" y="1123" type="line" smooth="yes"/>
      <point x="2006" y="1654"/>
      <point x="1659" y="2032"/>
      <point x="1000" y="2032" type="curve" smooth="yes"/>
      <point x="701" y="2032"/>
      <point x="386" y="1962"/>
      <point x="326" y="1935" type="curve"/>
      <point x="397" y="1526" type="line"/>
      <point x="510" y="1557"/>
      <point x="710" y="1598"/>
      <point x="971" y="1598" type="curve" smooth="yes"/>
      <point x="1390" y="1598"/>
      <point x="1519" y="1382"/>
      <point x="1518" y="1123" type="curve" smooth="yes"/>
      <point x="1518" y="873" type="line" smooth="yes"/>
      <point x="1519" y="612"/>
      <point x="1381" y="402"/>
      <point x="1102" y="402" type="curve" smooth="yes"/>
      <point x="794" y="402"/>
      <point x="674" y="548"/>
      <point x="674" y="737" type="curve" smooth="yes"/>
      <point x="674" y="778" type="line"/>
      <point x="1637" y="778" type="line"/>
      <point x="1637" y="1176" type="line"/>
      <point x="188" y="1176" type="line"/>
      <point x="188" y="924" type="line" smooth="yes"/>
      <point x="189" y="341"/>
      <point x="507" y="-28"/>
    </contour>
  </outline>
</glyph>
<glyph name="Epsilon1" format="2">
  <advance width="1926"/>
  <unicode hex="0190"/>
  <outline>
    <contour>
      <point x="1218" y="960" type="line"/>
      <point x="1218" y="1206" type="line"/>
      <point x="958" y="1206" type="line" smooth="yes"/>
      <point x="770" y="1206"/>
      <point x="677" y="1282"/>
      <point x="678" y="1445" type="curve" smooth="yes"/>
      <point x="677" y="1559"/>
      <point x="770" y="1640"/>
      <point x="978" y="1640" type="curve" smooth="yes"/>
      <point x="1138" y="1640"/>
      <point x="1250" y="1588"/>
      <point x="1252" y="1458" type="curve"/>
      <point x="1738" y="1458" type="line"/>
      <point x="1736" y="1814"/>
      <point x="1386" y="2032"/>
      <point x="978" y="2032" type="curve" smooth="yes"/>
      <point x="507" y="2032"/>
      <point x="188" y="1832"/>
      <point x="190" y="1460" type="curve" smooth="yes"/>
      <point x="188" y="1157"/>
      <point x="488" y="960"/>
      <point x="877" y="960" type="curve"/>
    </contour>
    <contour>
      <point x="877" y="1080" type="line"/>
      <point x="430" y="1080"/>
      <point x="156" y="896"/>
      <point x="158" y="560" type="curve" smooth="yes"/>
      <point x="156" y="159"/>
      <point x="493" y="-28"/>
      <point x="978" y="-28" type="curve" smooth="yes"/>
      <point x="1359" y="-28"/>
      <point x="1767" y="148"/>
      <point x="1769" y="556" type="curve"/>
      <point x="1280" y="556" type="line"/>
      <point x="1278" y="437"/>
      <point x="1166" y="360"/>
      <point x="978" y="360" type="curve" smooth="yes"/>
      <point x="786" y="360"/>
      <point x="646" y="418"/>
      <point x="647" y="575" type="curve" smooth="yes"/>
      <point x="646" y="781"/>
      <point x="765" y="838"/>
      <point x="958" y="838" type="curve" smooth="yes"/>
      <point x="1218" y="838" type="line"/>
      <point x="1218" y="1080" type="line"/>
    </contour>
  </outline>
</glyph>
<glyph name="Fhook" format="2">
  <advance width="1729"/>
  <unicode hex="0191"/>
  <outline>
    <contour>
      <point x="238" y="0" type="line"/>
      <point x="238" y="-70" type="line" smooth="yes"/>
      <point x="238" y="-176"/>
      <point x="135" y="-202"/>
      <point x="28" y="-202" type="curve" smooth="yes"/>
      <point x="5" y="-202"/>
      <point x="-33" y="-204"/>
      <point x="-61" y="-200" type="curve"/>
      <point x="-61" y="-567" type="line"/>
      <point x="-2" y="-576"/>
      <point x="100" y="-576"/>
      <point x="146" y="-576" type="curve" smooth="yes"/>
      <point x="440" y="-576"/>
      <point x="733" y="-511"/>
      <point x="733" y="-71" type="curve" smooth="yes"/>
      <point x="733" y="0" type="line"/>
    </contour>
    <component base="F" xOffset="83"/>
  </outline>
</glyph>
<glyph name="florin" format="2">
  <advance width="1398"/>
  <unicode hex="0192"/>
  <outline>
    <contour>
      <point x="1203" y="1488" type="line"/>
      <point x="898" y="1488" type="line"/>
      <point x="898" y="1605" type="line" smooth="yes"/>
      <point x="899" y="1714"/>
      <point x="974" y="1770"/>
      <point x="1090" y="1770" type="curve" smooth="yes"/>
      <point x="1162" y="1770"/>
      <point x="1198" y="1765"/>
      <point x="1238" y="1757" type="curve"/>
      <point x="1272" y="2114" type="line"/>
      <point x="1199" y="2127"/>
      <point x="1123" y="2140"/>
      <point x="1033" y="2140" type="curve" smooth="yes"/>
      <point x="655" y="2140"/>
      <point x="430" y="1954"/>
      <point x="429" y="1605" type="curve" smooth="yes"/>
      <point x="429" y="1488" type="line"/>
      <point x="203" y="1488" type="line"/>
      <point x="203" y="1153" type="line"/>
      <point x="429" y="1153" type="line"/>
      <point x="429" y="-38" type="line" smooth="yes"/>
      <point x="430" y="-153"/>
      <point x="408" y="-226"/>
      <point x="276" y="-226" type="curve" smooth="yes"/>
      <point x="238" y="-226"/>
      <point x="179" y="-219"/>
      <point x="146" y="-210" type="curve"/>
      <point x="126" y="-580" type="line"/>
      <point x="209" y="-596"/>
      <point x="276" y="-600"/>
      <point x="350" y="-600" type="curve" smooth="yes"/>
      <point x="695" y="-600"/>
      <point x="899" y="-403"/>
      <point x="898" y="-38" type="curve" smooth="yes"/>
      <point x="898" y="1153" type="line"/>
      <point x="1203" y="1153" type="line"/>
    </contour>
  </outline>
</glyph>
<glyph name="Ghook" format="2">
  <advance width="2406"/>
  <unicode hex="0193"/>
  <outline>
    <contour>
      <point x="1999" y="1379" type="line"/>
      <point x="1999" y="1723" type="line" smooth="yes"/>
      <point x="1999" y="1893"/>
      <point x="2134" y="1922"/>
      <point x="2278" y="1922" type="curve" smooth="yes"/>
      <point x="2322" y="1922"/>
      <point x="2366" y="1914"/>
      <point x="2411" y="1910" type="curve"/>
      <point x="2411" y="2296" type="line"/>
      <point x="2330" y="2314"/>
      <point x="2262" y="2324"/>
      <point x="2189" y="2324" type="curve" smooth="yes"/>
      <point x="1827" y="2324"/>
      <point x="1494" y="2112"/>
      <point x="1494" y="1723" type="curve" smooth="yes"/>
      <point x="1494" y="1379" type="line"/>
    </contour>
    <component base="G"/>
  </outline>
</glyph>
<glyph name="Gamma1" format="2">
  <advance width="2205"/>
  <unicode hex="0194"/>
  <outline>
    <contour>
      <point x="146" y="2000" type="line"/>
      <point x="1053" y="169" type="line" smooth="yes"/>
      <point x="1138" y="-4"/>
      <point x="1171" y="-93"/>
      <point x="1171" y="-173" type="curve" smooth="yes"/>
      <point x="1171" y="-222"/>
      <point x="1165" y="-274"/>
      <point x="1102" y="-274" type="curve" smooth="yes"/>
      <point x="1043" y="-274"/>
      <point x="1034" y="-229"/>
      <point x="1034" y="-173" type="curve" smooth="yes"/>
      <point x="1034" y="-86"/>
      <point x="1075" y="1"/>
      <point x="1156" y="169" type="curve" smooth="yes"/>
      <point x="2058" y="2000" type="line"/>
      <point x="1490" y="2000" type="line"/>
      <point x="967" y="785" type="line" smooth="yes"/>
      <point x="782" y="356"/>
      <point x="545" y="-59"/>
      <point x="545" y="-192" type="curve" smooth="yes"/>
      <point x="545" y="-490"/>
      <point x="816" y="-600"/>
      <point x="1102" y="-600" type="curve" smooth="yes"/>
      <point x="1389" y="-600"/>
      <point x="1644" y="-490"/>
      <point x="1644" y="-192" type="curve" smooth="yes"/>
      <point x="1644" y="-58"/>
      <point x="1427" y="362"/>
      <point x="1242" y="785" type="curve" smooth="yes"/>
      <point x="712" y="2000" type="line"/>
    </contour>
  </outline>
</glyph>
<glyph name="hv" format="2">
  <advance width="2802"/>
  <unicode hex="0195"/>
  <note>
Note: Must be split in two, or conversion to quadratic curves will fail.
</note>
  <outline>
    <contour>
      <point x="155" y="0" type="line"/>
      <point x="644" y="0" type="line"/>
      <point x="644" y="876" type="line" smooth="yes"/>
      <point x="645" y="1051"/>
      <point x="749" y="1155"/>
      <point x="904" y="1155" type="curve" smooth="yes"/>
      <point x="1061" y="1155"/>
      <point x="1151" y="1054"/>
      <point x="1151" y="883" type="curve" smooth="yes"/>
      <point x="1151" y="768" type="line"/>
      <point x="1640" y="768" type="line"/>
      <point x="1640" y="979" type="line" smooth="yes"/>
      <point x="1640" y="1327"/>
      <point x="1429" y="1556"/>
      <point x="1106" y="1556" type="curve" smooth="yes"/>
      <point x="876" y="1556"/>
      <point x="714" y="1443"/>
      <point x="645" y="1254" type="curve"/>
      <point x="628" y="1254" type="line"/>
      <point x="628" y="2048" type="line"/>
      <point x="155" y="2048" type="line"/>
    </contour>
    <contour>
      <point x="1807" y="-28" type="curve" smooth="yes"/>
      <point x="2408" y="-28"/>
      <point x="2646" y="446"/>
      <point x="2646" y="1379" type="curve"/>
      <point x="2646" y="1536" type="line"/>
      <point x="2158" y="1536" type="line"/>
      <point x="2158" y="1379" type="line" smooth="yes"/>
      <point x="2158" y="726"/>
      <point x="2057" y="372"/>
      <point x="1823" y="372" type="curve" smooth="yes"/>
      <point x="1722" y="372"/>
      <point x="1640" y="438"/>
      <point x="1640" y="595" type="curve"/>
      <point x="1640" y="768" type="line"/>
      <point x="1151" y="768" type="line"/>
      <point x="1151" y="595" type="line" smooth="yes"/>
      <point x="1151" y="214"/>
      <point x="1377" y="-28"/>
    </contour>
  </outline>
</glyph>
<glyph name="Iota1" format="2">
  <advance width="1123"/>
  <unicode hex="0196"/>
  <outline>
    <contour>
      <point x="614" y="2112" type="line"/>
      <point x="142" y="2112" type="line"/>
      <point x="142" y="507" type="line" smooth="yes"/>
      <point x="142" y="162"/>
      <point x="364" y="-28"/>
      <point x="746" y="-28" type="curve" smooth="yes"/>
      <point x="823" y="-28"/>
      <point x="901" y="-16"/>
      <point x="981" y="0" type="curve"/>
      <point x="949" y="362" type="line"/>
      <point x="907" y="354"/>
      <point x="877" y="349"/>
      <point x="806" y="349" type="curve" smooth="yes"/>
      <point x="682" y="349"/>
      <point x="614" y="402"/>
      <point x="614" y="507" type="curve" smooth="yes"/>
    </contour>
  </outline>
</glyph>
<glyph name="Khook" format="2">
  <advance width="2106"/>
  <unicode hex="0198"/>
  <outline>
    <contour>
      <point x="155" y="0" type="line"/>
      <point x="650" y="0" type="line"/>
      <point x="650" y="482" type="line"/>
      <point x="899" y="744" type="line"/>
      <point x="1464" y="0" type="line"/>
      <point x="2055" y="0" type="line"/>
      <point x="1214" y="1095" type="line"/>
      <point x="1664" y="1557" type="line" smooth="yes"/>
      <point x="1753" y="1648"/>
      <point x="1818" y="1689"/>
      <point x="1938" y="1630" type="curve"/>
      <point x="2089" y="1977" type="line"/>
      <point x="1800" y="2141"/>
      <point x="1530" y="2094"/>
      <point x="1303" y="1861" type="curve" smooth="yes"/>
      <point x="677" y="1211" type="line"/>
      <point x="650" y="1211" type="line"/>
      <point x="650" y="2048" type="line"/>
      <point x="155" y="2048" type="line"/>
    </contour>
  </outline>
</glyph>
<glyph name="khook" format="2">
  <advance width="1666"/>
  <unicode hex="0199"/>
  <outline>
    <contour>
      <point x="1141" y="0" type="line"/>
      <point x="1668" y="0" type="line"/>
      <point x="1070" y="880" type="line"/>
      <point x="1642" y="1536" type="line"/>
      <point x="1080" y="1536" type="line"/>
      <point x="664" y="1049" type="line"/>
      <point x="644" y="1049" type="line"/>
      <point x="644" y="1456" type="line"/>
      <point x="155" y="1456" type="line"/>
      <point x="155" y="0" type="line"/>
      <point x="644" y="0" type="line"/>
      <point x="644" y="383" type="line"/>
      <point x="780" y="532" type="line"/>
    </contour>
    <contour>
      <point x="644" y="1298" type="line"/>
      <point x="644" y="1571" type="line" smooth="yes"/>
      <point x="645" y="1677"/>
      <point x="754" y="1702"/>
      <point x="855" y="1702" type="curve" smooth="yes"/>
      <point x="894" y="1702"/>
      <point x="931" y="1698"/>
      <point x="970" y="1694" type="curve"/>
      <point x="970" y="2061" type="line"/>
      <point x="912" y="2066"/>
      <point x="828" y="2076"/>
      <point x="725" y="2076" type="curve" smooth="yes"/>
      <point x="454" y="2076"/>
      <point x="156" y="2011"/>
      <point x="155" y="1571" type="curve" smooth="yes"/>
      <point x="155" y="1298" type="line"/>
    </contour>
  </outline>
</glyph>
<glyph name="lambdabar" format="2">
  <advance width="1917"/>
  <unicode hex="019B"/>
  <outline>
    <contour>
      <point x="1146" y="1866" type="line"/>
      <point x="297" y="1612" type="line"/>
      <point x="297" y="1326" type="line"/>
      <point x="1146" y="1585" type="line"/>
    </contour>
    <contour>
      <point x="947" y="883" type="line"/>
      <point x="1035" y="1536" type="line"/>
      <point x="712" y="1535" type="line"/>
      <point x="149" y="0" type="line"/>
      <point x="651" y="0" type="line"/>
    </contour>
    <contour>
      <point x="577" y="2146" type="curve"/>
      <point x="510" y="2146"/>
      <point x="383" y="2134"/>
      <point x="310" y="2114" type="curve"/>
      <point x="322" y="1765" type="line"/>
      <point x="362" y="1769"/>
      <point x="388" y="1769"/>
      <point x="412" y="1769" type="curve" smooth="yes"/>
      <point x="517" y="1769"/>
      <point x="578" y="1728"/>
      <point x="610" y="1650" type="curve" smooth="yes"/>
      <point x="766" y="1309" type="line"/>
      <point x="1136" y="297" type="line" smooth="yes"/>
      <point x="1205" y="116"/>
      <point x="1341" y="-27"/>
      <point x="1596" y="-27" type="curve" smooth="yes"/>
      <point x="1667" y="-27"/>
      <point x="1724" y="-29"/>
      <point x="1768" y="-21" type="curve"/>
      <point x="1770" y="346" type="line"/>
      <point x="1759" y="346"/>
      <point x="1742" y="346"/>
      <point x="1722" y="346" type="curve" smooth="yes"/>
      <point x="1641" y="346"/>
      <point x="1596" y="441"/>
      <point x="1565" y="513" type="curve" smooth="yes"/>
      <point x="978" y="1905" type="line" smooth="yes"/>
      <point x="914" y="2058"/>
      <point x="786" y="2146"/>
    </contour>
  </outline>
</glyph>
<glyph name="mcapturn" format="2">
  <advance width="2733"/>
  <unicode hex="019C"/>
  <outline>
    <contour>
      <point x="2047" y="372" type="line"/>
      <point x="2098" y="0" type="line"/>
      <point x="2518" y="0" type="line"/>
      <point x="2518" y="2004" type="line"/>
      <point x="2047" y="2004" type="line"/>
    </contour>
    <contour>
      <point x="2106" y="692" type="line"/>
      <point x="2106" y="496"/>
      <point x="2025" y="347"/>
      <point x="1799" y="347" type="curve" smooth="yes"/>
      <point x="1671" y="347"/>
      <point x="1597" y="424"/>
      <point x="1597" y="576" type="curve"/>
      <point x="1597" y="2004" type="line"/>
      <point x="1133" y="2004" type="line"/>
      <point x="1133" y="576" type="line"/>
      <point x="1133" y="134"/>
      <point x="1335" y="-28"/>
      <point x="1650" y="-28" type="curve" smooth="yes"/>
      <point x="2029" y="-28"/>
      <point x="2240" y="280"/>
      <point x="2240" y="696" type="curve"/>
    </contour>
    <contour>
      <point x="1192" y="692" type="line"/>
      <point x="1192" y="493"/>
      <point x="1110" y="347"/>
      <point x="885" y="347" type="curve" smooth="yes"/>
      <point x="757" y="347"/>
      <point x="683" y="424"/>
      <point x="683" y="576" type="curve" smooth="yes"/>
      <point x="683" y="2004" type="line"/>
      <point x="218" y="2004" type="line"/>
      <point x="218" y="576" type="line" smooth="yes"/>
      <point x="218" y="138"/>
      <point x="385" y="-28"/>
      <point x="735" y="-28" type="curve" smooth="yes"/>
      <point x="1127" y="-28"/>
      <point x="1333" y="270"/>
      <point x="1333" y="696" type="curve"/>
    </contour>
  </outline>
</glyph>
<glyph name="Nhook" format="2">
  <advance width="2052"/>
  <unicode hex="019D"/>
  <outline>
    <contour>
      <point x="154" y="0" type="line"/>
      <point x="154" y="-70" type="line" smooth="yes"/>
      <point x="154" y="-176"/>
      <point x="51" y="-202"/>
      <point x="-56" y="-202" type="curve"/>
      <point x="-79" y="-202"/>
      <point x="-117" y="-204"/>
      <point x="-145" y="-200" type="curve"/>
      <point x="-145" y="-567" type="line"/>
      <point x="-91" y="-576"/>
      <point x="22" y="-576"/>
      <point x="74" y="-576" type="curve"/>
      <point x="351" y="-576"/>
      <point x="649" y="-511"/>
      <point x="649" y="-71" type="curve" smooth="yes"/>
      <point x="649" y="0" type="line"/>
    </contour>
    <component base="N" xOffset="-1"/>
  </outline>
</glyph>
<glyph name="Ohorn" format="2">
  <advance width="2327"/>
  <unicode hex="01A0"/>
  <outline>
    <contour>
      <point x="2006" y="2132" type="line"/>
      <point x="2006" y="1878"/>
      <point x="1956" y="1729"/>
      <point x="1767" y="1729" type="curve"/>
      <point x="1767" y="1501" type="line"/>
      <point x="2136" y="1501"/>
      <point x="2294" y="1734"/>
      <point x="2294" y="2132" type="curve"/>
    </contour>
    <component base="O"/>
  </outline>
</glyph>
<glyph name="ohorn" format="2">
  <advance width="1812"/>
  <unicode hex="01A1"/>
  <outline>
    <contour>
      <point x="1547" y="1617" type="line"/>
      <point x="1547" y="1379"/>
      <point x="1497" y="1238"/>
      <point x="1281" y="1238" type="curve"/>
      <point x="1281" y="1066" type="line"/>
      <point x="1648" y="1066"/>
      <point x="1812" y="1268"/>
      <point x="1812" y="1617" type="curve"/>
    </contour>
    <component base="o"/>
  </outline>
</glyph>
<glyph name="OI" format="2">
  <advance width="2733"/>
  <unicode hex="01A2"/>
  <outline>
    <contour>
      <point x="1888" y="1227" type="line"/>
      <point x="1418" y="1227" type="line"/>
      <point x="1418" y="443" type="line"/>
      <point x="1368" y="406"/>
      <point x="1279" y="360"/>
      <point x="1103" y="360" type="curve" smooth="yes"/>
      <point x="778" y="360"/>
      <point x="656" y="594"/>
      <point x="657" y="945" type="curve" smooth="yes"/>
      <point x="657" y="1032" type="line"/>
      <point x="162" y="1028" type="line"/>
      <point x="162" y="945" type="line" smooth="yes"/>
      <point x="161" y="327"/>
      <point x="526" y="-28"/>
      <point x="1075" y="-28" type="curve" smooth="yes"/>
      <point x="1524" y="-28"/>
      <point x="1783" y="138"/>
      <point x="1888" y="250" type="curve"/>
    </contour>
    <contour>
      <point x="1888" y="1754" type="line"/>
      <point x="1783" y="1870"/>
      <point x="1527" y="2032"/>
      <point x="1075" y="2032" type="curve" smooth="yes"/>
      <point x="526" y="2032"/>
      <point x="161" y="1676"/>
      <point x="162" y="1059" type="curve" smooth="yes"/>
      <point x="162" y="959" type="line"/>
      <point x="657" y="956" type="line"/>
      <point x="657" y="1059" type="line" smooth="yes"/>
      <point x="656" y="1430"/>
      <point x="770" y="1643"/>
      <point x="1104" y="1643" type="curve" smooth="yes"/>
      <point x="1257" y="1643"/>
      <point x="1355" y="1614"/>
      <point x="1418" y="1563" type="curve"/>
      <point x="1418" y="778" type="line"/>
      <point x="1888" y="784" type="line"/>
    </contour>
    <contour>
      <point x="2571" y="2004" type="line"/>
      <point x="2222" y="2004" type="line"/>
      <point x="1626" y="1726" type="line"/>
      <point x="1626" y="1203" type="line"/>
      <point x="2106" y="1428" type="line"/>
      <point x="2106" y="-572" type="line"/>
      <point x="2571" y="-572" type="line"/>
    </contour>
  </outline>
</glyph>
<glyph name="oi" format="2">
  <advance width="2198"/>
  <unicode hex="01A3"/>
  <outline>
    <contour>
      <point x="831" y="349" type="curve" smooth="yes"/>
      <point x="611" y="349"/>
      <point x="582" y="534"/>
      <point x="583" y="729" type="curve" smooth="yes"/>
      <point x="583" y="759" type="line" smooth="yes"/>
      <point x="582" y="954"/>
      <point x="612" y="1142"/>
      <point x="825" y="1142" type="curve"/>
      <point x="914" y="1142"/>
      <point x="969" y="1112"/>
      <point x="1009" y="1056" type="curve"/>
      <point x="1009" y="809" type="line"/>
      <point x="1477" y="770" type="line"/>
      <point x="1477" y="1134" type="line"/>
      <point x="1398" y="1292"/>
      <point x="1173" y="1516"/>
      <point x="841" y="1516" type="curve" smooth="yes"/>
      <point x="356" y="1516"/>
      <point x="118" y="1190"/>
      <point x="118" y="759" type="curve" smooth="yes"/>
      <point x="118" y="729" type="line" smooth="yes"/>
      <point x="118" y="294"/>
      <point x="355" y="-28"/>
      <point x="841" y="-28" type="curve"/>
      <point x="1202" y="-28"/>
      <point x="1374" y="127"/>
      <point x="1477" y="310" type="curve"/>
      <point x="1477" y="873" type="line"/>
      <point x="1009" y="873" type="line"/>
      <point x="1009" y="412" type="line"/>
      <point x="971" y="370"/>
      <point x="910" y="349"/>
    </contour>
    <contour>
      <point x="2083" y="1488" type="line"/>
      <point x="1771" y="1488" type="line"/>
      <point x="1274" y="1282" type="line"/>
      <point x="1274" y="863" type="line"/>
      <point x="1613" y="978" type="line"/>
      <point x="1613" y="-572" type="line"/>
      <point x="2083" y="-572" type="line"/>
    </contour>
  </outline>
</glyph>
<glyph name="Phook" format="2">
  <advance width="2466"/>
  <unicode hex="01A4"/>
  <note>
!post:RemoveOverlap
</note>
  <outline>
    <contour>
      <point x="525" y="1258" type="line"/>
      <point x="525" y="1391" type="line" smooth="yes"/>
      <point x="523" y="1513"/>
      <point x="566" y="1649"/>
      <point x="734" y="1649" type="curve" smooth="yes"/>
      <point x="1064" y="1649" type="line"/>
      <point x="1064" y="2048" type="line"/>
      <point x="733" y="2048" type="line" smooth="yes"/>
      <point x="336" y="2048"/>
      <point x="86" y="1835"/>
      <point x="88" y="1480" type="curve" smooth="yes"/>
      <point x="88" y="1258" type="line"/>
    </contour>
    <component base="P" xOffset="630"/>
  </outline>
</glyph>
<glyph name="phook" format="2">
  <advance width="1802"/>
  <unicode hex="01A5"/>
  <outline>
    <contour>
      <point x="639" y="1536" type="line"/>
      <point x="639" y="1609"/>
      <point x="683" y="1644"/>
      <point x="786" y="1642" type="curve" smooth="yes"/>
      <point x="852" y="1639"/>
      <point x="919" y="1625"/>
      <point x="942" y="1618" type="curve"/>
      <point x="942" y="1930" type="line"/>
      <point x="897" y="1941"/>
      <point x="810" y="1958"/>
      <point x="698" y="1958" type="curve" smooth="yes"/>
      <point x="318" y="1958"/>
      <point x="155" y="1843"/>
      <point x="155" y="1536" type="curve"/>
    </contour>
    <component base="p"/>
  </outline>
</glyph>
<glyph name="YR" format="2">
  <advance width="2186"/>
  <unicode hex="01A6"/>
  <outline>
    <contour>
      <point x="136" y="1864" type="line"/>
      <point x="622" y="1864" type="line"/>
      <point x="622" y="2144" type="line"/>
      <point x="136" y="2144" type="line"/>
    </contour>
    <contour>
      <point x="133" y="2004" type="line"/>
      <point x="133" y="0" type="line"/>
      <point x="622" y="0" type="line"/>
      <point x="622" y="1612" type="line"/>
      <point x="945" y="1612" type="line" smooth="yes"/>
      <point x="1139" y="1612"/>
      <point x="1243" y="1512"/>
      <point x="1243" y="1346" type="curve" smooth="yes"/>
      <point x="1243" y="1183"/>
      <point x="1138" y="1084"/>
      <point x="945" y="1084" type="curve" smooth="yes"/>
      <point x="440" y="1084" type="line"/>
      <point x="443" y="696" type="line"/>
      <point x="1125" y="696" type="line"/>
      <point x="1287" y="791" type="line"/>
      <point x="1550" y="890"/>
      <point x="1729" y="1044"/>
      <point x="1729" y="1397" type="curve" smooth="yes"/>
      <point x="1729" y="1792"/>
      <point x="1423" y="2004"/>
      <point x="945" y="2004" type="curve" smooth="yes"/>
    </contour>
    <contour>
      <point x="1531" y="-477" type="line"/>
      <point x="2053" y="-477" type="line"/>
      <point x="2053" y="-458" type="line"/>
      <point x="1330" y="886" type="line"/>
      <point x="815" y="886" type="line"/>
    </contour>
  </outline>
</glyph>
<glyph name="eshlooprev" format="2">
  <advance width="1942"/>
  <unicode hex="01AA"/>
  <outline>
    <contour>
      <point x="947" y="1336" type="line"/>
      <point x="947" y="-13" type="line" smooth="yes"/>
      <point x="946" y="-395"/>
      <point x="1166" y="-605"/>
      <point x="1524" y="-605" type="curve" smooth="yes"/>
      <point x="1606" y="-605"/>
      <point x="1678" y="-600"/>
      <point x="1748" y="-584" type="curve"/>
      <point x="1748" y="-218" type="line"/>
      <point x="1693" y="-226"/>
      <point x="1654" y="-230"/>
      <point x="1612" y="-230" type="curve" smooth="yes"/>
      <point x="1487" y="-230"/>
      <point x="1414" y="-156"/>
      <point x="1415" y="-13" type="curve" smooth="yes"/>
      <point x="1415" y="1583" type="line"/>
    </contour>
    <contour>
      <point x="194" y="1583" type="curve" smooth="yes"/>
      <point x="193" y="1254"/>
      <point x="468" y="987"/>
      <point x="803" y="987" type="curve" smooth="yes"/>
      <point x="1138" y="987"/>
      <point x="1414" y="1257"/>
      <point x="1415" y="1583" type="curve" smooth="yes"/>
      <point x="1414" y="1907"/>
      <point x="1138" y="2179"/>
      <point x="803" y="2179" type="curve" smooth="yes"/>
      <point x="465" y="2179"/>
      <point x="193" y="1907"/>
    </contour>
    <contour>
      <point x="806" y="1380" type="curve" smooth="yes"/>
      <point x="685" y="1380"/>
      <point x="599" y="1449"/>
      <point x="601" y="1587" type="curve" smooth="yes"/>
      <point x="599" y="1718"/>
      <point x="685" y="1788"/>
      <point x="806" y="1788" type="curve" smooth="yes"/>
      <point x="911" y="1788"/>
      <point x="1003" y="1722"/>
      <point x="1005" y="1587" type="curve" smooth="yes"/>
      <point x="1003" y="1449"/>
      <point x="914" y="1380"/>
    </contour>
  </outline>
</glyph>
<glyph name="tpalatalhook" format="2">
  <advance width="1128"/>
  <unicode hex="01AB"/>
  <outline>
    <contour>
      <point x="742" y="331" type="line"/>
      <point x="742" y="-71" type="line" smooth="yes"/>
      <point x="742" y="-222"/>
      <point x="597" y="-250"/>
      <point x="495" y="-250" type="curve" smooth="yes"/>
      <point x="447" y="-250"/>
      <point x="413" y="-246"/>
      <point x="378" y="-242" type="curve"/>
      <point x="378" y="-551" type="line"/>
      <point x="445" y="-566"/>
      <point x="500" y="-573"/>
      <point x="571" y="-573" type="curve" smooth="yes"/>
      <point x="874" y="-573"/>
      <point x="1061" y="-393"/>
      <point x="1061" y="-71" type="curve" smooth="yes"/>
      <point x="1061" y="398" type="line"/>
    </contour>
    <component base="t"/>
  </outline>
</glyph>
<glyph name="Thook" format="2">
  <advance width="2000"/>
  <unicode hex="01AC"/>
  <note>
!post:RemoveOverlap
</note>
  <outline>
    <contour>
      <point x="1045" y="2048" type="line"/>
      <point x="701" y="2048" type="line" smooth="yes"/>
      <point x="300" y="2048"/>
      <point x="88" y="1833"/>
      <point x="88" y="1478" type="curve" smooth="yes"/>
      <point x="88" y="1255" type="line"/>
      <point x="491" y="1255" type="line"/>
      <point x="491" y="1389" type="line" smooth="yes"/>
      <point x="491" y="1514"/>
      <point x="527" y="1646"/>
      <point x="701" y="1646" type="curve" smooth="yes"/>
      <point x="1045" y="1646" type="line"/>
    </contour>
    <contour>
      <point x="1912" y="2048" type="line"/>
      <point x="750" y="2048" type="line"/>
      <point x="750" y="1646" type="line"/>
      <point x="802" y="1646" type="line"/>
      <point x="802" y="0" type="line"/>
      <point x="1290" y="0" type="line"/>
      <point x="1290" y="1646" type="line"/>
      <point x="1912" y="1646" type="line"/>
    </contour>
  </outline>
</glyph>
<glyph name="thook" format="2">
  <advance width="1411"/>
  <unicode hex="01AD"/>
  <outline>
    <contour>
      <point x="860" y="1401" type="line"/>
      <point x="860" y="1672" type="line" smooth="yes"/>
      <point x="860" y="1826"/>
      <point x="1004" y="1859"/>
      <point x="1110" y="1859" type="curve" smooth="yes"/>
      <point x="1155" y="1859"/>
      <point x="1197" y="1852"/>
      <point x="1221" y="1847" type="curve"/>
      <point x="1221" y="2156" type="line"/>
      <point x="1155" y="2171"/>
      <point x="1090" y="2179"/>
      <point x="976" y="2179" type="curve" smooth="yes"/>
      <point x="662" y="2179"/>
      <point x="395" y="2099"/>
      <point x="395" y="1672" type="curve" smooth="yes"/>
      <point x="395" y="1401" type="line"/>
    </contour>
    <contour>
      <point x="1119" y="1488" type="line"/>
      <point x="191" y="1488" type="line"/>
      <point x="191" y="1153" type="line"/>
      <point x="1119" y="1153" type="line"/>
    </contour>
    <contour>
      <point x="395" y="1585" type="line"/>
      <point x="395" y="431" type="line"/>
      <point x="395" y="106"/>
      <point x="571" y="-28"/>
      <point x="871" y="-28" type="curve" smooth="yes"/>
      <point x="967" y="-28"/>
      <point x="1054" y="-18"/>
      <point x="1139" y="13" type="curve"/>
      <point x="1139" y="358" type="line"/>
      <point x="1106" y="354"/>
      <point x="1073" y="351"/>
      <point x="1019" y="351" type="curve" smooth="yes"/>
      <point x="907" y="351"/>
      <point x="860" y="382"/>
      <point x="860" y="492" type="curve"/>
      <point x="860" y="1585" type="line"/>
    </contour>
  </outline>
</glyph>
<glyph name="Trthook" format="2">
  <advance width="1907"/>
  <unicode hex="01AE"/>
  <outline>
    <contour>
      <point x="1198" y="0" type="line"/>
      <point x="710" y="0" type="line"/>
      <point x="710" y="-69" type="line" smooth="yes"/>
      <point x="710" y="-509"/>
      <point x="998" y="-576"/>
      <point x="1278" y="-576" type="curve"/>
      <point x="1498" y="-576" type="line"/>
      <point x="1498" y="-202" type="line"/>
      <point x="1409" y="-202" type="line"/>
      <point x="1305" y="-202"/>
      <point x="1198" y="-177"/>
      <point x="1198" y="-71" type="curve" smooth="yes"/>
    </contour>
    <component base="T"/>
  </outline>
</glyph>
<glyph name="Uhorn" format="2">
  <advance width="2455"/>
  <unicode hex="01AF"/>
  <outline>
    <contour>
      <point x="2078" y="2105" type="line"/>
      <point x="2078" y="1841"/>
      <point x="2066" y="1675"/>
      <point x="1750" y="1675" type="curve"/>
      <point x="1750" y="1441" type="line"/>
      <point x="2235" y="1441"/>
      <point x="2367" y="1690"/>
      <point x="2367" y="2105" type="curve"/>
    </contour>
    <component base="U"/>
  </outline>
</glyph>
<glyph name="uhorn" format="2">
  <advance width="2078"/>
  <unicode hex="01B0"/>
  <outline>
    <contour>
      <point x="1859" y="1626" type="line"/>
      <point x="1858" y="1393"/>
      <point x="1818" y="1276"/>
      <point x="1530" y="1276" type="curve"/>
      <point x="1530" y="1077" type="line"/>
      <point x="1972" y="1077"/>
      <point x="2117" y="1265"/>
      <point x="2118" y="1626" type="curve"/>
    </contour>
    <component base="u" xOffset="13"/>
  </outline>
</glyph>
<glyph name="Upsilon2" format="2">
  <advance width="2208"/>
  <unicode hex="01B1"/>
  <outline>
    <contour>
      <point x="114" y="926" type="curve" smooth="yes"/>
      <point x="114" y="368"/>
      <point x="525" y="-28"/>
      <point x="1104" y="-28" type="curve" smooth="yes"/>
      <point x="1683" y="-28"/>
      <point x="2094" y="368"/>
      <point x="2094" y="926" type="curve"/>
      <point x="2094" y="1254"/>
      <point x="1953" y="1487"/>
      <point x="1727" y="1630" type="curve"/>
      <point x="1727" y="1646" type="line"/>
      <point x="2094" y="1646" type="line"/>
      <point x="2094" y="2048" type="line"/>
      <point x="1254" y="2048" type="line"/>
      <point x="1254" y="1544" type="line"/>
      <point x="1454" y="1464"/>
      <point x="1592" y="1240"/>
      <point x="1592" y="971" type="curve" smooth="yes"/>
      <point x="1592" y="646"/>
      <point x="1390" y="409"/>
      <point x="1104" y="409" type="curve" smooth="yes"/>
      <point x="818" y="409"/>
      <point x="616" y="646"/>
      <point x="616" y="971" type="curve"/>
      <point x="616" y="1240"/>
      <point x="754" y="1464"/>
      <point x="954" y="1544" type="curve"/>
      <point x="954" y="2048" type="line"/>
      <point x="114" y="2048" type="line"/>
      <point x="114" y="1646" type="line"/>
      <point x="481" y="1646" type="line"/>
      <point x="481" y="1630" type="line"/>
      <point x="255" y="1486"/>
      <point x="114" y="1254"/>
    </contour>
  </outline>
</glyph>
<glyph name="Vcursive" format="2">
  <advance width="1917"/>
  <unicode hex="01B2"/>
  <outline>
    <contour>
      <point x="962" y="-28" type="curve" smooth="yes"/>
      <point x="1450" y="-28"/>
      <point x="1778" y="234"/>
      <point x="1777" y="702" type="curve" smooth="yes"/>
      <point x="1777" y="1437" type="line" smooth="yes"/>
      <point x="1778" y="1818"/>
      <point x="1558" y="2029"/>
      <point x="1198" y="2029" type="curve" smooth="yes"/>
      <point x="1110" y="2029"/>
      <point x="1050" y="2023"/>
      <point x="974" y="2005" type="curve"/>
      <point x="974" y="1618" type="line"/>
      <point x="1025" y="1626"/>
      <point x="1068" y="1630"/>
      <point x="1107" y="1630" type="curve" smooth="yes"/>
      <point x="1246" y="1630"/>
      <point x="1285" y="1585"/>
      <point x="1284" y="1437" type="curve" smooth="yes"/>
      <point x="1284" y="702" type="line" smooth="yes"/>
      <point x="1285" y="484"/>
      <point x="1192" y="360"/>
      <point x="962" y="360" type="curve" smooth="yes"/>
      <point x="730" y="360"/>
      <point x="630" y="484"/>
      <point x="630" y="702" type="curve" smooth="yes"/>
      <point x="630" y="2004" type="line"/>
      <point x="144" y="2004" type="line"/>
      <point x="144" y="702" type="line" smooth="yes"/>
      <point x="145" y="231"/>
      <point x="480" y="-28"/>
    </contour>
  </outline>
</glyph>
<glyph name="Yhook" format="2">
  <advance width="2302"/>
  <unicode hex="01B3"/>
  <note>
!post:RemoveOverlap
</note>
  <outline>
    <contour>
      <point x="1825" y="1461" type="line"/>
      <point x="1862" y="1522" type="line" smooth="yes"/>
      <point x="1944" y="1665"/>
      <point x="2014" y="1699"/>
      <point x="2162" y="1656" type="curve"/>
      <point x="2265" y="2022" type="line"/>
      <point x="1994" y="2121"/>
      <point x="1678" y="2090"/>
      <point x="1490" y="1764" type="curve" smooth="yes"/>
      <point x="1417" y="1638" type="line"/>
    </contour>
    <contour>
      <point x="1108" y="1143" type="line"/>
      <point x="1156" y="1143" type="line"/>
      <point x="1156" y="1191" type="line"/>
      <point x="1108" y="1191" type="line"/>
    </contour>
    <contour>
      <point x="606" y="2048" type="line"/>
      <point x="73" y="2048" type="line"/>
      <point x="886" y="774" type="line"/>
      <point x="886" y="0" type="line"/>
      <point x="1378" y="0" type="line"/>
      <point x="1378" y="774" type="line"/>
      <point x="1825" y="1461" type="line"/>
      <point x="1417" y="1638" type="line"/>
      <point x="1132" y="1171" type="line"/>
    </contour>
  </outline>
</glyph>
<glyph name="yhook" format="2">
  <advance width="1770"/>
  <unicode hex="01B4"/>
  <outline>
    <contour>
      <point x="1494" y="1269" type="line"/>
      <point x="1514" y="1328" type="line" smooth="yes"/>
      <point x="1546" y="1414"/>
      <point x="1578" y="1462"/>
      <point x="1669" y="1496" type="curve" smooth="yes"/>
      <point x="1698" y="1505"/>
      <point x="1728" y="1507"/>
      <point x="1776" y="1502" type="curve"/>
      <point x="1798" y="1886" type="line"/>
      <point x="1592" y="1898"/>
      <point x="1501" y="1900"/>
      <point x="1393" y="1859" type="curve" smooth="yes"/>
      <point x="1234" y="1808"/>
      <point x="1125" y="1678"/>
      <point x="1073" y="1521" type="curve" smooth="yes"/>
      <point x="1030" y="1385" type="line"/>
    </contour>
    <contour>
      <point x="608" y="-11" type="line" smooth="yes"/>
      <point x="577" y="-122"/>
      <point x="510" y="-208"/>
      <point x="318" y="-208" type="curve"/>
      <point x="306" y="-208"/>
      <point x="289" y="-207"/>
      <point x="260" y="-203" type="curve"/>
      <point x="260" y="-570" type="line"/>
      <point x="340" y="-598"/>
      <point x="366" y="-600"/>
      <point x="456" y="-600" type="curve" smooth="yes"/>
      <point x="802" y="-600"/>
      <point x="974" y="-362"/>
      <point x="1018" y="-218" type="curve" smooth="yes"/>
      <point x="1494" y="1269" type="line"/>
      <point x="1030" y="1385" type="line"/>
      <point x="834" y="761" type="line"/>
      <point x="566" y="1536" type="line"/>
      <point x="61" y="1536" type="line"/>
      <point x="627" y="54" type="line"/>
    </contour>
  </outline>
</glyph>
<glyph name="Ezh" format="2">
  <advance width="1936"/>
  <unicode hex="01B7"/>
  <outline>
    <contour>
      <point x="88" y="204" type="line"/>
      <point x="99" y="-241"/>
      <point x="483" y="-550"/>
      <point x="963" y="-550" type="curve" smooth="yes"/>
      <point x="1511" y="-550"/>
      <point x="1853" y="-144"/>
      <point x="1853" y="329" type="curve" smooth="yes"/>
      <point x="1853" y="690"/>
      <point x="1651" y="1076"/>
      <point x="1154" y="1125" type="curve"/>
      <point x="1154" y="1145" type="line"/>
      <point x="1801" y="1692" type="line"/>
      <point x="1801" y="2048" type="line"/>
      <point x="201" y="2048" type="line"/>
      <point x="201" y="1638" type="line"/>
      <point x="1198" y="1638" type="line"/>
      <point x="1198" y="1622" type="line"/>
      <point x="664" y="1172" type="line"/>
      <point x="664" y="823" type="line"/>
      <point x="909" y="823" type="line" smooth="yes"/>
      <point x="1168" y="823"/>
      <point x="1337" y="619"/>
      <point x="1337" y="358" type="curve" smooth="yes"/>
      <point x="1337" y="128"/>
      <point x="1217" y="-138"/>
      <point x="967" y="-138" type="curve" smooth="yes"/>
      <point x="788" y="-138"/>
      <point x="597" y="-3"/>
      <point x="586" y="204" type="curve"/>
    </contour>
  </outline>
</glyph>
<glyph name="ezhtail" format="2">
  <advance width="1654"/>
  <unicode hex="01BA"/>
  <outline>
    <contour>
      <point x="229" y="1488" type="line"/>
      <point x="229" y="1114" type="line"/>
      <point x="729" y="1114" type="line"/>
      <point x="462" y="900" type="line"/>
      <point x="462" y="635" type="line"/>
      <point x="781" y="635" type="line"/>
      <point x="1486" y="1230" type="line"/>
      <point x="1486" y="1488" type="line"/>
    </contour>
    <contour>
      <point x="605" y="-154" type="curve" smooth="yes"/>
      <point x="603" y="-87"/>
      <point x="663" y="-40"/>
      <point x="916" y="10" type="curve" smooth="yes"/>
      <point x="1166" y="59"/>
      <point x="1456" y="186"/>
      <point x="1458" y="469" type="curve" smooth="yes"/>
      <point x="1456" y="721"/>
      <point x="1226" y="948"/>
      <point x="827" y="948" type="curve" smooth="yes"/>
      <point x="614" y="948" type="line"/>
      <point x="614" y="635" type="line"/>
      <point x="827" y="635" type="line" smooth="yes"/>
      <point x="930" y="635"/>
      <point x="1010" y="581"/>
      <point x="1012" y="493" type="curve" smooth="yes"/>
      <point x="1010" y="404"/>
      <point x="926" y="372"/>
      <point x="716" y="333" type="curve" smooth="yes"/>
      <point x="347" y="266"/>
      <point x="152" y="132"/>
      <point x="154" y="-137" type="curve" smooth="yes"/>
      <point x="152" y="-401"/>
      <point x="415" y="-600"/>
      <point x="826" y="-600" type="curve" smooth="yes"/>
      <point x="1266" y="-600"/>
      <point x="1504" y="-334"/>
      <point x="1506" y="-95" type="curve"/>
      <point x="1067" y="-95" type="line"/>
      <point x="1060" y="-239"/>
      <point x="935" y="-281"/>
      <point x="814" y="-281" type="curve" smooth="yes"/>
      <point x="695" y="-281"/>
      <point x="603" y="-242"/>
    </contour>
  </outline>
</glyph>
<glyph name="Tonefive" format="2">
  <advance width="1827"/>
  <unicode hex="01BC"/>
  <outline>
    <contour>
      <point x="546" y="2048" type="line"/>
      <point x="102" y="2048" type="line"/>
      <point x="102" y="1649" type="line"/>
      <point x="546" y="1649" type="line"/>
    </contour>
    <component base="five" xOffset="64"/>
  </outline>
</glyph>
<glyph name="tonefive" format="2">
  <advance width="1952"/>
  <unicode hex="01BD"/>
  <outline>
    <contour>
      <point x="822" y="629" type="line"/>
      <point x="854" y="654"/>
      <point x="921" y="670"/>
      <point x="1030" y="670" type="curve" smooth="yes"/>
      <point x="1172" y="670"/>
      <point x="1257" y="608"/>
      <point x="1258" y="515" type="curve" smooth="yes"/>
      <point x="1257" y="414"/>
      <point x="1186" y="354"/>
      <point x="1038" y="354" type="curve" smooth="yes"/>
      <point x="895" y="354"/>
      <point x="806" y="386"/>
      <point x="794" y="470" type="curve"/>
      <point x="328" y="452" type="line"/>
      <point x="327" y="117"/>
      <point x="666" y="-24"/>
      <point x="1038" y="-24" type="curve" smooth="yes"/>
      <point x="1524" y="-24"/>
      <point x="1724" y="188"/>
      <point x="1725" y="477" type="curve" smooth="yes"/>
      <point x="1724" y="786"/>
      <point x="1518" y="969"/>
      <point x="1168" y="967" type="curve" smooth="yes"/>
      <point x="1028" y="966"/>
      <point x="917" y="936"/>
      <point x="854" y="906" type="curve"/>
      <point x="891" y="1127" type="line"/>
      <point x="1610" y="1127" type="line"/>
      <point x="1610" y="1488" type="line"/>
      <point x="512" y="1488" type="line"/>
      <point x="394" y="646" type="line"/>
    </contour>
    <contour>
      <point x="672" y="1488" type="line"/>
      <point x="227" y="1488" type="line"/>
      <point x="227" y="1127" type="line"/>
      <point x="672" y="1127" type="line"/>
    </contour>
  </outline>
</glyph>
<glyph name="glottalstopbarinv" format="2">
  <advance width="1654"/>
  <unicode hex="01BE"/>
  <outline>
    <contour>
      <point x="1052" y="422" type="curve" smooth="yes"/>
      <point x="1054" y="334"/>
      <point x="971" y="291"/>
      <point x="844" y="291" type="curve" smooth="yes"/>
      <point x="725" y="291"/>
      <point x="600" y="337"/>
      <point x="590" y="478" type="curve"/>
      <point x="151" y="478" type="line"/>
      <point x="153" y="245"/>
      <point x="391" y="-28"/>
      <point x="834" y="-28" type="curve" smooth="yes"/>
      <point x="1245" y="-28"/>
      <point x="1506" y="169"/>
      <point x="1504" y="433" type="curve" smooth="yes"/>
      <point x="1506" y="896"/>
      <point x="999" y="734"/>
      <point x="998" y="1138" type="curve" smooth="yes"/>
      <point x="998" y="1863" type="line"/>
      <point x="526" y="1863" type="line"/>
      <point x="526" y="1146" type="line" smooth="yes"/>
      <point x="528" y="582"/>
      <point x="1054" y="633"/>
    </contour>
    <contour>
      <point x="1254" y="1488" type="line"/>
      <point x="326" y="1488" type="line"/>
      <point x="326" y="1153" type="line"/>
      <point x="1254" y="1153" type="line"/>
    </contour>
  </outline>
</glyph>
<glyph name="wynn" format="2">
  <advance width="1939"/>
  <unicode hex="01BF"/>
  <outline>
    <contour>
      <point x="726" y="1204" type="line"/>
      <point x="696" y="1488" type="line"/>
      <point x="255" y="1488" type="line"/>
      <point x="255" y="-572" type="line"/>
      <point x="726" y="-572" type="line"/>
    </contour>
    <contour>
      <point x="686" y="778" type="line"/>
      <point x="682" y="1027"/>
      <point x="753" y="1144"/>
      <point x="962" y="1144" type="curve" smooth="yes"/>
      <point x="1156" y="1144"/>
      <point x="1212" y="970"/>
      <point x="1213" y="766" type="curve" smooth="yes"/>
      <point x="1213" y="731" type="line" smooth="yes"/>
      <point x="1212" y="338"/>
      <point x="929" y="116"/>
      <point x="520" y="84" type="curve"/>
      <point x="568" y="-283" type="line"/>
      <point x="1283" y="-121"/>
      <point x="1683" y="146"/>
      <point x="1684" y="731" type="curve" smooth="yes"/>
      <point x="1684" y="766" type="line" smooth="yes"/>
      <point x="1683" y="1214"/>
      <point x="1470" y="1516"/>
      <point x="1081" y="1516" type="curve" smooth="yes"/>
      <point x="700" y="1516"/>
      <point x="556" y="1170"/>
      <point x="497" y="753" type="curve"/>
    </contour>
  </outline>
</glyph>
<glyph name="pipe" format="2">
  <advance width="876"/>
  <unicode hex="01C0"/>
  <outline>
    <contour>
      <point x="567" y="2000" type="line"/>
      <point x="309" y="2000" type="line"/>
      <point x="309" y="0" type="line"/>
      <point x="567" y="0" type="line"/>
    </contour>
  </outline>
</glyph>
<glyph name="Gbar" format="2">
  <advance width="2159"/>
  <unicode hex="01E4"/>
  <outline>
    <contour>
      <point x="2101" y="675" type="line"/>
      <point x="1139" y="675" type="line"/>
      <point x="1139" y="536" type="line"/>
      <point x="2101" y="536" type="line"/>
    </contour>
    <component base="G"/>
  </outline>
</glyph>
<glyph name="uni01F6" format="2">
  <advance width="3171"/>
  <unicode hex="01F6"/>
  <outline>
    <contour>
      <point x="2238" y="-28" type="curve" smooth="yes"/>
      <point x="2718" y="-28"/>
      <point x="3016" y="244"/>
      <point x="3016" y="702" type="curve" smooth="yes"/>
      <point x="3016" y="1482" type="line"/>
      <point x="2522" y="1482" type="line"/>
      <point x="2522" y="702" type="line" smooth="yes"/>
      <point x="2522" y="497"/>
      <point x="2416" y="382"/>
      <point x="2238" y="382" type="curve" smooth="yes"/>
      <point x="2059" y="382"/>
      <point x="1951" y="497"/>
      <point x="1951" y="702" type="curve" smooth="yes"/>
      <point x="1951" y="2048" type="line"/>
      <point x="1457" y="2048" type="line"/>
      <point x="1457" y="1226" type="line"/>
      <point x="650" y="1226" type="line"/>
      <point x="650" y="2048" type="line"/>
      <point x="155" y="2048" type="line"/>
      <point x="155" y="0" type="line"/>
      <point x="650" y="0" type="line"/>
      <point x="650" y="823" type="line"/>
      <point x="1457" y="823" type="line"/>
      <point x="1457" y="702" type="line" smooth="yes"/>
      <point x="1457" y="246"/>
      <point x="1758" y="-28"/>
    </contour>
  </outline>
</glyph>
<glyph name="uni01F7" format="2">
  <advance width="2218"/>
  <unicode hex="01F7"/>
  <outline>
    <contour>
      <point x="745" y="2004" type="line"/>
      <point x="262" y="2004" type="line"/>
      <point x="262" y="-572" type="line"/>
      <point x="745" y="-572" type="line"/>
    </contour>
    <contour>
      <point x="535" y="-261" type="line"/>
      <point x="1467" y="0"/>
      <point x="1961" y="478"/>
      <point x="1962" y="1060" type="curve" smooth="yes"/>
      <point x="1962" y="1132" type="line" smooth="yes"/>
      <point x="1961" y="1705"/>
      <point x="1610" y="2032"/>
      <point x="1083" y="2032" type="curve" smooth="yes"/>
      <point x="870" y="2032"/>
      <point x="690" y="1958"/>
      <point x="604" y="1857" type="curve"/>
      <point x="604" y="1294" type="line"/>
      <point x="666" y="1490"/>
      <point x="874" y="1643"/>
      <point x="1083" y="1643" type="curve" smooth="yes"/>
      <point x="1428" y="1643"/>
      <point x="1462" y="1366"/>
      <point x="1464" y="1136" type="curve" smooth="yes"/>
      <point x="1464" y="1060" type="line" smooth="yes"/>
      <point x="1462" y="646"/>
      <point x="1151" y="329"/>
      <point x="535" y="134" type="curve"/>
    </contour>
  </outline>
</glyph>
<glyph name="uni021C" format="2">
  <advance width="1923"/>
  <unicode hex="021C"/>
  <outline>
    <contour>
      <point x="333" y="409" type="line"/>
      <point x="1229" y="630"/>
      <point x="1722" y="894"/>
      <point x="1722" y="1460" type="curve" smooth="yes"/>
      <point x="1722" y="1832"/>
      <point x="1407" y="2029"/>
      <point x="936" y="2029" type="curve" smooth="yes"/>
      <point x="539" y="2029"/>
      <point x="174" y="1826"/>
      <point x="174" y="1454" type="curve"/>
      <point x="659" y="1454" type="line"/>
      <point x="659" y="1582"/>
      <point x="791" y="1640"/>
      <point x="936" y="1640" type="curve" smooth="yes"/>
      <point x="1156" y="1640"/>
      <point x="1239" y="1542"/>
      <point x="1239" y="1384" type="curve" smooth="yes"/>
      <point x="1239" y="1107"/>
      <point x="1060" y="987"/>
      <point x="333" y="774" type="curve"/>
    </contour>
    <contour>
      <point x="1014" y="712" type="line"/>
      <point x="1175" y="719"/>
      <point x="1264" y="689"/>
      <point x="1264" y="494" type="curve" smooth="yes"/>
      <point x="1264" y="156"/>
      <point x="946" y="-100"/>
      <point x="333" y="-215" type="curve"/>
      <point x="333" y="-600" type="line"/>
      <point x="1151" y="-502"/>
      <point x="1750" y="-121"/>
      <point x="1750" y="483" type="curve" smooth="yes"/>
      <point x="1750" y="808"/>
      <point x="1484" y="1008"/>
      <point x="1083" y="996" type="curve"/>
    </contour>
  </outline>
</glyph>
<glyph name="uni021D" format="2">
  <advance width="1658"/>
  <unicode hex="021D"/>
  <outline>
    <contour>
      <point x="351" y="189" type="line"/>
      <point x="1124" y="406"/>
      <point x="1464" y="656"/>
      <point x="1466" y="1080" type="curve" smooth="yes"/>
      <point x="1464" y="1364"/>
      <point x="1201" y="1516"/>
      <point x="798" y="1516" type="curve" smooth="yes"/>
      <point x="449" y="1516"/>
      <point x="163" y="1344"/>
      <point x="165" y="1053" type="curve"/>
      <point x="635" y="1053" type="line"/>
      <point x="634" y="1138"/>
      <point x="711" y="1171"/>
      <point x="830" y="1171" type="curve" smooth="yes"/>
      <point x="965" y="1171"/>
      <point x="996" y="1098"/>
      <point x="998" y="1000" type="curve" smooth="yes"/>
      <point x="996" y="809"/>
      <point x="798" y="674"/>
      <point x="351" y="524" type="curve"/>
    </contour>
    <contour>
      <point x="824" y="522" type="line"/>
      <point x="919" y="527"/>
      <point x="1021" y="458"/>
      <point x="1022" y="295" type="curve" smooth="yes"/>
      <point x="1021" y="50"/>
      <point x="828" y="-79"/>
      <point x="351" y="-259" type="curve"/>
      <point x="351" y="-600" type="line"/>
      <point x="1038" y="-451"/>
      <point x="1492" y="-174"/>
      <point x="1494" y="257" type="curve" smooth="yes"/>
      <point x="1492" y="581"/>
      <point x="1257" y="715"/>
      <point x="890" y="706" type="curve"/>
    </contour>
  </outline>
</glyph>
<glyph name="uni0220" format="2">
  <advance width="1930"/>
  <unicode hex="0220"/>
  <outline>
    <contour>
      <point x="1734" y="-572" type="line"/>
      <point x="1734" y="1433" type="line" smooth="yes"/>
      <point x="1734" y="1808"/>
      <point x="1437" y="2032"/>
      <point x="1048" y="2032" type="curve" smooth="yes"/>
      <point x="730" y="2032"/>
      <point x="488" y="1858"/>
      <point x="336" y="1682" type="curve"/>
      <point x="336" y="1244" type="line"/>
      <point x="540" y="1524"/>
      <point x="762" y="1660"/>
      <point x="984" y="1660" type="curve" smooth="yes"/>
      <point x="1194" y="1660"/>
      <point x="1259" y="1566"/>
      <point x="1260" y="1433" type="curve" smooth="yes"/>
      <point x="1260" y="-572" type="line"/>
    </contour>
    <contour>
      <point x="670" y="2004" type="line"/>
      <point x="199" y="2004" type="line"/>
      <point x="199" y="0" type="line"/>
      <point x="670" y="0" type="line"/>
    </contour>
  </outline>
</glyph>
<glyph name="uni0221" format="2">
  <advance width="2021"/>
  <unicode hex="0221"/>
  <outline>
    <contour>
      <point x="1155" y="346" type="line"/>
      <point x="1155" y="-42" type="line"/>
      <point x="1156" y="-351"/>
      <point x="1307" y="-576"/>
      <point x="1765" y="-576" type="curve" smooth="yes"/>
      <point x="2126" y="-576"/>
      <point x="2304" y="-441"/>
      <point x="2303" y="-222" type="curve" smooth="yes"/>
      <point x="2304" y="11"/>
      <point x="2105" y="174"/>
      <point x="1740" y="174" type="curve" smooth="yes"/>
      <point x="1529" y="174"/>
      <point x="1364" y="119"/>
      <point x="1200" y="22" type="curve"/>
      <point x="786" y="-291" type="line"/>
      <point x="982" y="-578" type="line"/>
      <point x="1406" y="-262" type="line" smooth="yes"/>
      <point x="1550" y="-160"/>
      <point x="1665" y="-98"/>
      <point x="1744" y="-98" type="curve" smooth="yes"/>
      <point x="1851" y="-95"/>
      <point x="1897" y="-147"/>
      <point x="1896" y="-209" type="curve" smooth="yes"/>
      <point x="1897" y="-266"/>
      <point x="1846" y="-305"/>
      <point x="1778" y="-305" type="curve" smooth="yes"/>
      <point x="1707" y="-305"/>
      <point x="1648" y="-265"/>
      <point x="1647" y="-167" type="curve"/>
      <point x="1647" y="346" type="line"/>
    </contour>
    <component base="d" xOffset="6"/>
  </outline>
</glyph>
<glyph name="uni0222" format="2">
  <advance width="1926"/>
  <unicode hex="0222"/>
  <outline>
    <contour>
      <point x="952" y="1292" type="line"/>
      <point x="494" y="1292"/>
      <point x="156" y="1090"/>
      <point x="157" y="650" type="curve" smooth="yes"/>
      <point x="156" y="218"/>
      <point x="491" y="-28"/>
      <point x="952" y="-28" type="curve" smooth="yes"/>
      <point x="981" y="-28" type="line" smooth="yes"/>
      <point x="1437" y="-28"/>
      <point x="1769" y="218"/>
      <point x="1770" y="654" type="curve" smooth="yes"/>
      <point x="1769" y="1090"/>
      <point x="1434" y="1292"/>
      <point x="981" y="1292" type="curve" smooth="yes"/>
    </contour>
    <contour>
      <point x="981" y="951" type="line"/>
      <point x="1175" y="951"/>
      <point x="1274" y="826"/>
      <point x="1274" y="654" type="curve" smooth="yes"/>
      <point x="1274" y="478"/>
      <point x="1175" y="355"/>
      <point x="981" y="355" type="curve" smooth="yes"/>
      <point x="952" y="355" type="line" smooth="yes"/>
      <point x="759" y="355"/>
      <point x="651" y="478"/>
      <point x="652" y="650" type="curve" smooth="yes"/>
      <point x="651" y="833"/>
      <point x="762" y="951"/>
      <point x="952" y="951" type="curve" smooth="yes"/>
    </contour>
    <contour>
      <point x="946" y="1344" type="line"/>
      <point x="733" y="1344"/>
      <point x="651" y="1401"/>
      <point x="652" y="1522" type="curve" smooth="yes"/>
      <point x="651" y="1608"/>
      <point x="694" y="1638"/>
      <point x="784" y="1656" type="curve"/>
      <point x="784" y="2032" type="line"/>
      <point x="410" y="2035"/>
      <point x="156" y="1874"/>
      <point x="157" y="1522" type="curve" smooth="yes"/>
      <point x="156" y="1158"/>
      <point x="492" y="1006"/>
      <point x="946" y="1006" type="curve" smooth="yes"/>
      <point x="980" y="1006" type="line" smooth="yes"/>
      <point x="1430" y="1006"/>
      <point x="1775" y="1158"/>
      <point x="1776" y="1522" type="curve" smooth="yes"/>
      <point x="1775" y="1874"/>
      <point x="1516" y="2035"/>
      <point x="1146" y="2032" type="curve"/>
      <point x="1146" y="1656" type="line"/>
      <point x="1230" y="1638"/>
      <point x="1280" y="1608"/>
      <point x="1281" y="1522" type="curve" smooth="yes"/>
      <point x="1280" y="1391"/>
      <point x="1177" y="1344"/>
      <point x="980" y="1344" type="curve" smooth="yes"/>
    </contour>
  </outline>
</glyph>
<glyph name="uni0223" format="2">
  <advance width="1923"/>
  <unicode hex="0223"/>
  <outline>
    <contour>
      <point x="949" y="1262" type="line"/>
      <point x="492" y="1262"/>
      <point x="167" y="1081"/>
      <point x="167" y="641" type="curve" smooth="yes"/>
      <point x="167" y="208"/>
      <point x="492" y="-28"/>
      <point x="949" y="-28" type="curve" smooth="yes"/>
      <point x="978" y="-28" type="line" smooth="yes"/>
      <point x="1431" y="-28"/>
      <point x="1756" y="208"/>
      <point x="1756" y="642" type="curve" smooth="yes"/>
      <point x="1756" y="1081"/>
      <point x="1428" y="1262"/>
      <point x="978" y="1262" type="curve" smooth="yes"/>
    </contour>
    <contour>
      <point x="978" y="933" type="line"/>
      <point x="1182" y="933"/>
      <point x="1285" y="814"/>
      <point x="1285" y="642" type="curve" smooth="yes"/>
      <point x="1285" y="468"/>
      <point x="1182" y="349"/>
      <point x="978" y="349" type="curve" smooth="yes"/>
      <point x="949" y="349" type="line" smooth="yes"/>
      <point x="750" y="349"/>
      <point x="638" y="468"/>
      <point x="638" y="641" type="curve" smooth="yes"/>
      <point x="638" y="814"/>
      <point x="750" y="933"/>
      <point x="949" y="933" type="curve" smooth="yes"/>
    </contour>
    <contour>
      <point x="977" y="1306" type="curve" smooth="yes"/>
      <point x="946" y="1306" type="line" smooth="yes"/>
      <point x="740" y="1306"/>
      <point x="638" y="1378"/>
      <point x="638" y="1562" type="curve" smooth="yes"/>
      <point x="638" y="1692"/>
      <point x="702" y="1756"/>
      <point x="781" y="1779" type="curve"/>
      <point x="781" y="2140" type="line"/>
      <point x="414" y="2141"/>
      <point x="167" y="1947"/>
      <point x="167" y="1572" type="curve" smooth="yes"/>
      <point x="167" y="1138"/>
      <point x="496" y="981"/>
      <point x="946" y="981" type="curve" smooth="yes"/>
      <point x="977" y="981" type="line" smooth="yes"/>
      <point x="1430" y="981"/>
      <point x="1756" y="1138"/>
      <point x="1756" y="1572" type="curve" smooth="yes"/>
      <point x="1756" y="1954"/>
      <point x="1506" y="2141"/>
      <point x="1142" y="2140" type="curve"/>
      <point x="1142" y="1779" type="line"/>
      <point x="1222" y="1756"/>
      <point x="1291" y="1692"/>
      <point x="1291" y="1562" type="curve" smooth="yes"/>
      <point x="1291" y="1382"/>
      <point x="1187" y="1306"/>
    </contour>
  </outline>
</glyph>
<glyph name="uni0224" format="2">
  <advance width="1917"/>
  <unicode hex="0224"/>
  <note>
!post:RemoveOverlap
</note>
  <outline>
    <contour>
      <point x="1099" y="402" type="line"/>
      <point x="1099" y="0" type="line"/>
      <point x="1190" y="0" type="line" smooth="yes"/>
      <point x="1370" y="0"/>
      <point x="1404" y="-118"/>
      <point x="1403" y="-254" type="curve"/>
      <point x="1403" y="-368" type="line"/>
      <point x="1803" y="-368" type="line"/>
      <point x="1803" y="-165" type="line"/>
      <point x="1804" y="190"/>
      <point x="1587" y="402"/>
      <point x="1190" y="402" type="curve" smooth="yes"/>
    </contour>
    <contour>
      <point x="1099" y="402" type="line"/>
      <point x="761" y="402" type="line"/>
      <point x="1769" y="1766" type="line"/>
      <point x="1769" y="2048" type="line"/>
      <point x="149" y="2048" type="line"/>
      <point x="149" y="1646" type="line"/>
      <point x="1156" y="1646" type="line"/>
      <point x="148" y="282" type="line"/>
      <point x="148" y="0" type="line"/>
      <point x="1099" y="0" type="line"/>
    </contour>
  </outline>
</glyph>
<glyph name="zhook" format="2">
  <advance width="1626"/>
  <unicode hex="0225"/>
  <outline>
    <contour>
      <point x="1138" y="-390" type="line"/>
      <point x="1538" y="-390" type="line"/>
      <point x="1538" y="-194" type="line"/>
      <point x="1538" y="166"/>
      <point x="1320" y="377"/>
      <point x="926" y="377" type="curve" smooth="yes"/>
      <point x="762" y="377" type="line"/>
      <point x="1453" y="1268" type="line"/>
      <point x="1453" y="1536" type="line"/>
      <point x="192" y="1536" type="line"/>
      <point x="192" y="1159" type="line"/>
      <point x="851" y="1159" type="line"/>
      <point x="160" y="267" type="line"/>
      <point x="160" y="0" type="line"/>
      <point x="926" y="0" type="line" smooth="yes"/>
      <point x="1108" y="0"/>
      <point x="1138" y="-154"/>
      <point x="1138" y="-279" type="curve" smooth="yes"/>
    </contour>
  </outline>
</glyph>
<glyph name="lcurl" format="2">
  <advance width="1262"/>
  <unicode hex="0234"/>
  <outline>
    <contour>
      <point x="123" y="406" type="line"/>
      <point x="123" y="22" type="line"/>
      <point x="122" y="-402"/>
      <point x="471" y="-576"/>
      <point x="730" y="-576" type="curve" smooth="yes"/>
      <point x="1018" y="-576"/>
      <point x="1196" y="-354"/>
      <point x="1198" y="-145" type="curve" smooth="yes"/>
      <point x="1196" y="62"/>
      <point x="1026" y="251"/>
      <point x="769" y="251" type="curve" smooth="yes"/>
      <point x="517" y="251"/>
      <point x="170" y="65"/>
      <point x="-85" y="-102" type="curve" smooth="yes"/>
      <point x="-278" y="-246" type="line"/>
      <point x="-50" y="-514" type="line"/>
      <point x="230" y="-296" type="line" smooth="yes"/>
      <point x="431" y="-147"/>
      <point x="562" y="-70"/>
      <point x="724" y="-70" type="curve" smooth="yes"/>
      <point x="785" y="-70"/>
      <point x="821" y="-126"/>
      <point x="822" y="-158" type="curve" smooth="yes"/>
      <point x="821" y="-208"/>
      <point x="782" y="-257"/>
      <point x="736" y="-257" type="curve" smooth="yes"/>
      <point x="644" y="-257"/>
      <point x="610" y="-197"/>
      <point x="612" y="-102" type="curve" smooth="yes"/>
      <point x="610" y="-66"/>
      <point x="610" y="406"/>
      <point x="612" y="406" type="curve"/>
    </contour>
    <contour>
      <point x="612" y="2048" type="line"/>
      <point x="123" y="2048" type="line"/>
      <point x="123" y="0" type="line"/>
      <point x="612" y="0" type="line"/>
    </contour>
  </outline>
</glyph>
<glyph name="ncurl" format="2">
  <advance width="2293"/>
  <unicode hex="0235"/>
  <outline>
    <contour>
      <point x="1148" y="132" type="line"/>
      <point x="1148" y="18" type="line" smooth="yes"/>
      <point x="1148" y="-324"/>
      <point x="1406" y="-457"/>
      <point x="1684" y="-456" type="curve" smooth="yes"/>
      <point x="2018" y="-455"/>
      <point x="2223" y="-276"/>
      <point x="2222" y="-25" type="curve" smooth="yes"/>
      <point x="2222" y="223"/>
      <point x="2020" y="400"/>
      <point x="1758" y="400" type="curve" smooth="yes"/>
      <point x="1490" y="400"/>
      <point x="1268" y="402"/>
      <point x="988" y="72" type="curve" smooth="yes"/>
      <point x="794" y="-149" type="line"/>
      <point x="1026" y="-350" type="line"/>
      <point x="1246" y="-96" type="line" smooth="yes"/>
      <point x="1394" y="78"/>
      <point x="1646" y="120"/>
      <point x="1730" y="118" type="curve" smooth="yes"/>
      <point x="1794" y="116"/>
      <point x="1847" y="75"/>
      <point x="1847" y="4" type="curve" smooth="yes"/>
      <point x="1847" y="-66"/>
      <point x="1809" y="-111"/>
      <point x="1748" y="-111" type="curve" smooth="yes"/>
      <point x="1682" y="-111"/>
      <point x="1637" y="-65"/>
      <point x="1637" y="6" type="curve" smooth="yes"/>
      <point x="1637" y="132" type="line"/>
    </contour>
    <component base="n"/>
  </outline>
</glyph>
<glyph name="tcurl" format="2">
  <advance width="1534"/>
  <unicode hex="0236"/>
  <note>
recipe: offset curve 32, no auto
</note>
  <outline>
    <contour>
      <point x="387" y="1904" type="line"/>
      <point x="387" y="502" type="line" smooth="yes"/>
      <point x="387" y="78"/>
      <point x="696" y="-32"/>
      <point x="955" y="-32" type="curve" smooth="yes"/>
      <point x="1348" y="-32"/>
      <point x="1463" y="213"/>
      <point x="1463" y="402" type="curve" smooth="yes"/>
      <point x="1463" y="627"/>
      <point x="1293" y="795"/>
      <point x="1033" y="795" type="curve" smooth="yes"/>
      <point x="775" y="795"/>
      <point x="400" y="630"/>
      <point x="53" y="269" type="curve"/>
      <point x="253" y="7" type="line"/>
      <point x="558" y="332"/>
      <point x="849" y="474"/>
      <point x="988" y="474" type="curve" smooth="yes"/>
      <point x="1053" y="474"/>
      <point x="1088" y="436"/>
      <point x="1088" y="386" type="curve" smooth="yes"/>
      <point x="1088" y="326"/>
      <point x="1047" y="287"/>
      <point x="994" y="287" type="curve" smooth="yes"/>
      <point x="925" y="287"/>
      <point x="876" y="337"/>
      <point x="876" y="404" type="curve" smooth="yes"/>
      <point x="876" y="1904" type="line"/>
    </contour>
    <contour>
      <point x="1153" y="1536" type="line"/>
      <point x="184" y="1536" type="line"/>
      <point x="184" y="1176" type="line"/>
      <point x="1153" y="1176" type="line"/>
    </contour>
  </outline>
</glyph>
